*
*
G04 PADS Layout (Build Number 2004.211.1) generated Gerber (RS-274-X) file*
G04 PC Version=2.1*
*
%IN "BD9C301FJ-EVK-004.pcb"*%
*
%MOMM*%
*
%FSLAX35Y35*%
*
*
*
*
G04 PC Standard Apertures*
*
*
G04 Thermal Relief Aperture macro.*
%AMTER*
1,1,$1,0,0*
1,0,$1-$2,0,0*
21,0,$3,$4,0,0,45*
21,0,$3,$4,0,0,135*
%
*
*
G04 Annular Aperture macro.*
%AMANN*
1,1,$1,0,0*
1,0,$2,0,0*
%
*
*
G04 Odd Aperture macro.*
%AMODD*
1,1,$1,0,0*
1,0,$1-0.005,0,0*
%
*
*
G04 PC Custom Aperture Macros*
*
*
*
*
*
*
G04 PC Aperture Table*
*
%ADD014C,1.8*%
%ADD017C,3.3*%
%ADD018C,0.15*%
%ADD019C,0.2*%
%ADD020C,0.6*%
%ADD021C,0.1*%
%ADD022C,2*%
%ADD023C,0.3*%
%ADD048O,3X2.5*%
*
*
*
*
G04 PC Custom Flashes*
G04 Layer Name BD9C301FJ-EVK-004.pcb - flashes*
%LPD*%
*
*
G04 PC Circuitry*
G04 Layer Name BD9C301FJ-EVK-004.pcb - circuitry*
%LPD*%
*
G54D14*
G01X11650000Y13900000D03*
X11400000D03*
X11150000D03*
G54D17*
X10500000Y10500000D03*
X14500000D03*
X10500000Y14500000D03*
X14500000D03*
G54D18*
X12700000Y12110000D02*
X12684090Y12065910D01*
X12700000Y12087500*
X12715910Y12065910*
X12700000Y12110000*
X12685566Y12070000D02*
X12687104D01*
X12712896D02*
X12714434D01*
X12690978Y12085000D02*
X12698157D01*
X12701842D02*
X12709021D01*
X12696391Y12100000D02*
X12703608D01*
X12685000Y12067144D02*
Y12068431D01*
X12700000Y12087500D02*
Y12110000D01*
X12715000Y12067144D02*
Y12068431D01*
X12700000Y12090000D02*
X12715910Y12134090D01*
X12700000Y12112500*
X12684090Y12134090*
X12700000Y12090000*
X12696391Y12100000D02*
X12703608D01*
X12690978Y12115000D02*
X12698157D01*
X12701842D02*
X12709021D01*
X12685566Y12130000D02*
X12687104D01*
X12712896D02*
X12714434D01*
X12685000Y12131568D02*
Y12132855D01*
X12700000Y12090000D02*
Y12112500D01*
X12715000Y12131568D02*
Y12132855D01*
X12660000Y12250000D02*
X12615910Y12265910D01*
X12637500Y12250000*
X12615910Y12234090*
X12660000Y12250000*
X12617144Y12235000D02*
X12618431D01*
X12637500Y12250000D02*
X12660000D01*
X12617144Y12265000D02*
X12618431D01*
X12625000Y12237370D02*
Y12240788D01*
Y12259211D02*
Y12262629D01*
X12640000Y12242783D02*
Y12257217D01*
X12655000Y12248195D02*
Y12251804D01*
X12640000Y12250000D02*
X12684090Y12234090D01*
X12662500Y12250000*
X12684090Y12265910*
X12640000Y12250000*
X12681568Y12235000D02*
X12682855D01*
X12640000Y12250000D02*
X12662500D01*
X12681568Y12265000D02*
X12682855D01*
X12640000Y12250000D02*
X12640000D01*
X12655000Y12244587D02*
Y12255412D01*
X12670000Y12239174D02*
Y12244473D01*
Y12255526D02*
Y12260825D01*
X12700000Y12210000D02*
X12684090Y12165910D01*
X12700000Y12187500*
X12715910Y12165910*
X12700000Y12210000*
X12687370Y12175000D02*
X12690788D01*
X12709211D02*
X12712629D01*
X12692783Y12190000D02*
X12707217D01*
X12698195Y12205000D02*
X12701804D01*
X12685000Y12167144D02*
Y12168431D01*
X12700000Y12187500D02*
Y12210000D01*
X12715000Y12167144D02*
Y12168431D01*
X12700000Y12190000D02*
X12715910Y12234090D01*
X12700000Y12212500*
X12684090Y12234090*
X12700000Y12190000*
X12700000*
X12694587Y12205000D02*
X12705412D01*
X12689174Y12220000D02*
X12694473D01*
X12705526D02*
X12710825D01*
X12685000Y12231568D02*
Y12232855D01*
X12700000Y12190000D02*
Y12212500D01*
X12715000Y12231568D02*
Y12232855D01*
X12560000Y12250000D02*
X12515910Y12265910D01*
X12537500Y12250000*
X12515910Y12234090*
X12560000Y12250000*
X12517144Y12235000D02*
X12518431D01*
X12537500Y12250000D02*
X12560000D01*
X12517144Y12265000D02*
X12518431D01*
X12520000Y12235566D02*
Y12237104D01*
Y12262896D02*
Y12264434D01*
X12535000Y12240978D02*
Y12248157D01*
Y12251842D02*
Y12259021D01*
X12550000Y12246391D02*
Y12253608D01*
X12540000Y12250000D02*
X12584090Y12234090D01*
X12562500Y12250000*
X12584090Y12265910*
X12540000Y12250000*
X12581568Y12235000D02*
X12582855D01*
X12540000Y12250000D02*
X12562500D01*
X12581568Y12265000D02*
X12582855D01*
X12550000Y12246391D02*
Y12253608D01*
X12565000Y12240978D02*
Y12248157D01*
Y12251842D02*
Y12259021D01*
X12580000Y12235566D02*
Y12237104D01*
Y12262896D02*
Y12264434D01*
X14200000Y13760000D02*
X14184090Y13715910D01*
X14200000Y13737500*
X14215910Y13715910*
X14200000Y13760000*
X14185566Y13720000D02*
X14187104D01*
X14212896D02*
X14214434D01*
X14190978Y13735000D02*
X14198157D01*
X14201842D02*
X14209021D01*
X14196391Y13750000D02*
X14203608D01*
X14185000Y13717144D02*
Y13718431D01*
X14200000Y13737500D02*
Y13760000D01*
X14215000Y13717144D02*
Y13718431D01*
X14200000Y13840000D02*
X14215910Y13884090D01*
X14200000Y13862500*
X14184090Y13884090*
X14200000Y13840000*
X14200000*
X14194587Y13855000D02*
X14205412D01*
X14189174Y13870000D02*
X14194473D01*
X14205526D02*
X14210825D01*
X14185000Y13881568D02*
Y13882855D01*
X14200000Y13840000D02*
Y13862500D01*
X14215000Y13881568D02*
Y13882855D01*
X12700000Y12050000D02*
Y12150000D01*
X12600000Y12250000D02*
X12700000D01*
Y12150000*
X12500000Y12250000D02*
X12600000D01*
X14200000Y13700000D02*
Y13900000D01*
G54D19*
X8999999Y31600000D02*
G75*
G03X8999999I-199999D01*
G01X8550000D02*
X9050000D01*
X8800000Y31850000D02*
Y31350000D01*
X39799999Y8400000D02*
G03X39799999I-199999D01*
G01X39350000D02*
X39850000D01*
X39600000Y8650000D02*
Y8150000D01*
X40399999Y8400000D02*
G03X40399999I-199999D01*
G01X39950000D02*
X40450000D01*
X40200000Y8650000D02*
Y8150000D01*
G54D20*
X13000000Y11570000D03*
X12500000Y11750000D03*
X12600000Y11850000D03*
X12700000Y11750000D03*
X12500000Y11850000D03*
X12600000Y11750000D03*
X12700000Y11850000D03*
Y12050000D03*
Y11950000D03*
X12600000D03*
X12500000Y12050000D03*
X12600000D03*
X12500000Y11950000D03*
X12980000Y12040000D03*
X12500000Y12150000D03*
X12600000Y12250000D03*
Y12150000D03*
X12700000Y12250000D03*
X12600000Y12350000D03*
X12700000Y12150000D03*
Y12350000D03*
X12500000D03*
Y12250000D03*
Y12450000D03*
X12600000D03*
X12700000D03*
X14050000Y13240000D03*
X13500000Y13600000D03*
X13700000D03*
X13900000D03*
X14200000Y13500000D03*
X14100000Y13600000D03*
X13400000Y13700000D03*
X13500000Y13800000D03*
X13600000Y13700000D03*
X13700000Y13800000D03*
X13900000D03*
X14000000Y13700000D03*
X13800000D03*
X14100000Y13800000D03*
X14200000Y13700000D03*
X14000000Y13900000D03*
X13800000D03*
X14200000D03*
G54D21*
X13725000Y12850000D02*
G03X13725000I-125000D01*
G01X13025000Y12500000D02*
G03X13025000I-125000D01*
G01X11825000Y11800000D02*
G03X11825000I-125000D01*
G01X14795000Y10796859D02*
Y14203140D01*
X14795000D02*
G03X14786506Y14206717I-5000J0D01*
G01X14206717Y14786505D02*
G03X14786505Y14206717I293283J-286505D01*
G01X14206717Y14786506D02*
G03X14203140Y14795000I-3576J3494D01*
G01X14203140D02*
X10796859D01*
G03X10793282Y14786506I0J-5000*
G01X10213494Y14206717D02*
G03X10793282Y14786505I286506J293283D01*
G01X10213493Y14206717D02*
G03X10205000Y14203140I-3493J-3576D01*
G01X10205000D02*
Y10796859D01*
G03X10213493Y10793282I5000J0*
G01X10793282Y10213494D02*
G03X10213494Y10793282I-293282J286506D01*
G01X10793282Y10213493D02*
G03X10796859Y10205000I3577J-3493D01*
G01X14203140*
X14203140D02*
G03X14206717Y10213493I0J5000D01*
G01X14786505Y10793282D02*
G03X14206717Y10213494I-286505J-293282D01*
G01X14786506Y10793282D02*
G03X14795000Y10796859I3494J3577D01*
G01X14625000Y12995999D02*
G03Y13296000I0J150001D01*
G01Y12995999D02*
X14575000D01*
Y13296000D02*
G03Y12995999I0J-150000D01*
G01Y13296000D02*
X14625000D01*
X14098385Y13213849D02*
G03X14001614I-48385J26151D01*
G01X14098386D02*
G03X14097896Y13212521I4398J-2377D01*
G01X14097896D02*
X14090112Y13176272D01*
X14090112D02*
G03X14090000Y13175222I4888J-1049D01*
G01X14090000D02*
Y12120000D01*
X14078284Y12091715D02*
G03X14090000Y12120000I-28284J28285D01*
G01X14078284Y12091715D02*
X13528284Y11541715D01*
X13500000Y11529999D02*
G03X13528284Y11541715I0J40001D01*
G01X13500000Y11529999D02*
X13064777D01*
X13064777D02*
G03X13063727Y11529888I0J-4999D01*
G01X13027478Y11522104*
X13027478D02*
G03X13026151Y11521614I1050J-4888D01*
G01X13026150Y11618385D02*
G03X13026151Y11521614I-26150J-48385D01*
G01X13026150Y11618386D02*
G03X13027478Y11617896I2377J4398D01*
G01X13063727Y11610112*
X13063727D02*
G03X13064777Y11610000I1050J4888D01*
G01X13064777D02*
X13481360D01*
X13481360D02*
G03X13484895Y11611465I0J5000D01*
G01X13484895D02*
X14008535Y12135104D01*
G03X14009999Y12138639I-3535J3535*
G01X14009999D02*
Y13175222D01*
X14009999D02*
G03X14009888Y13176272I-4999J0D01*
G01X14002104Y13212521*
G03X14001614Y13213849I-4888J-1049*
G01X13725000Y12850000D02*
G03X13725000I-125000D01*
G01X13028385Y12013849D02*
G03X12931614I-48385J26151D01*
G01X13028386D02*
G03X13027896Y12012521I4398J-2377D01*
G01X13027896D02*
X13020112Y11976272D01*
X13020112D02*
G03X13020000Y11975222I4888J-1049D01*
G01X13020000D02*
Y11735000D01*
X13008284Y11706715D02*
G03X13020000Y11735000I-28284J28285D01*
G01X13008284Y11706715D02*
X12778284Y11476715D01*
X12750000Y11464999D02*
G03X12778284Y11476715I0J40001D01*
G01X12750000Y11464999D02*
X12150000D01*
X12121715Y11476715D02*
G03X12150000Y11464999I28285J28285D01*
G01X12121715Y11476715D02*
X11981715Y11616715D01*
X11969999Y11645000D02*
G03X11981715Y11616715I40001J0D01*
G01X11969999Y11645000D02*
Y13271360D01*
X11969999D02*
G03X11968535Y13274895I-4999J0D01*
G01X11968535D02*
X11505372Y13738057D01*
X11505372D02*
G03X11503736Y13739147I-3534J-3534D01*
G01X11503737D02*
X11392027Y13785031D01*
X11392027D02*
G03X11390539Y13785389I-1898J-4624D01*
G01X11514610Y13909461D02*
G03X11390539Y13785389I-114610J-9461D01*
G01X11514610Y13909461D02*
G03X11514968Y13907972I4983J411D01*
G01X11514968D02*
X11526927Y13878858D01*
X11526927D02*
G03X11536487Y13881560I4625J1900D01*
G01X11556298Y13833328D02*
G03X11536487Y13881560I93702J66672D01*
G01X11556298Y13833328D02*
G03X11547599Y13828529I-4073J-2898D01*
G01X11547599D02*
X11560852Y13796262D01*
X11560852D02*
G03X11561942Y13794626I4625J1900D01*
G01X11561942D02*
X12038284Y13318284D01*
X12050000Y13290000D02*
G03X12038284Y13318284I-40000J0D01*
G01X12050000Y13290000D02*
Y11663639D01*
X12050000D02*
G03X12051465Y11660104I5000J0D01*
G01X12165104Y11546465*
G03X12168639Y11545000I3535J3535*
G01X12168639D02*
X12269473D01*
X12269473D02*
G03X12269999Y11545028I0J5000D01*
G01X12270000D02*
G03X12270526Y11545000I526J4972D01*
G01X12270526D02*
X12731360D01*
X12731360D02*
G03X12734895Y11546465I0J5000D01*
G01X12734895D02*
X12938535Y11750104D01*
G03X12939999Y11753639I-3535J3535*
G01X12939999D02*
Y11975222D01*
X12939999D02*
G03X12939888Y11976272I-4999J0D01*
G01X12932104Y12012521*
G03X12931614Y12013849I-4888J-1049*
G01X13025000Y12500000D02*
G03X13025000I-125000D01*
G01X12270506Y11555000D02*
G03X12269493I-506J125000D01*
G01X12270506D02*
G03X12270000Y11554972I20J-4999D01*
G01X12269999D02*
G03X12269493Y11555000I-525J-4971D01*
G01X10575000Y11795999D02*
G03Y12096000I0J150001D01*
G01Y11795999D02*
X10525000D01*
Y12096000D02*
G03Y11795999I0J-150000D01*
G01Y12096000D02*
X10575000D01*
X11825000Y11800000D02*
G03X11825000I-125000D01*
G01X14780498Y14200966D02*
X14795000D01*
X14770584Y14191966D02*
X14795000D01*
X14759981Y14182966D02*
X14795000D01*
X14748601Y14173966D02*
X14795000D01*
X14736332Y14164966D02*
X14795000D01*
X14723028Y14155966D02*
X14795000D01*
X14708489Y14146966D02*
X14795000D01*
X14692437Y14137966D02*
X14795000D01*
X14674455Y14128966D02*
X14795000D01*
X14653867Y14119966D02*
X14795000D01*
X14629435Y14110966D02*
X14795000D01*
X14598335Y14101966D02*
X14795000D01*
X14549237Y14092966D02*
X14795000D01*
X10205000Y14083966D02*
X14795000D01*
X10205000Y14074966D02*
X14795000D01*
X10205000Y14065966D02*
X14795000D01*
X10205000Y14056966D02*
X14795000D01*
X10205000Y14047966D02*
X14795000D01*
X10205000Y14038966D02*
X14795000D01*
X10205000Y14029966D02*
X14795000D01*
X10205000Y14020966D02*
X14795000D01*
X11676240Y14011966D02*
X14795000D01*
X11701215Y14002966D02*
X14795000D01*
X11716297Y13993966D02*
X14795000D01*
X11727497Y13984966D02*
X14795000D01*
X11736337Y13975966D02*
X14795000D01*
X11743491Y13966966D02*
X14795000D01*
X11749322Y13957966D02*
X14795000D01*
X11754054Y13948966D02*
X14795000D01*
X11757832Y13939966D02*
X14795000D01*
X11760752Y13930966D02*
X14795000D01*
X11762883Y13921966D02*
X14795000D01*
X11764267Y13912966D02*
X14795000D01*
X11764932Y13903966D02*
X14795000D01*
X11764890Y13894966D02*
X14795000D01*
X11764141Y13885966D02*
X14795000D01*
X11762670Y13876966D02*
X14795000D01*
X11760449Y13867966D02*
X14795000D01*
X11757430Y13858966D02*
X14795000D01*
X11753546Y13849966D02*
X14795000D01*
X11748692Y13840966D02*
X14795000D01*
X11742717Y13831966D02*
X14795000D01*
X11735387Y13822966D02*
X14795000D01*
X11726311Y13813966D02*
X14795000D01*
X11714759Y13804966D02*
X14795000D01*
X11699012Y13795966D02*
X14795000D01*
X11671179Y13786966D02*
X14795000D01*
X11578602Y13777966D02*
X14795000D01*
X11587602Y13768966D02*
X14795000D01*
X11596602Y13759966D02*
X14795000D01*
X11605602Y13750966D02*
X14795000D01*
X11614602Y13741966D02*
X14795000D01*
X11623602Y13732966D02*
X14795000D01*
X11632602Y13723966D02*
X14795000D01*
X11641602Y13714966D02*
X14795000D01*
X11650602Y13705966D02*
X14795000D01*
X11659602Y13696966D02*
X14795000D01*
X11668602Y13687966D02*
X14795000D01*
X11677602Y13678966D02*
X14795000D01*
X11686602Y13669966D02*
X14795000D01*
X11695602Y13660966D02*
X14795000D01*
X11704602Y13651966D02*
X14795000D01*
X11713602Y13642966D02*
X14795000D01*
X11722602Y13633966D02*
X14795000D01*
X11731602Y13624966D02*
X14795000D01*
X11740602Y13615966D02*
X14795000D01*
X11749602Y13606966D02*
X14795000D01*
X11758602Y13597966D02*
X14795000D01*
X11767602Y13588966D02*
X14795000D01*
X11776602Y13579966D02*
X14795000D01*
X11785602Y13570966D02*
X14795000D01*
X11794602Y13561966D02*
X14795000D01*
X11803602Y13552966D02*
X14795000D01*
X11812602Y13543966D02*
X14795000D01*
X11821602Y13534966D02*
X14795000D01*
X11830602Y13525966D02*
X14795000D01*
X11839602Y13516966D02*
X14795000D01*
X11848602Y13507966D02*
X14795000D01*
X11857602Y13498966D02*
X14795000D01*
X11866602Y13489966D02*
X14795000D01*
X11875602Y13480966D02*
X14795000D01*
X11884602Y13471966D02*
X14795000D01*
X11893602Y13462966D02*
X14795000D01*
X11902602Y13453966D02*
X14795000D01*
X11911602Y13444966D02*
X14795000D01*
X11920602Y13435966D02*
X14795000D01*
X11929602Y13426966D02*
X14795000D01*
X11938602Y13417966D02*
X14795000D01*
X11947602Y13408966D02*
X14795000D01*
X11956602Y13399966D02*
X14795000D01*
X11965602Y13390966D02*
X14795000D01*
X11974602Y13381966D02*
X14795000D01*
X11983602Y13372966D02*
X14795000D01*
X11992602Y13363966D02*
X14795000D01*
X12001602Y13354966D02*
X14795000D01*
X12010602Y13345966D02*
X14795000D01*
X12019602Y13336966D02*
X14795000D01*
X12028602Y13327966D02*
X14795000D01*
X12037602Y13318966D02*
X14795000D01*
X12044660Y13309966D02*
X14795000D01*
X12048467Y13300966D02*
X14795000D01*
X14659552Y13291966D02*
X14795000D01*
X14686157Y13282966D02*
X14795000D01*
X14703260Y13273966D02*
X14795000D01*
X14716362Y13264966D02*
X14795000D01*
X14727017Y13255966D02*
X14795000D01*
X14735931Y13246966D02*
X14795000D01*
X14743500Y13237966D02*
X14795000D01*
X14749966Y13228966D02*
X14795000D01*
X14755495Y13219966D02*
X14795000D01*
X14760201Y13210966D02*
X14795000D01*
X14764168Y13201966D02*
X14795000D01*
X14767458Y13192966D02*
X14795000D01*
X14770116Y13183966D02*
X14795000D01*
X14772177Y13174966D02*
X14795000D01*
X14773665Y13165966D02*
X14795000D01*
X14774599Y13156966D02*
X14795000D01*
X14774987Y13147966D02*
X14795000D01*
X14774835Y13138966D02*
X14795000D01*
X14774141Y13129966D02*
X14795000D01*
X14772896Y13120966D02*
X14795000D01*
X14771088Y13111966D02*
X14795000D01*
X14768695Y13102966D02*
X14795000D01*
X14765686Y13093966D02*
X14795000D01*
X14762022Y13084966D02*
X14795000D01*
X14757648Y13075966D02*
X14795000D01*
X14752490Y13066966D02*
X14795000D01*
X14746450Y13057966D02*
X14795000D01*
X14739388Y13048966D02*
X14795000D01*
X14731099Y13039966D02*
X14795000D01*
X14721267Y13030966D02*
X14795000D01*
X14709355Y13021966D02*
X14795000D01*
X14694298Y13012966D02*
X14795000D01*
X14673235Y13003966D02*
X14795000D01*
X14090000Y12994966D02*
X14795000D01*
X14090000Y12985966D02*
X14795000D01*
X14090000Y12976966D02*
X14795000D01*
X14090000Y12967966D02*
X14795000D01*
X14090000Y12958966D02*
X14795000D01*
X14090000Y12949966D02*
X14795000D01*
X14090000Y12940966D02*
X14795000D01*
X14090000Y12931966D02*
X14795000D01*
X14090000Y12922966D02*
X14795000D01*
X14090000Y12913966D02*
X14795000D01*
X14090000Y12904966D02*
X14795000D01*
X14090000Y12895966D02*
X14795000D01*
X14090000Y12886966D02*
X14795000D01*
X14090000Y12877966D02*
X14795000D01*
X14090000Y12868966D02*
X14795000D01*
X14090000Y12859966D02*
X14795000D01*
X14090000Y12850966D02*
X14795000D01*
X14090000Y12841966D02*
X14795000D01*
X14090000Y12832966D02*
X14795000D01*
X14090000Y12823966D02*
X14795000D01*
X14090000Y12814966D02*
X14795000D01*
X14090000Y12805966D02*
X14795000D01*
X14090000Y12796966D02*
X14795000D01*
X14090000Y12787966D02*
X14795000D01*
X14090000Y12778966D02*
X14795000D01*
X14090000Y12769966D02*
X14795000D01*
X14090000Y12760966D02*
X14795000D01*
X14090000Y12751966D02*
X14795000D01*
X14090000Y12742966D02*
X14795000D01*
X14090000Y12733966D02*
X14795000D01*
X14090000Y12724966D02*
X14795000D01*
X14090000Y12715966D02*
X14795000D01*
X14090000Y12706966D02*
X14795000D01*
X14090000Y12697966D02*
X14795000D01*
X14090000Y12688966D02*
X14795000D01*
X14090000Y12679966D02*
X14795000D01*
X14090000Y12670966D02*
X14795000D01*
X14090000Y12661966D02*
X14795000D01*
X14090000Y12652966D02*
X14795000D01*
X14090000Y12643966D02*
X14795000D01*
X14090000Y12634966D02*
X14795000D01*
X14090000Y12625966D02*
X14795000D01*
X14090000Y12616966D02*
X14795000D01*
X14090000Y12607966D02*
X14795000D01*
X14090000Y12598966D02*
X14795000D01*
X14090000Y12589966D02*
X14795000D01*
X14090000Y12580966D02*
X14795000D01*
X14090000Y12571966D02*
X14795000D01*
X14090000Y12562966D02*
X14795000D01*
X14090000Y12553966D02*
X14795000D01*
X14090000Y12544966D02*
X14795000D01*
X14090000Y12535966D02*
X14795000D01*
X14090000Y12526966D02*
X14795000D01*
X14090000Y12517966D02*
X14795000D01*
X14090000Y12508966D02*
X14795000D01*
X14090000Y12499966D02*
X14795000D01*
X14090000Y12490966D02*
X14795000D01*
X14090000Y12481966D02*
X14795000D01*
X14090000Y12472966D02*
X14795000D01*
X14090000Y12463966D02*
X14795000D01*
X14090000Y12454966D02*
X14795000D01*
X14090000Y12445966D02*
X14795000D01*
X14090000Y12436966D02*
X14795000D01*
X14090000Y12427966D02*
X14795000D01*
X14090000Y12418966D02*
X14795000D01*
X14090000Y12409966D02*
X14795000D01*
X14090000Y12400966D02*
X14795000D01*
X14090000Y12391966D02*
X14795000D01*
X14090000Y12382966D02*
X14795000D01*
X14090000Y12373966D02*
X14795000D01*
X14090000Y12364966D02*
X14795000D01*
X14090000Y12355966D02*
X14795000D01*
X14090000Y12346966D02*
X14795000D01*
X14090000Y12337966D02*
X14795000D01*
X14090000Y12328966D02*
X14795000D01*
X14090000Y12319966D02*
X14795000D01*
X14090000Y12310966D02*
X14795000D01*
X14090000Y12301966D02*
X14795000D01*
X14090000Y12292966D02*
X14795000D01*
X14090000Y12283966D02*
X14795000D01*
X14090000Y12274966D02*
X14795000D01*
X14090000Y12265966D02*
X14795000D01*
X14090000Y12256966D02*
X14795000D01*
X14090000Y12247966D02*
X14795000D01*
X14090000Y12238966D02*
X14795000D01*
X14090000Y12229966D02*
X14795000D01*
X14090000Y12220966D02*
X14795000D01*
X14090000Y12211966D02*
X14795000D01*
X14090000Y12202966D02*
X14795000D01*
X14090000Y12193966D02*
X14795000D01*
X14090000Y12184966D02*
X14795000D01*
X14090000Y12175966D02*
X14795000D01*
X14090000Y12166966D02*
X14795000D01*
X14090000Y12157966D02*
X14795000D01*
X14090000Y12148966D02*
X14795000D01*
X14090000Y12139966D02*
X14795000D01*
X14090000Y12130966D02*
X14795000D01*
X14090000Y12121966D02*
X14795000D01*
X14089377Y12112966D02*
X14795000D01*
X14086646Y12103966D02*
X14795000D01*
X14081198Y12094966D02*
X14795000D01*
X14072536Y12085966D02*
X14795000D01*
X14063536Y12076966D02*
X14795000D01*
X14054536Y12067966D02*
X14795000D01*
X14045536Y12058966D02*
X14795000D01*
X14036536Y12049966D02*
X14795000D01*
X14027536Y12040966D02*
X14795000D01*
X14018536Y12031966D02*
X14795000D01*
X14009536Y12022966D02*
X14795000D01*
X14000536Y12013966D02*
X14795000D01*
X13991536Y12004966D02*
X14795000D01*
X13982536Y11995966D02*
X14795000D01*
X13973536Y11986966D02*
X14795000D01*
X13964536Y11977966D02*
X14795000D01*
X13955536Y11968966D02*
X14795000D01*
X13946536Y11959966D02*
X14795000D01*
X13937536Y11950966D02*
X14795000D01*
X13928536Y11941966D02*
X14795000D01*
X13919536Y11932966D02*
X14795000D01*
X13910536Y11923966D02*
X14795000D01*
X13901536Y11914966D02*
X14795000D01*
X13892536Y11905966D02*
X14795000D01*
X13883536Y11896966D02*
X14795000D01*
X13874536Y11887966D02*
X14795000D01*
X13865536Y11878966D02*
X14795000D01*
X13856536Y11869966D02*
X14795000D01*
X13847536Y11860966D02*
X14795000D01*
X13838536Y11851966D02*
X14795000D01*
X13829536Y11842966D02*
X14795000D01*
X13820536Y11833966D02*
X14795000D01*
X13811536Y11824966D02*
X14795000D01*
X13802536Y11815966D02*
X14795000D01*
X13793536Y11806966D02*
X14795000D01*
X13784536Y11797966D02*
X14795000D01*
X13775536Y11788966D02*
X14795000D01*
X13766536Y11779966D02*
X14795000D01*
X13757536Y11770966D02*
X14795000D01*
X13748536Y11761966D02*
X14795000D01*
X13739536Y11752966D02*
X14795000D01*
X13730536Y11743966D02*
X14795000D01*
X13721536Y11734966D02*
X14795000D01*
X13712536Y11725966D02*
X14795000D01*
X13703536Y11716966D02*
X14795000D01*
X13694536Y11707966D02*
X14795000D01*
X13685536Y11698966D02*
X14795000D01*
X13676536Y11689966D02*
X14795000D01*
X13667536Y11680966D02*
X14795000D01*
X13658536Y11671966D02*
X14795000D01*
X13649536Y11662966D02*
X14795000D01*
X13640536Y11653966D02*
X14795000D01*
X13631536Y11644966D02*
X14795000D01*
X13622536Y11635966D02*
X14795000D01*
X13613536Y11626966D02*
X14795000D01*
X13604536Y11617966D02*
X14795000D01*
X13595536Y11608966D02*
X14795000D01*
X13586536Y11599966D02*
X14795000D01*
X13577536Y11590966D02*
X14795000D01*
X13568536Y11581966D02*
X14795000D01*
X13559536Y11572966D02*
X14795000D01*
X13550536Y11563966D02*
X14795000D01*
X13541536Y11554966D02*
X14795000D01*
X13532536Y11545966D02*
X14795000D01*
X13522557Y11536966D02*
X14795000D01*
X13054779Y11527966D02*
X14795000D01*
X13020509Y11518966D02*
X14795000D01*
X12811536Y11509966D02*
X14795000D01*
X12802536Y11500966D02*
X14795000D01*
X12793536Y11491966D02*
X14795000D01*
X12784536Y11482966D02*
X14795000D01*
X12775238Y11473966D02*
X14795000D01*
X10205000Y11464966D02*
X14795000D01*
X10205000Y11455966D02*
X14795000D01*
X10205000Y11446966D02*
X14795000D01*
X10205000Y11437966D02*
X14795000D01*
X10205000Y11428966D02*
X14795000D01*
X10205000Y11419966D02*
X14795000D01*
X10205000Y11410966D02*
X14795000D01*
X10205000Y11401966D02*
X14795000D01*
X10205000Y11392966D02*
X14795000D01*
X10205000Y11383966D02*
X14795000D01*
X10205000Y11374966D02*
X14795000D01*
X10205000Y11365966D02*
X14795000D01*
X10205000Y11356966D02*
X14795000D01*
X10205000Y11347966D02*
X14795000D01*
X10205000Y11338966D02*
X14795000D01*
X10205000Y11329966D02*
X14795000D01*
X10205000Y11320966D02*
X14795000D01*
X10205000Y11311966D02*
X14795000D01*
X10205000Y11302966D02*
X14795000D01*
X10205000Y11293966D02*
X14795000D01*
X10205000Y11284966D02*
X14795000D01*
X10205000Y11275966D02*
X14795000D01*
X10205000Y11266966D02*
X14795000D01*
X10205000Y11257966D02*
X14795000D01*
X10205000Y11248966D02*
X14795000D01*
X10205000Y11239966D02*
X14795000D01*
X10205000Y11230966D02*
X14795000D01*
X10205000Y11221966D02*
X14795000D01*
X10205000Y11212966D02*
X14795000D01*
X10205000Y11203966D02*
X14795000D01*
X10205000Y11194966D02*
X14795000D01*
X10205000Y11185966D02*
X14795000D01*
X10205000Y11176966D02*
X14795000D01*
X10205000Y11167966D02*
X14795000D01*
X10205000Y11158966D02*
X14795000D01*
X10205000Y11149966D02*
X14795000D01*
X10205000Y11140966D02*
X14795000D01*
X10205000Y11131966D02*
X14795000D01*
X10205000Y11122966D02*
X14795000D01*
X10205000Y11113966D02*
X14795000D01*
X10205000Y11104966D02*
X14795000D01*
X10205000Y11095966D02*
X14795000D01*
X10205000Y11086966D02*
X14795000D01*
X10205000Y11077966D02*
X14795000D01*
X10205000Y11068966D02*
X14795000D01*
X10205000Y11059966D02*
X14795000D01*
X10205000Y11050966D02*
X14795000D01*
X10205000Y11041966D02*
X14795000D01*
X10205000Y11032966D02*
X14795000D01*
X10205000Y11023966D02*
X14795000D01*
X10205000Y11014966D02*
X14795000D01*
X10205000Y11005966D02*
X14795000D01*
X10205000Y10996966D02*
X14795000D01*
X10205000Y10987966D02*
X14795000D01*
X10205000Y10978966D02*
X14795000D01*
X10205000Y10969966D02*
X14795000D01*
X10205000Y10960966D02*
X14795000D01*
X10205000Y10951966D02*
X14795000D01*
X10205000Y10942966D02*
X14795000D01*
X10205000Y10933966D02*
X14795000D01*
X10205000Y10924966D02*
X14795000D01*
X10205000Y10915966D02*
X14795000D01*
X14549785Y10906966D02*
X14795000D01*
X14598605Y10897966D02*
X14795000D01*
X14629635Y10888966D02*
X14795000D01*
X14654031Y10879966D02*
X14795000D01*
X14674597Y10870966D02*
X14795000D01*
X14692563Y10861966D02*
X14795000D01*
X14708602Y10852966D02*
X14795000D01*
X14723130Y10843966D02*
X14795000D01*
X14736427Y10834966D02*
X14795000D01*
X14748688Y10825966D02*
X14795000D01*
X14760062Y10816966D02*
X14795000D01*
X14770660Y10807966D02*
X14795000D01*
X14780569Y10798966D02*
X14795000D01*
X14068014Y13291966D02*
X14540447D01*
X14090000Y13003966D02*
X14526764D01*
X14084335Y13282966D02*
X14513842D01*
X14090000Y13012966D02*
X14505701D01*
X14093258Y13273966D02*
X14496739D01*
X14090000Y13021966D02*
X14490644D01*
X14099007Y13264966D02*
X14483637D01*
X14090000Y13030966D02*
X14478732D01*
X14102632Y13255966D02*
X14472982D01*
X14090000Y13039966D02*
X14468900D01*
X14104557Y13246966D02*
X14464068D01*
X14090000Y13048966D02*
X14460611D01*
X14104962Y13237966D02*
X14456499D01*
X14090000Y13057966D02*
X14453549D01*
X10549237Y14092966D02*
X14450762D01*
X10549785Y10906966D02*
X14450214D01*
X14103882Y13228966D02*
X14450033D01*
X14090000Y13066966D02*
X14447509D01*
X14101222Y13219966D02*
X14444504D01*
X14090000Y13075966D02*
X14442352D01*
X14097562Y13210966D02*
X14439798D01*
X14090000Y13084966D02*
X14437977D01*
X14095629Y13201966D02*
X14435831D01*
X14090000Y13093966D02*
X14434313D01*
X14093696Y13192966D02*
X14432541D01*
X14090000Y13102966D02*
X14431304D01*
X14091764Y13183966D02*
X14429883D01*
X14090000Y13111966D02*
X14428911D01*
X14090000Y13174966D02*
X14427822D01*
X14090000Y13120966D02*
X14427103D01*
X14090000Y13165966D02*
X14426334D01*
X14090000Y13129966D02*
X14425858D01*
X14090000Y13156966D02*
X14425400D01*
X14090000Y13138966D02*
X14425164D01*
X14090000Y13147966D02*
X14425012D01*
X10598335Y14101966D02*
X14401664D01*
X10598605Y10897966D02*
X14401394D01*
X10629435Y14110966D02*
X14370564D01*
X10629635Y10888966D02*
X14370364D01*
X10653867Y14119966D02*
X14346132D01*
X10654031Y10879966D02*
X14345968D01*
X10674455Y14128966D02*
X14325544D01*
X10674597Y10870966D02*
X14325402D01*
X10692437Y14137966D02*
X14307562D01*
X10692563Y10861966D02*
X14307436D01*
X10708489Y14146966D02*
X14291510D01*
X10708602Y10852966D02*
X14291397D01*
X10723028Y14155966D02*
X14276972D01*
X10723130Y10843966D02*
X14276869D01*
X10736332Y14164966D02*
X14263667D01*
X10736427Y10834966D02*
X14263572D01*
X10748601Y14173966D02*
X14251398D01*
X10748688Y10825966D02*
X14251311D01*
X10759981Y14182966D02*
X14240018D01*
X10760062Y10816966D02*
X14239937D01*
X10770584Y14191966D02*
X14229415D01*
X10770660Y10807966D02*
X14229339D01*
X10780498Y14200966D02*
X14219501D01*
X10780569Y10798966D02*
X14219430D01*
X10789794Y14209966D02*
X14210205D01*
X10789861Y10789966D02*
X14210138D01*
X10793743Y10213966D02*
X14206256D01*
X10793808Y14785966D02*
X14206191D01*
X10796282Y14794966D02*
X14203717D01*
X10798530Y14218966D02*
X14201469D01*
X10798593Y10780966D02*
X14201406D01*
X10802246Y10222966D02*
X14197753D01*
X10802307Y14776966D02*
X14197692D01*
X10806754Y14227966D02*
X14193245D01*
X10806813Y10771966D02*
X14193186D01*
X10810255Y10231966D02*
X14189744D01*
X10810313Y14767966D02*
X14189686D01*
X10814505Y14236966D02*
X14185494D01*
X10814561Y10762966D02*
X14185438D01*
X10817808Y10240966D02*
X14182191D01*
X10817862Y14758966D02*
X14182137D01*
X10821819Y14245966D02*
X14178180D01*
X10821871Y10753966D02*
X14178128D01*
X10824936Y10249966D02*
X14175063D01*
X10824987Y14749966D02*
X14175012D01*
X10828723Y14254966D02*
X14171276D01*
X10828773Y10744966D02*
X14171226D01*
X10831667Y10258966D02*
X14168332D01*
X10831716Y14740966D02*
X14168284D01*
X10835244Y14263966D02*
X14164755D01*
X10835291Y10735966D02*
X14164708D01*
X10838025Y10267966D02*
X14161974D01*
X10838070Y14731966D02*
X14161929D01*
X10841403Y14272966D02*
X14158596D01*
X10841447Y10726966D02*
X14158552D01*
X10844029Y10276966D02*
X14155970D01*
X10844073Y14722966D02*
X14155926D01*
X10847220Y14281966D02*
X14152779D01*
X10847262Y10717966D02*
X14152737D01*
X10849700Y10285966D02*
X14150299D01*
X10849740Y14713966D02*
X14150259D01*
X10852711Y14290966D02*
X14147288D01*
X10852751Y10708966D02*
X14147248D01*
X10855051Y10294966D02*
X14144948D01*
X10855090Y14704966D02*
X14144909D01*
X10857892Y14299966D02*
X14142107D01*
X10857929Y10699966D02*
X14142070D01*
X10860099Y10303966D02*
X14139900D01*
X10860135Y14695966D02*
X14139864D01*
X10862776Y14308966D02*
X14137223D01*
X10862811Y10690966D02*
X14137188D01*
X10864854Y10312966D02*
X14135145D01*
X10864888Y14686966D02*
X14135111D01*
X10867374Y14317966D02*
X14132625D01*
X10867407Y10681966D02*
X14132592D01*
X10869329Y10321966D02*
X14130670D01*
X10869362Y14677966D02*
X14130638D01*
X10871698Y14326966D02*
X14128301D01*
X10871729Y10672966D02*
X14128270D01*
X10873534Y10330966D02*
X14126465D01*
X10873564Y14668966D02*
X14126435D01*
X10875757Y14335966D02*
X14124242D01*
X10875786Y10663966D02*
X14124213D01*
X10877478Y10339966D02*
X14122521D01*
X10877506Y14659966D02*
X14122493D01*
X10879559Y14344966D02*
X14120440D01*
X10879586Y10654966D02*
X14120413D01*
X10881168Y10348966D02*
X14118831D01*
X10881194Y14650966D02*
X14118805D01*
X10883111Y14353966D02*
X14116888D01*
X10883137Y10645966D02*
X14116862D01*
X10884612Y10357966D02*
X14115387D01*
X10884637Y14641966D02*
X14115362D01*
X10886422Y14362966D02*
X14113577D01*
X10886446Y10636966D02*
X14113553D01*
X10887817Y10366966D02*
X14112182D01*
X10887840Y14632966D02*
X14112159D01*
X10889497Y14371966D02*
X14110503D01*
X10889518Y10627966D02*
X14110481D01*
X10890789Y10375966D02*
X14109210D01*
X10890810Y14623966D02*
X14109189D01*
X10892341Y14380966D02*
X14107658D01*
X10892361Y10618966D02*
X14107638D01*
X10893532Y10384966D02*
X14106467D01*
X10893551Y14614966D02*
X14106448D01*
X10894959Y14389966D02*
X14105040D01*
X10894978Y10609966D02*
X14105021D01*
X10896052Y10393966D02*
X14103947D01*
X10896070Y14605966D02*
X14103929D01*
X10897357Y14398966D02*
X14102642D01*
X10897374Y10600966D02*
X14102625D01*
X10898352Y10402966D02*
X14101647D01*
X10898369Y14596966D02*
X14101630D01*
X10899537Y14407966D02*
X14100462D01*
X10899552Y10591966D02*
X14100447D01*
X10900438Y10411966D02*
X14099562D01*
X10900452Y14587966D02*
X14099547D01*
X10901504Y14416966D02*
X14098495D01*
X10901518Y10582966D02*
X14098481D01*
X10902311Y10420966D02*
X14097688D01*
X10902324Y14578966D02*
X14097675D01*
X10903261Y14425966D02*
X14096738D01*
X10903273Y10573966D02*
X14096726D01*
X10903974Y10429966D02*
X14096025D01*
X10903986Y14569966D02*
X14096013D01*
X10904809Y14434966D02*
X14095190D01*
X10904820Y10564966D02*
X14095179D01*
X10905432Y10438966D02*
X14094567D01*
X10905442Y14560966D02*
X14094557D01*
X10906153Y14443966D02*
X14093846D01*
X10906162Y10555966D02*
X14093837D01*
X10906685Y10447966D02*
X14093314D01*
X10906693Y14551966D02*
X14093306D01*
X10907293Y14452966D02*
X14092706D01*
X10907301Y10546966D02*
X14092698D01*
X10907735Y10456966D02*
X14092264D01*
X10907742Y14542966D02*
X14092257D01*
X10908232Y14461966D02*
X14091767D01*
X10908238Y10537966D02*
X14091761D01*
X10908585Y10465966D02*
X14091414D01*
X10908591Y14533966D02*
X14091408D01*
X10908971Y14470966D02*
X14091028D01*
X10908976Y10528966D02*
X14091024D01*
X10909235Y10474966D02*
X14090764D01*
X10909239Y14524966D02*
X14090760D01*
X10909510Y14479966D02*
X14090489D01*
X10909514Y10519966D02*
X14090485D01*
X10909686Y10483966D02*
X14090313D01*
X10909689Y14515966D02*
X14090310D01*
X10909852Y14488966D02*
X14090147D01*
X10909853Y10510966D02*
X14090146D01*
X10909940Y10492966D02*
X14090059D01*
X10909941Y14506966D02*
X14090058D01*
X10909995Y14497966D02*
X14090004D01*
X10909995Y10501966D02*
X14090004D01*
X12049952Y13291966D02*
X14031985D01*
X12050000Y13282966D02*
X14015664D01*
X12050000Y13174966D02*
X14009999D01*
X12050000Y13165966D02*
X14009999D01*
X12050000Y13156966D02*
X14009999D01*
X12050000Y13147966D02*
X14009999D01*
X12050000Y13138966D02*
X14009999D01*
X12050000Y13129966D02*
X14009999D01*
X12050000Y13120966D02*
X14009999D01*
X12050000Y13111966D02*
X14009999D01*
X12050000Y13102966D02*
X14009999D01*
X12050000Y13093966D02*
X14009999D01*
X12050000Y13084966D02*
X14009999D01*
X12050000Y13075966D02*
X14009999D01*
X12050000Y13066966D02*
X14009999D01*
X12050000Y13057966D02*
X14009999D01*
X12050000Y13048966D02*
X14009999D01*
X12050000Y13039966D02*
X14009999D01*
X12050000Y13030966D02*
X14009999D01*
X12050000Y13021966D02*
X14009999D01*
X12050000Y13012966D02*
X14009999D01*
X12050000Y13003966D02*
X14009999D01*
X12050000Y12994966D02*
X14009999D01*
X12050000Y12985966D02*
X14009999D01*
X12050000Y12976966D02*
X14009999D01*
X13641340Y12967966D02*
X14009999D01*
X13661248Y12958966D02*
X14009999D01*
X13675045Y12949966D02*
X14009999D01*
X13685733Y12940966D02*
X14009999D01*
X13694374Y12931966D02*
X14009999D01*
X13701493Y12922966D02*
X14009999D01*
X13707393Y12913966D02*
X14009999D01*
X13712266Y12904966D02*
X14009999D01*
X13716242Y12895966D02*
X14009999D01*
X13719409Y12886966D02*
X14009999D01*
X13721831Y12877966D02*
X14009999D01*
X13723553Y12868966D02*
X14009999D01*
X13724602Y12859966D02*
X14009999D01*
X13724996Y12850966D02*
X14009999D01*
X13724742Y12841966D02*
X14009999D01*
X13723834Y12832966D02*
X14009999D01*
X13722259Y12823966D02*
X14009999D01*
X13719990Y12814966D02*
X14009999D01*
X13716988Y12805966D02*
X14009999D01*
X13713192Y12796966D02*
X14009999D01*
X13708521Y12787966D02*
X14009999D01*
X13702856Y12778966D02*
X14009999D01*
X13696019Y12769966D02*
X14009999D01*
X13687739Y12760966D02*
X14009999D01*
X13677553Y12751966D02*
X14009999D01*
X13664567Y12742966D02*
X14009999D01*
X13646490Y12733966D02*
X14009999D01*
X12050000Y12724966D02*
X14009999D01*
X12050000Y12715966D02*
X14009999D01*
X12050000Y12706966D02*
X14009999D01*
X12050000Y12697966D02*
X14009999D01*
X12050000Y12688966D02*
X14009999D01*
X12050000Y12679966D02*
X14009999D01*
X12050000Y12670966D02*
X14009999D01*
X12050000Y12661966D02*
X14009999D01*
X12050000Y12652966D02*
X14009999D01*
X12050000Y12643966D02*
X14009999D01*
X12050000Y12634966D02*
X14009999D01*
X12050000Y12625966D02*
X14009999D01*
X12944090Y12616966D02*
X14009999D01*
X12962994Y12607966D02*
X14009999D01*
X12976359Y12598966D02*
X14009999D01*
X12986782Y12589966D02*
X14009999D01*
X12995234Y12580966D02*
X14009999D01*
X13002205Y12571966D02*
X14009999D01*
X13007983Y12562966D02*
X14009999D01*
X13012750Y12553966D02*
X14009999D01*
X13016632Y12544966D02*
X14009999D01*
X13019714Y12535966D02*
X14009999D01*
X13022057Y12526966D02*
X14009999D01*
X13023702Y12517966D02*
X14009999D01*
X13024678Y12508966D02*
X14009999D01*
X13025000Y12499966D02*
X14009999D01*
X13024673Y12490966D02*
X14009999D01*
X13023692Y12481966D02*
X14009999D01*
X13022042Y12472966D02*
X14009999D01*
X13019694Y12463966D02*
X14009999D01*
X13016606Y12454966D02*
X14009999D01*
X13012718Y12445966D02*
X14009999D01*
X13007944Y12436966D02*
X14009999D01*
X13002158Y12427966D02*
X14009999D01*
X12995177Y12418966D02*
X14009999D01*
X12986712Y12409966D02*
X14009999D01*
X12976272Y12400966D02*
X14009999D01*
X12962880Y12391966D02*
X14009999D01*
X12943912Y12382966D02*
X14009999D01*
X12050000Y12373966D02*
X14009999D01*
X12050000Y12364966D02*
X14009999D01*
X12050000Y12355966D02*
X14009999D01*
X12050000Y12346966D02*
X14009999D01*
X12050000Y12337966D02*
X14009999D01*
X12050000Y12328966D02*
X14009999D01*
X12050000Y12319966D02*
X14009999D01*
X12050000Y12310966D02*
X14009999D01*
X12050000Y12301966D02*
X14009999D01*
X12050000Y12292966D02*
X14009999D01*
X12050000Y12283966D02*
X14009999D01*
X12050000Y12274966D02*
X14009999D01*
X12050000Y12265966D02*
X14009999D01*
X12050000Y12256966D02*
X14009999D01*
X12050000Y12247966D02*
X14009999D01*
X12050000Y12238966D02*
X14009999D01*
X12050000Y12229966D02*
X14009999D01*
X12050000Y12220966D02*
X14009999D01*
X12050000Y12211966D02*
X14009999D01*
X12050000Y12202966D02*
X14009999D01*
X12050000Y12193966D02*
X14009999D01*
X12050000Y12184966D02*
X14009999D01*
X12050000Y12175966D02*
X14009999D01*
X12050000Y12166966D02*
X14009999D01*
X12050000Y12157966D02*
X14009999D01*
X12050000Y12148966D02*
X14009999D01*
X12050000Y12139966D02*
X14009999D01*
X12050000Y13183966D02*
X14008235D01*
X12050000Y13273966D02*
X14006741D01*
X12050000Y13192966D02*
X14006303D01*
X12050000Y12130966D02*
X14004397D01*
X12050000Y13201966D02*
X14004370D01*
X12050000Y13210966D02*
X14002437D01*
X12050000Y13264966D02*
X14000992D01*
X12050000Y13219966D02*
X13998777D01*
X12050000Y13255966D02*
X13997368D01*
X12050000Y13228966D02*
X13996117D01*
X12050000Y13246966D02*
X13995442D01*
X12050000Y12121966D02*
X13995397D01*
X12050000Y13237966D02*
X13995037D01*
X12050000Y12112966D02*
X13986397D01*
X12050000Y12103966D02*
X13977397D01*
X12981929Y12094966D02*
X13968397D01*
X13010201Y12085966D02*
X13959397D01*
X13020725Y12076966D02*
X13950397D01*
X13027359Y12067966D02*
X13941397D01*
X13031626Y12058966D02*
X13932397D01*
X13034089Y12049966D02*
X13923397D01*
X13034992Y12040966D02*
X13914397D01*
X13034410Y12031966D02*
X13905397D01*
X13032296Y12022966D02*
X13896397D01*
X13028449Y12013966D02*
X13887397D01*
X13026273Y12004966D02*
X13878397D01*
X13024341Y11995966D02*
X13869397D01*
X13022408Y11986966D02*
X13860397D01*
X13020475Y11977966D02*
X13851397D01*
X13020000Y11968966D02*
X13842397D01*
X13020000Y11959966D02*
X13833397D01*
X13020000Y11950966D02*
X13824397D01*
X13020000Y11941966D02*
X13815397D01*
X13020000Y11932966D02*
X13806397D01*
X13020000Y11923966D02*
X13797397D01*
X13020000Y11914966D02*
X13788397D01*
X13020000Y11905966D02*
X13779397D01*
X13020000Y11896966D02*
X13770397D01*
X13020000Y11887966D02*
X13761397D01*
X13020000Y11878966D02*
X13752397D01*
X13020000Y11869966D02*
X13743397D01*
X13020000Y11860966D02*
X13734397D01*
X13020000Y11851966D02*
X13725397D01*
X13020000Y11842966D02*
X13716397D01*
X13020000Y11833966D02*
X13707397D01*
X13020000Y11824966D02*
X13698397D01*
X13020000Y11815966D02*
X13689397D01*
X13020000Y11806966D02*
X13680397D01*
X13020000Y11797966D02*
X13671397D01*
X13020000Y11788966D02*
X13662397D01*
X13020000Y11779966D02*
X13653397D01*
X13020000Y11770966D02*
X13644397D01*
X13020000Y11761966D02*
X13635397D01*
X13020000Y11752966D02*
X13626397D01*
X13020000Y11743966D02*
X13617397D01*
X13020000Y11734966D02*
X13608397D01*
X13018967Y11725966D02*
X13599397D01*
X13015704Y11716966D02*
X13590397D01*
X13009482Y11707966D02*
X13581397D01*
X13000536Y11698966D02*
X13572397D01*
X12991536Y11689966D02*
X13563397D01*
X12050000Y12967966D02*
X13558659D01*
X12982536Y11680966D02*
X13554397D01*
X12050000Y12733966D02*
X13553509D01*
X12973536Y11671966D02*
X13545397D01*
X12050000Y12958966D02*
X13538751D01*
X12964536Y11662966D02*
X13536397D01*
X12050000Y12742966D02*
X13535432D01*
X12955536Y11653966D02*
X13527397D01*
X12050000Y12949966D02*
X13524954D01*
X12050000Y12751966D02*
X13522446D01*
X12946536Y11644966D02*
X13518397D01*
X12050000Y12940966D02*
X13514266D01*
X12050000Y12760966D02*
X13512260D01*
X12937536Y11635966D02*
X13509397D01*
X12050000Y12931966D02*
X13505625D01*
X12050000Y12769966D02*
X13503980D01*
X12928536Y11626966D02*
X13500397D01*
X12050000Y12922966D02*
X13498506D01*
X12050000Y12778966D02*
X13497143D01*
X12050000Y12913966D02*
X13492606D01*
X12050000Y12787966D02*
X13491478D01*
X13027191Y11617966D02*
X13491397D01*
X12050000Y12904966D02*
X13487733D01*
X12050000Y12796966D02*
X13486807D01*
X12050000Y12895966D02*
X13483758D01*
X12050000Y12805966D02*
X13483012D01*
X12050000Y12886966D02*
X13480590D01*
X12050000Y12814966D02*
X13480009D01*
X12050000Y12877966D02*
X13478168D01*
X12050000Y12823966D02*
X13477740D01*
X12050000Y12868966D02*
X13476446D01*
X12050000Y12832966D02*
X13476165D01*
X12050000Y12859966D02*
X13475397D01*
X12050000Y12841966D02*
X13475257D01*
X12050000Y12850966D02*
X13475003D01*
X12820536Y11518966D02*
X12979490D01*
X12050000Y12094966D02*
X12978070D01*
X12919536Y11617966D02*
X12973087D01*
X12829536Y11527966D02*
X12964528D01*
X12910536Y11608966D02*
X12961184D01*
X12838536Y11536966D02*
X12956024D01*
X12901536Y11599966D02*
X12953879D01*
X12847536Y11545966D02*
X12950528D01*
X12050000Y12085966D02*
X12949798D01*
X12892536Y11590966D02*
X12949152D01*
X12856536Y11554966D02*
X12947093D01*
X12883536Y11581966D02*
X12946317D01*
X12865536Y11563966D02*
X12945331D01*
X12874536Y11572966D02*
X12945079D01*
X12050000Y11968966D02*
X12939999D01*
X12050000Y11959966D02*
X12939999D01*
X12050000Y11950966D02*
X12939999D01*
X12050000Y11941966D02*
X12939999D01*
X12050000Y11932966D02*
X12939999D01*
X12050000Y11923966D02*
X12939999D01*
X12050000Y11914966D02*
X12939999D01*
X12050000Y11905966D02*
X12939999D01*
X12050000Y11896966D02*
X12939999D01*
X12050000Y11887966D02*
X12939999D01*
X12050000Y11878966D02*
X12939999D01*
X12050000Y11869966D02*
X12939999D01*
X12050000Y11860966D02*
X12939999D01*
X12050000Y11851966D02*
X12939999D01*
X12050000Y11842966D02*
X12939999D01*
X12050000Y11833966D02*
X12939999D01*
X12050000Y11824966D02*
X12939999D01*
X12050000Y11815966D02*
X12939999D01*
X12050000Y11806966D02*
X12939999D01*
X12311340Y11797966D02*
X12939999D01*
X12331248Y11788966D02*
X12939999D01*
X12345045Y11779966D02*
X12939999D01*
X12355733Y11770966D02*
X12939999D01*
X12364374Y11761966D02*
X12939999D01*
X12371493Y11752966D02*
X12939953D01*
X12050000Y11977966D02*
X12939524D01*
X12050000Y12076966D02*
X12939275D01*
X12050000Y11986966D02*
X12937591D01*
X12050000Y11995966D02*
X12935658D01*
X12050000Y12004966D02*
X12933726D01*
X12050000Y12067966D02*
X12932640D01*
X12377393Y11743966D02*
X12932397D01*
X12050000Y12013966D02*
X12931550D01*
X12050000Y12058966D02*
X12928373D01*
X12050000Y12022966D02*
X12927703D01*
X12050000Y12049966D02*
X12925910D01*
X12050000Y12031966D02*
X12925589D01*
X12050000Y12040966D02*
X12925007D01*
X12382266Y11734966D02*
X12923397D01*
X12386242Y11725966D02*
X12914397D01*
X12389409Y11716966D02*
X12905397D01*
X12391831Y11707966D02*
X12896397D01*
X12393553Y11698966D02*
X12887397D01*
X12394602Y11689966D02*
X12878397D01*
X12394996Y11680966D02*
X12869397D01*
X12394742Y11671966D02*
X12860397D01*
X12050000Y12382966D02*
X12856087D01*
X12050000Y12616966D02*
X12855909D01*
X12393834Y11662966D02*
X12851397D01*
X12392259Y11653966D02*
X12842397D01*
X12050000Y12391966D02*
X12837119D01*
X12050000Y12607966D02*
X12837005D01*
X12389990Y11644966D02*
X12833397D01*
X12386988Y11635966D02*
X12824397D01*
X12050000Y12400966D02*
X12823727D01*
X12050000Y12598966D02*
X12823640D01*
X12383192Y11626966D02*
X12815397D01*
X12050000Y12409966D02*
X12813287D01*
X12050000Y12589966D02*
X12813217D01*
X12378521Y11617966D02*
X12806397D01*
X12050000Y12418966D02*
X12804822D01*
X12050000Y12580966D02*
X12804765D01*
X12050000Y12427966D02*
X12797841D01*
X12050000Y12571966D02*
X12797794D01*
X12372856Y11608966D02*
X12797397D01*
X12050000Y12436966D02*
X12792055D01*
X12050000Y12562966D02*
X12792017D01*
X12366019Y11599966D02*
X12788397D01*
X12050000Y12445966D02*
X12787281D01*
X12050000Y12553966D02*
X12787249D01*
X12050000Y12454966D02*
X12783393D01*
X12050000Y12544966D02*
X12783367D01*
X12050000Y12463966D02*
X12780305D01*
X12050000Y12535966D02*
X12780285D01*
X12357739Y11590966D02*
X12779397D01*
X12050000Y12472966D02*
X12777957D01*
X12050000Y12526966D02*
X12777942D01*
X12050000Y12481966D02*
X12776307D01*
X12050000Y12517966D02*
X12776297D01*
X12050000Y12490966D02*
X12775326D01*
X12050000Y12508966D02*
X12775321D01*
X12050000Y12499966D02*
X12774999D01*
X12347553Y11581966D02*
X12770397D01*
X12334567Y11572966D02*
X12761397D01*
X12316490Y11563966D02*
X12752397D01*
X12156602Y11554966D02*
X12743397D01*
X12165685Y11545966D02*
X12734314D01*
X12050000Y11797966D02*
X12228659D01*
X12147602Y11563966D02*
X12223509D01*
X12050000Y11788966D02*
X12208751D01*
X12138602Y11572966D02*
X12205432D01*
X12050000Y11779966D02*
X12194954D01*
X12129602Y11581966D02*
X12192446D01*
X12050000Y11770966D02*
X12184266D01*
X12120602Y11590966D02*
X12182260D01*
X12050000Y11761966D02*
X12175625D01*
X12111602Y11599966D02*
X12173980D01*
X12050000Y11752966D02*
X12168506D01*
X12102602Y11608966D02*
X12167143D01*
X12050000Y11743966D02*
X12162606D01*
X12093602Y11617966D02*
X12161478D01*
X12050000Y11734966D02*
X12157733D01*
X12084602Y11626966D02*
X12156807D01*
X12050000Y11725966D02*
X12153758D01*
X12075602Y11635966D02*
X12153012D01*
X12050000Y11716966D02*
X12150590D01*
X12066602Y11644966D02*
X12150009D01*
X12050000Y11707966D02*
X12148168D01*
X12057602Y11653966D02*
X12147740D01*
X12050000Y11698966D02*
X12146446D01*
X12050046Y11662966D02*
X12146165D01*
X12050000Y11689966D02*
X12145397D01*
X12050000Y11671966D02*
X12145257D01*
X12050000Y11680966D02*
X12145003D01*
X10205000Y11473966D02*
X12124761D01*
X10205000Y11482966D02*
X12115464D01*
X10205000Y11491966D02*
X12106464D01*
X10205000Y11500966D02*
X12097464D01*
X10205000Y11509966D02*
X12088464D01*
X10205000Y11518966D02*
X12079464D01*
X10205000Y11527966D02*
X12070464D01*
X10205000Y11536966D02*
X12061464D01*
X10205000Y11545966D02*
X12052464D01*
X10205000Y11554966D02*
X12043464D01*
X10205000Y11563966D02*
X12034464D01*
X10205000Y11572966D02*
X12025464D01*
X10205000Y11581966D02*
X12016464D01*
X10205000Y11590966D02*
X12007464D01*
X10205000Y11599966D02*
X11998464D01*
X10205000Y11608966D02*
X11989464D01*
X10205000Y11617966D02*
X11980517D01*
X10205000Y11626966D02*
X11974295D01*
X10205000Y11635966D02*
X11971032D01*
X10205000Y13264966D02*
X11969999D01*
X10205000Y13255966D02*
X11969999D01*
X10205000Y13246966D02*
X11969999D01*
X10205000Y13237966D02*
X11969999D01*
X10205000Y13228966D02*
X11969999D01*
X10205000Y13219966D02*
X11969999D01*
X10205000Y13210966D02*
X11969999D01*
X10205000Y13201966D02*
X11969999D01*
X10205000Y13192966D02*
X11969999D01*
X10205000Y13183966D02*
X11969999D01*
X10205000Y13174966D02*
X11969999D01*
X10205000Y13165966D02*
X11969999D01*
X10205000Y13156966D02*
X11969999D01*
X10205000Y13147966D02*
X11969999D01*
X10205000Y13138966D02*
X11969999D01*
X10205000Y13129966D02*
X11969999D01*
X10205000Y13120966D02*
X11969999D01*
X10205000Y13111966D02*
X11969999D01*
X10205000Y13102966D02*
X11969999D01*
X10205000Y13093966D02*
X11969999D01*
X10205000Y13084966D02*
X11969999D01*
X10205000Y13075966D02*
X11969999D01*
X10205000Y13066966D02*
X11969999D01*
X10205000Y13057966D02*
X11969999D01*
X10205000Y13048966D02*
X11969999D01*
X10205000Y13039966D02*
X11969999D01*
X10205000Y13030966D02*
X11969999D01*
X10205000Y13021966D02*
X11969999D01*
X10205000Y13012966D02*
X11969999D01*
X10205000Y13003966D02*
X11969999D01*
X10205000Y12994966D02*
X11969999D01*
X10205000Y12985966D02*
X11969999D01*
X10205000Y12976966D02*
X11969999D01*
X10205000Y12967966D02*
X11969999D01*
X10205000Y12958966D02*
X11969999D01*
X10205000Y12949966D02*
X11969999D01*
X10205000Y12940966D02*
X11969999D01*
X10205000Y12931966D02*
X11969999D01*
X10205000Y12922966D02*
X11969999D01*
X10205000Y12913966D02*
X11969999D01*
X10205000Y12904966D02*
X11969999D01*
X10205000Y12895966D02*
X11969999D01*
X10205000Y12886966D02*
X11969999D01*
X10205000Y12877966D02*
X11969999D01*
X10205000Y12868966D02*
X11969999D01*
X10205000Y12859966D02*
X11969999D01*
X10205000Y12850966D02*
X11969999D01*
X10205000Y12841966D02*
X11969999D01*
X10205000Y12832966D02*
X11969999D01*
X10205000Y12823966D02*
X11969999D01*
X10205000Y12814966D02*
X11969999D01*
X10205000Y12805966D02*
X11969999D01*
X10205000Y12796966D02*
X11969999D01*
X10205000Y12787966D02*
X11969999D01*
X10205000Y12778966D02*
X11969999D01*
X10205000Y12769966D02*
X11969999D01*
X10205000Y12760966D02*
X11969999D01*
X10205000Y12751966D02*
X11969999D01*
X10205000Y12742966D02*
X11969999D01*
X10205000Y12733966D02*
X11969999D01*
X10205000Y12724966D02*
X11969999D01*
X10205000Y12715966D02*
X11969999D01*
X10205000Y12706966D02*
X11969999D01*
X10205000Y12697966D02*
X11969999D01*
X10205000Y12688966D02*
X11969999D01*
X10205000Y12679966D02*
X11969999D01*
X10205000Y12670966D02*
X11969999D01*
X10205000Y12661966D02*
X11969999D01*
X10205000Y12652966D02*
X11969999D01*
X10205000Y12643966D02*
X11969999D01*
X10205000Y12634966D02*
X11969999D01*
X10205000Y12625966D02*
X11969999D01*
X10205000Y12616966D02*
X11969999D01*
X10205000Y12607966D02*
X11969999D01*
X10205000Y12598966D02*
X11969999D01*
X10205000Y12589966D02*
X11969999D01*
X10205000Y12580966D02*
X11969999D01*
X10205000Y12571966D02*
X11969999D01*
X10205000Y12562966D02*
X11969999D01*
X10205000Y12553966D02*
X11969999D01*
X10205000Y12544966D02*
X11969999D01*
X10205000Y12535966D02*
X11969999D01*
X10205000Y12526966D02*
X11969999D01*
X10205000Y12517966D02*
X11969999D01*
X10205000Y12508966D02*
X11969999D01*
X10205000Y12499966D02*
X11969999D01*
X10205000Y12490966D02*
X11969999D01*
X10205000Y12481966D02*
X11969999D01*
X10205000Y12472966D02*
X11969999D01*
X10205000Y12463966D02*
X11969999D01*
X10205000Y12454966D02*
X11969999D01*
X10205000Y12445966D02*
X11969999D01*
X10205000Y12436966D02*
X11969999D01*
X10205000Y12427966D02*
X11969999D01*
X10205000Y12418966D02*
X11969999D01*
X10205000Y12409966D02*
X11969999D01*
X10205000Y12400966D02*
X11969999D01*
X10205000Y12391966D02*
X11969999D01*
X10205000Y12382966D02*
X11969999D01*
X10205000Y12373966D02*
X11969999D01*
X10205000Y12364966D02*
X11969999D01*
X10205000Y12355966D02*
X11969999D01*
X10205000Y12346966D02*
X11969999D01*
X10205000Y12337966D02*
X11969999D01*
X10205000Y12328966D02*
X11969999D01*
X10205000Y12319966D02*
X11969999D01*
X10205000Y12310966D02*
X11969999D01*
X10205000Y12301966D02*
X11969999D01*
X10205000Y12292966D02*
X11969999D01*
X10205000Y12283966D02*
X11969999D01*
X10205000Y12274966D02*
X11969999D01*
X10205000Y12265966D02*
X11969999D01*
X10205000Y12256966D02*
X11969999D01*
X10205000Y12247966D02*
X11969999D01*
X10205000Y12238966D02*
X11969999D01*
X10205000Y12229966D02*
X11969999D01*
X10205000Y12220966D02*
X11969999D01*
X10205000Y12211966D02*
X11969999D01*
X10205000Y12202966D02*
X11969999D01*
X10205000Y12193966D02*
X11969999D01*
X10205000Y12184966D02*
X11969999D01*
X10205000Y12175966D02*
X11969999D01*
X10205000Y12166966D02*
X11969999D01*
X10205000Y12157966D02*
X11969999D01*
X10205000Y12148966D02*
X11969999D01*
X10205000Y12139966D02*
X11969999D01*
X10205000Y12130966D02*
X11969999D01*
X10205000Y12121966D02*
X11969999D01*
X10205000Y12112966D02*
X11969999D01*
X10205000Y12103966D02*
X11969999D01*
X10592581Y12094966D02*
X11969999D01*
X10628939Y12085966D02*
X11969999D01*
X10648129Y12076966D02*
X11969999D01*
X10662317Y12067966D02*
X11969999D01*
X10673684Y12058966D02*
X11969999D01*
X10683125Y12049966D02*
X11969999D01*
X10691109Y12040966D02*
X11969999D01*
X10697922Y12031966D02*
X11969999D01*
X10703748Y12022966D02*
X11969999D01*
X10708718Y12013966D02*
X11969999D01*
X10712924Y12004966D02*
X11969999D01*
X10716433Y11995966D02*
X11969999D01*
X10719297Y11986966D02*
X11969999D01*
X10721554Y11977966D02*
X11969999D01*
X10723231Y11968966D02*
X11969999D01*
X10724348Y11959966D02*
X11969999D01*
X10724918Y11950966D02*
X11969999D01*
X10724946Y11941966D02*
X11969999D01*
X10724433Y11932966D02*
X11969999D01*
X11716043Y11923966D02*
X11969999D01*
X11749069Y11914966D02*
X11969999D01*
X11766303Y11905966D02*
X11969999D01*
X11778883Y11896966D02*
X11969999D01*
X11788808Y11887966D02*
X11969999D01*
X11796898Y11878966D02*
X11969999D01*
X11803584Y11869966D02*
X11969999D01*
X11809124Y11860966D02*
X11969999D01*
X11813686Y11851966D02*
X11969999D01*
X11817384Y11842966D02*
X11969999D01*
X11820297Y11833966D02*
X11969999D01*
X11822481Y11824966D02*
X11969999D01*
X11823976Y11815966D02*
X11969999D01*
X11824806Y11806966D02*
X11969999D01*
X11824984Y11797966D02*
X11969999D01*
X11824512Y11788966D02*
X11969999D01*
X11823384Y11779966D02*
X11969999D01*
X11821582Y11770966D02*
X11969999D01*
X11819073Y11761966D02*
X11969999D01*
X11815814Y11752966D02*
X11969999D01*
X11811738Y11743966D02*
X11969999D01*
X11806751Y11734966D02*
X11969999D01*
X11800718Y11725966D02*
X11969999D01*
X11793437Y11716966D02*
X11969999D01*
X11784587Y11707966D02*
X11969999D01*
X11773603Y11698966D02*
X11969999D01*
X11759311Y11689966D02*
X11969999D01*
X11738160Y11680966D02*
X11969999D01*
X10205000Y11671966D02*
X11969999D01*
X10205000Y11662966D02*
X11969999D01*
X10205000Y11653966D02*
X11969999D01*
X10205000Y11644966D02*
X11969999D01*
X10205000Y13273966D02*
X11969266D01*
X10205000Y13282966D02*
X11960464D01*
X10205000Y13291966D02*
X11951464D01*
X10205000Y13300966D02*
X11942464D01*
X10205000Y13309966D02*
X11933464D01*
X10205000Y13318966D02*
X11924464D01*
X10205000Y13327966D02*
X11915464D01*
X10205000Y13336966D02*
X11906464D01*
X10205000Y13345966D02*
X11897464D01*
X10205000Y13354966D02*
X11888464D01*
X10205000Y13363966D02*
X11879464D01*
X10205000Y13372966D02*
X11870464D01*
X10205000Y13381966D02*
X11861464D01*
X10205000Y13390966D02*
X11852464D01*
X10205000Y13399966D02*
X11843464D01*
X10205000Y13408966D02*
X11834464D01*
X10205000Y13417966D02*
X11825464D01*
X10205000Y13426966D02*
X11816464D01*
X10205000Y13435966D02*
X11807464D01*
X10205000Y13444966D02*
X11798464D01*
X10205000Y13453966D02*
X11789464D01*
X10205000Y13462966D02*
X11780464D01*
X10205000Y13471966D02*
X11771464D01*
X10205000Y13480966D02*
X11762464D01*
X10205000Y13489966D02*
X11753464D01*
X10205000Y13498966D02*
X11744464D01*
X10205000Y13507966D02*
X11735464D01*
X10205000Y13516966D02*
X11726464D01*
X10205000Y13525966D02*
X11717464D01*
X10205000Y13534966D02*
X11708464D01*
X10205000Y13543966D02*
X11699464D01*
X10205000Y13552966D02*
X11690464D01*
X10723373Y11923966D02*
X11683956D01*
X10205000Y13561966D02*
X11681464D01*
X10205000Y13570966D02*
X11672464D01*
X10205000Y13579966D02*
X11663464D01*
X10205000Y11680966D02*
X11661839D01*
X10205000Y13588966D02*
X11654464D01*
X10721755Y11914966D02*
X11650930D01*
X10205000Y13597966D02*
X11645464D01*
X10205000Y11689966D02*
X11640688D01*
X10205000Y13606966D02*
X11636464D01*
X10719559Y11905966D02*
X11633696D01*
X11569602Y13786966D02*
X11628820D01*
X10205000Y13615966D02*
X11627464D01*
X10205000Y11698966D02*
X11626397D01*
X11426240Y14011966D02*
X11623759D01*
X10716760Y11896966D02*
X11621116D01*
X10205000Y13624966D02*
X11618464D01*
X10205000Y11707966D02*
X11615412D01*
X10713319Y11887966D02*
X11611191D01*
X10205000Y13633966D02*
X11609464D01*
X10205000Y11716966D02*
X11606562D01*
X10709189Y11878966D02*
X11603101D01*
X11560985Y13795966D02*
X11600987D01*
X10205000Y13642966D02*
X11600464D01*
X10205000Y11725966D02*
X11599281D01*
X11451215Y14002966D02*
X11598784D01*
X10704302Y11869966D02*
X11596415D01*
X10205000Y11734966D02*
X11593248D01*
X10205000Y13651966D02*
X11591464D01*
X10698569Y11860966D02*
X11590875D01*
X10205000Y11743966D02*
X11588261D01*
X10691867Y11851966D02*
X11586313D01*
X11557277Y13804966D02*
X11585240D01*
X10205000Y11752966D02*
X11584185D01*
X11466297Y13993966D02*
X11583702D01*
X10684015Y11842966D02*
X11582616D01*
X10205000Y13660966D02*
X11582464D01*
X10205000Y11761966D02*
X11580926D01*
X10674743Y11833966D02*
X11579702D01*
X10205000Y11770966D02*
X11578417D01*
X10663606Y11824966D02*
X11577518D01*
X10205000Y11779966D02*
X11576615D01*
X10649776Y11815966D02*
X11576023D01*
X10205000Y11788966D02*
X11575487D01*
X10631301Y11806966D02*
X11575193D01*
X10599213Y11797966D02*
X11575016D01*
X11553581Y13813966D02*
X11573688D01*
X10205000Y13669966D02*
X11573464D01*
X11477497Y13984966D02*
X11572503D01*
X11549884Y13822966D02*
X11564612D01*
X10205000Y13678966D02*
X11564464D01*
X11486337Y13975966D02*
X11563662D01*
X11547466Y13831966D02*
X11557282D01*
X11493491Y13966966D02*
X11556508D01*
X10205000Y13687966D02*
X11555464D01*
X11499322Y13957966D02*
X11550677D01*
X10205000Y13696966D02*
X11546464D01*
X11504054Y13948966D02*
X11545945D01*
X11507832Y13939966D02*
X11542167D01*
X11510752Y13930966D02*
X11539247D01*
X10205000Y13705966D02*
X11537464D01*
X11512883Y13921966D02*
X11537116D01*
X11524007Y13885966D02*
X11535858D01*
X11514267Y13912966D02*
X11535732D01*
X11520310Y13894966D02*
X11535109D01*
X11516614Y13903966D02*
X11535067D01*
X11528292Y13876966D02*
X11534811D01*
X10205000Y13714966D02*
X11528464D01*
X10205000Y13723966D02*
X11519464D01*
X10205000Y13732966D02*
X11510464D01*
X10205000Y13741966D02*
X11496873D01*
X10205000Y13750966D02*
X11474961D01*
X10205000Y13759966D02*
X11453050D01*
X10205000Y13768966D02*
X11431138D01*
X10205000Y13777966D02*
X11409227D01*
X10205000Y13786966D02*
X11378820D01*
X10205000Y14011966D02*
X11373759D01*
X10205000Y13795966D02*
X11350987D01*
X10205000Y14002966D02*
X11348784D01*
X10205000Y13804966D02*
X11335240D01*
X10205000Y13993966D02*
X11333702D01*
X10205000Y13813966D02*
X11323688D01*
X10205000Y13984966D02*
X11322503D01*
X10205000Y13822966D02*
X11314612D01*
X10205000Y13975966D02*
X11313662D01*
X10205000Y13831966D02*
X11307282D01*
X10205000Y13966966D02*
X11306508D01*
X10205000Y13840966D02*
X11301307D01*
X10205000Y13957966D02*
X11300677D01*
X10205000Y13849966D02*
X11296453D01*
X10205000Y13948966D02*
X11295945D01*
X10205000Y13858966D02*
X11292569D01*
X10205000Y13939966D02*
X11292167D01*
X10205000Y13867966D02*
X11289551D01*
X10205000Y13930966D02*
X11289247D01*
X10205000Y13876966D02*
X11287329D01*
X10205000Y13921966D02*
X11287116D01*
X10205000Y13885966D02*
X11285858D01*
X10205000Y13912966D02*
X11285732D01*
X10205000Y13894966D02*
X11285109D01*
X10205000Y13903966D02*
X11285067D01*
X10205000Y12094966D02*
X10507419D01*
X10205000Y11797966D02*
X10500786D01*
X10205000Y12085966D02*
X10471060D01*
X10205000Y11806966D02*
X10468698D01*
X10205000Y12076966D02*
X10451870D01*
X10205000Y14092966D02*
X10450762D01*
X10205000Y11815966D02*
X10450223D01*
X10205000Y10906966D02*
X10450214D01*
X10205000Y12067966D02*
X10437682D01*
X10205000Y11824966D02*
X10436393D01*
X10205000Y12058966D02*
X10426315D01*
X10205000Y11833966D02*
X10425256D01*
X10205000Y12049966D02*
X10416874D01*
X10205000Y11842966D02*
X10415984D01*
X10205000Y12040966D02*
X10408890D01*
X10205000Y11851966D02*
X10408133D01*
X10205000Y12031966D02*
X10402077D01*
X10205000Y14101966D02*
X10401664D01*
X10205000Y11860966D02*
X10401430D01*
X10205000Y10897966D02*
X10401394D01*
X10205000Y12022966D02*
X10396251D01*
X10205000Y11869966D02*
X10395697D01*
X10205000Y12013966D02*
X10391281D01*
X10205000Y11878966D02*
X10390811D01*
X10205000Y12004966D02*
X10387075D01*
X10205000Y11887966D02*
X10386680D01*
X10205000Y11995966D02*
X10383566D01*
X10205000Y11896966D02*
X10383240D01*
X10205000Y11986966D02*
X10380702D01*
X10205000Y11905966D02*
X10380440D01*
X10205000Y11977966D02*
X10378445D01*
X10205000Y11914966D02*
X10378244D01*
X10205000Y11968966D02*
X10376768D01*
X10205000Y11923966D02*
X10376626D01*
X10205000Y11959966D02*
X10375651D01*
X10205000Y11932966D02*
X10375566D01*
X10205000Y11950966D02*
X10375081D01*
X10205000Y11941966D02*
X10375053D01*
X10205000Y14110966D02*
X10370564D01*
X10205000Y10888966D02*
X10370364D01*
X10205000Y14119966D02*
X10346132D01*
X10205000Y10879966D02*
X10345968D01*
X10205000Y14128966D02*
X10325544D01*
X10205000Y10870966D02*
X10325402D01*
X10205000Y14137966D02*
X10307562D01*
X10205000Y10861966D02*
X10307436D01*
X10205000Y14146966D02*
X10291510D01*
X10205000Y10852966D02*
X10291397D01*
X10205000Y14155966D02*
X10276972D01*
X10205000Y10843966D02*
X10276869D01*
X10205000Y14164966D02*
X10263667D01*
X10205000Y10834966D02*
X10263572D01*
X10205000Y14173966D02*
X10251398D01*
X10205000Y10825966D02*
X10251311D01*
X10205000Y14182966D02*
X10240018D01*
X10205000Y10816966D02*
X10239937D01*
X10205000Y14191966D02*
X10229415D01*
X10205000Y10807966D02*
X10229339D01*
X10205000Y14200966D02*
X10219501D01*
X10205000Y10798966D02*
X10219430D01*
G54D22*
X11700000Y11800000D03*
Y12600000D03*
X13600000Y12850000D03*
Y13900000D03*
X12900000Y12500000D03*
X12270000Y11680000D03*
G54D23*
X11527279Y13772720D02*
X11475000Y13900000D01*
X11474246Y13825753*
X11474246D02*
X11400000Y13825000D01*
X11527279Y13772720*
X11509557Y13780000D02*
X11524289D01*
X11436519Y13810000D02*
X11511967D01*
X11474390Y13840000D02*
X11499644D01*
X11474695Y13870000D02*
X11487322D01*
X11475000Y13900000D02*
X11475000D01*
X11410000Y13820892D02*
Y13825101D01*
X11440000Y13808570D02*
Y13825406D01*
X11470000Y13796247D02*
Y13825710D01*
X11500000Y13783925D02*
Y13839135D01*
X12980000Y11980000D02*
X12990606Y12029393D01*
X12990606D02*
X12980000Y11995000D01*
X12969393Y12029393*
X12969393D02*
X12980000Y11980000D01*
X12980000*
X12973557Y12010000D02*
X12975374D01*
X12984625D02*
X12986442D01*
X12970000Y12026568D02*
Y12027426D01*
X13060000Y11570000D02*
X13010606Y11580606D01*
X13010606D02*
X13045000Y11570000D01*
X13010606Y11559393*
X13010606D02*
X13060000Y11570000D01*
X13012573Y11560000D02*
X13013431D01*
X13030000Y11563557D02*
Y11565374D01*
Y11574625D02*
Y11576442D01*
X13060000Y11570000D02*
X13060000D01*
X14050000Y13180000D02*
X14060606Y13229393D01*
X14060606D02*
X14050000Y13195000D01*
X14039393Y13229393*
X14039393D02*
X14050000Y13180000D01*
X14050000*
X14043557Y13210000D02*
X14045374D01*
X14054625D02*
X14056442D01*
X14050000Y13180000D02*
Y13195000D01*
X12555000Y11750000D02*
X12510606Y11760606D01*
X12510606D02*
X12545000Y11750000D01*
X12510606Y11739393*
X12510606D02*
X12555000Y11750000D01*
X12512573Y11740000D02*
X12513145D01*
X12520000Y11741637D02*
Y11742290D01*
Y11757709D02*
Y11758362D01*
X12550000Y11748805D02*
Y11751194D01*
X12545000Y11750000D02*
X12589393Y11739393D01*
X12589393D02*
X12555000Y11750000D01*
X12589393Y11760606*
X12589393D02*
X12545000Y11750000D01*
X12586854Y11740000D02*
X12587426D01*
X12550000Y11748805D02*
Y11751194D01*
X12580000Y11741637D02*
Y11742290D01*
Y11757709D02*
Y11758362D01*
X12500000Y11805000D02*
X12489393Y11760606D01*
X12489393D02*
X12500000Y11795000D01*
X12510606Y11760606*
X12510606D02*
X12500000Y11805000D01*
X12491637Y11770000D02*
X12492290D01*
X12507709D02*
X12508362D01*
X12498805Y11800000D02*
X12501194D01*
X12490000Y11762573D02*
Y11763145D01*
X12500000Y11795000D02*
X12510606Y11839393D01*
X12510606D02*
X12500000Y11805000D01*
X12489393Y11839393*
X12489393D02*
X12500000Y11795000D01*
X12498805Y11800000D02*
X12501194D01*
X12491637Y11830000D02*
X12492290D01*
X12507709D02*
X12508362D01*
X12490000Y11836854D02*
Y11837426D01*
X12700000Y11805000D02*
X12689393Y11760606D01*
X12689393D02*
X12700000Y11795000D01*
X12710606Y11760606*
X12710606D02*
X12700000Y11805000D01*
X12691637Y11770000D02*
X12692290D01*
X12707709D02*
X12708362D01*
X12698805Y11800000D02*
X12701194D01*
X12700000Y11795000D02*
Y11805000D01*
Y11795000D02*
X12710606Y11839393D01*
X12710606D02*
X12700000Y11805000D01*
X12689393Y11839393*
X12689393D02*
X12700000Y11795000D01*
X12698805Y11800000D02*
X12701194D01*
X12691637Y11830000D02*
X12692290D01*
X12707709D02*
X12708362D01*
X12700000Y11795000D02*
Y11805000D01*
X12555000Y11850000D02*
X12510606Y11860606D01*
X12510606D02*
X12545000Y11850000D01*
X12510606Y11839393*
X12510606D02*
X12555000Y11850000D01*
X12512573Y11860000D02*
X12513145D01*
X12520000Y11841637D02*
Y11842290D01*
Y11857709D02*
Y11858362D01*
X12550000Y11848805D02*
Y11851194D01*
X12545000Y11850000D02*
X12589393Y11839393D01*
X12589393D02*
X12555000Y11850000D01*
X12589393Y11860606*
X12589393D02*
X12545000Y11850000D01*
X12586854Y11860000D02*
X12587426D01*
X12550000Y11848805D02*
Y11851194D01*
X12580000Y11841637D02*
Y11842290D01*
Y11857709D02*
Y11858362D01*
X12655000Y11750000D02*
X12610606Y11760606D01*
X12610606D02*
X12645000Y11750000D01*
X12610606Y11739393*
X12610606D02*
X12655000Y11750000D01*
X12612573Y11740000D02*
X12613145D01*
X12640000Y11746416D02*
Y11748458D01*
Y11751541D02*
Y11753583D01*
X12645000Y11750000D02*
X12689393Y11739393D01*
X12689393D02*
X12655000Y11750000D01*
X12689393Y11760606*
X12689393D02*
X12645000Y11750000D01*
X12686854Y11740000D02*
X12687426D01*
X12670000Y11744026D02*
Y11745374D01*
Y11754625D02*
Y11755973D01*
X12700000Y11905000D02*
X12689393Y11860606D01*
X12689393D02*
X12700000Y11895000D01*
X12710606Y11860606*
X12710606D02*
X12700000Y11905000D01*
X12696416Y11890000D02*
X12698458D01*
X12701541D02*
X12703583D01*
X12700000Y11895000D02*
Y11905000D01*
Y11895000D02*
X12710606Y11939393D01*
X12710606D02*
X12700000Y11905000D01*
X12689393Y11939393*
X12689393D02*
X12700000Y11895000D01*
X12694026Y11920000D02*
X12695374D01*
X12704625D02*
X12705973D01*
X12700000Y11895000D02*
Y11905000D01*
X12655000Y11950000D02*
X12610606Y11960606D01*
X12610606D02*
X12645000Y11950000D01*
X12610606Y11939393*
X12610606D02*
X12655000Y11950000D01*
X12645000D02*
X12655000D01*
X12640000Y11946416D02*
Y11948458D01*
Y11951541D02*
Y11953583D01*
X12645000Y11950000D02*
X12689393Y11939393D01*
X12689393D02*
X12655000Y11950000D01*
X12689393Y11960606*
X12689393D02*
X12645000Y11950000D01*
X12655000*
X12670000Y11944026D02*
Y11945374D01*
Y11954625D02*
Y11955973D01*
X12600000Y12005000D02*
X12589393Y11960606D01*
X12589393D02*
X12600000Y11995000D01*
X12610606Y11960606*
X12610606D02*
X12600000Y12005000D01*
X12594027Y11980000D02*
X12595374D01*
X12604625D02*
X12605973D01*
X12610000Y11962573D02*
Y11963145D01*
X12600000Y11995000D02*
X12610606Y12039393D01*
X12610606D02*
X12600000Y12005000D01*
X12589393Y12039393*
X12589393D02*
X12600000Y11995000D01*
X12596416Y12010000D02*
X12598458D01*
X12601542D02*
X12603583D01*
X12610000Y12036854D02*
Y12037426D01*
X12500000Y12105000D02*
X12489393Y12060606D01*
X12489393D02*
X12500000Y12095000D01*
X12510606Y12060606*
X12510606D02*
X12500000Y12105000D01*
X12491637Y12070000D02*
X12492290D01*
X12507709D02*
X12508362D01*
X12498805Y12100000D02*
X12501194D01*
X12490000Y12062573D02*
Y12063145D01*
X12500000Y12095000D02*
X12510606Y12139393D01*
X12510606D02*
X12500000Y12105000D01*
X12489393Y12139393*
X12489393D02*
X12500000Y12095000D01*
X12498805Y12100000D02*
X12501194D01*
X12491637Y12130000D02*
X12492290D01*
X12507709D02*
X12508362D01*
X12490000Y12136854D02*
Y12137426D01*
X12600000Y12105000D02*
X12589393Y12060606D01*
X12589393D02*
X12600000Y12095000D01*
X12610606Y12060606*
X12610606D02*
X12600000Y12105000D01*
X12591637Y12070000D02*
X12592290D01*
X12607709D02*
X12608362D01*
X12598805Y12100000D02*
X12601194D01*
X12610000Y12062573D02*
Y12063145D01*
X12600000Y12095000D02*
X12610606Y12139393D01*
X12610606D02*
X12600000Y12105000D01*
X12589393Y12139393*
X12589393D02*
X12600000Y12095000D01*
X12598805Y12100000D02*
X12601194D01*
X12591637Y12130000D02*
X12592290D01*
X12607709D02*
X12608362D01*
X12610000Y12136854D02*
Y12137426D01*
X12500000Y12005000D02*
X12489393Y11960606D01*
X12489393D02*
X12500000Y11995000D01*
X12510606Y11960606*
X12510606D02*
X12500000Y12005000D01*
X12494027Y11980000D02*
X12495374D01*
X12504625D02*
X12505973D01*
X12490000Y11962573D02*
Y11963145D01*
X12500000Y11995000D02*
X12510606Y12039393D01*
X12510606D02*
X12500000Y12005000D01*
X12489393Y12039393*
X12489393D02*
X12500000Y11995000D01*
X12496416Y12010000D02*
X12498458D01*
X12501542D02*
X12503583D01*
X12490000Y12036854D02*
Y12037426D01*
X12555000Y11950000D02*
X12510606Y11960606D01*
X12510606D02*
X12545000Y11950000D01*
X12510606Y11939393*
X12510606D02*
X12555000Y11950000D01*
X12545000D02*
X12555000D01*
X12520000Y11941637D02*
Y11942290D01*
Y11957709D02*
Y11958362D01*
X12550000Y11948805D02*
Y11951194D01*
X12545000Y11950000D02*
X12589393Y11939393D01*
X12589393D02*
X12555000Y11950000D01*
X12589393Y11960606*
X12589393D02*
X12545000Y11950000D01*
X12555000*
X12550000Y11948805D02*
Y11951194D01*
X12580000Y11941637D02*
Y11942290D01*
Y11957709D02*
Y11958362D01*
X12500000Y12205000D02*
X12489393Y12160606D01*
X12489393D02*
X12500000Y12195000D01*
X12510606Y12160606*
X12510606D02*
X12500000Y12205000D01*
X12496416Y12190000D02*
X12498458D01*
X12501541D02*
X12503583D01*
X12490000Y12162573D02*
Y12163145D01*
X12500000Y12195000D02*
X12510606Y12239393D01*
X12510606D02*
X12500000Y12205000D01*
X12489393Y12239393*
X12489393D02*
X12500000Y12195000D01*
X12494026Y12220000D02*
X12495374D01*
X12504625D02*
X12505973D01*
X12490000Y12236854D02*
Y12237426D01*
X12655000Y12350000D02*
X12610606Y12360606D01*
X12610606D02*
X12645000Y12350000D01*
X12610606Y12339393*
X12610606D02*
X12655000Y12350000D01*
X12612573Y12340000D02*
X12613145D01*
X12640000Y12346416D02*
Y12348458D01*
Y12351541D02*
Y12353583D01*
X12645000Y12350000D02*
X12689393Y12339393D01*
X12689393D02*
X12655000Y12350000D01*
X12689393Y12360606*
X12689393D02*
X12645000Y12350000D01*
X12686854Y12340000D02*
X12687426D01*
X12670000Y12344026D02*
Y12345374D01*
Y12354625D02*
Y12355973D01*
X12700000Y12405000D02*
X12689393Y12360606D01*
X12689393D02*
X12700000Y12395000D01*
X12710606Y12360606*
X12710606D02*
X12700000Y12405000D01*
X12691637Y12370000D02*
X12692290D01*
X12707709D02*
X12708362D01*
X12698805Y12400000D02*
X12701194D01*
X12700000Y12395000D02*
Y12405000D01*
Y12395000D02*
X12710606Y12439393D01*
X12710606D02*
X12700000Y12405000D01*
X12689393Y12439393*
X12689393D02*
X12700000Y12395000D01*
X12698805Y12400000D02*
X12701194D01*
X12691637Y12430000D02*
X12692290D01*
X12707709D02*
X12708362D01*
X12700000Y12395000D02*
Y12405000D01*
X12555000Y12350000D02*
X12510606Y12360606D01*
X12510606D02*
X12545000Y12350000D01*
X12510606Y12339393*
X12510606D02*
X12555000Y12350000D01*
X12512573Y12340000D02*
X12513145D01*
X12520000Y12341637D02*
Y12342290D01*
Y12357709D02*
Y12358362D01*
X12550000Y12348805D02*
Y12351194D01*
X12545000Y12350000D02*
X12589393Y12339393D01*
X12589393D02*
X12555000Y12350000D01*
X12589393Y12360606*
X12589393D02*
X12545000Y12350000D01*
X12586854Y12340000D02*
X12587426D01*
X12550000Y12348805D02*
Y12351194D01*
X12580000Y12341637D02*
Y12342290D01*
Y12357709D02*
Y12358362D01*
X12500000Y12405000D02*
X12489393Y12360606D01*
X12489393D02*
X12500000Y12395000D01*
X12510606Y12360606*
X12510606D02*
X12500000Y12405000D01*
X12491637Y12370000D02*
X12492290D01*
X12507709D02*
X12508362D01*
X12498805Y12400000D02*
X12501194D01*
X12490000Y12362573D02*
Y12363145D01*
X12500000Y12395000D02*
X12510606Y12439393D01*
X12510606D02*
X12500000Y12405000D01*
X12489393Y12439393*
X12489393D02*
X12500000Y12395000D01*
X12498805Y12400000D02*
X12501194D01*
X12491637Y12430000D02*
X12492290D01*
X12507709D02*
X12508362D01*
X12490000Y12436854D02*
Y12437426D01*
X12500000Y12305000D02*
X12489393Y12260606D01*
X12489393D02*
X12500000Y12295000D01*
X12510606Y12260606*
X12510606D02*
X12500000Y12305000D01*
X12494027Y12280000D02*
X12495374D01*
X12504625D02*
X12505973D01*
X12490000Y12262573D02*
Y12263145D01*
X12500000Y12295000D02*
X12510606Y12339393D01*
X12510606D02*
X12500000Y12305000D01*
X12489393Y12339393*
X12489393D02*
X12500000Y12295000D01*
X12496416Y12310000D02*
X12498458D01*
X12501542D02*
X12503583D01*
X12490000Y12336854D02*
Y12337426D01*
X12555000Y12450000D02*
X12510606Y12460606D01*
X12510606D02*
X12545000Y12450000D01*
X12510606Y12439393*
X12510606D02*
X12555000Y12450000D01*
X12512573Y12460000D02*
X12513145D01*
X12520000Y12441637D02*
Y12442290D01*
Y12457709D02*
Y12458362D01*
X12550000Y12448805D02*
Y12451194D01*
X12545000Y12450000D02*
X12589393Y12439393D01*
X12589393D02*
X12555000Y12450000D01*
X12589393Y12460606*
X12589393D02*
X12545000Y12450000D01*
X12586854Y12460000D02*
X12587426D01*
X12550000Y12448805D02*
Y12451194D01*
X12580000Y12441637D02*
Y12442290D01*
Y12457709D02*
Y12458362D01*
X12655000Y12450000D02*
X12610606Y12460606D01*
X12610606D02*
X12645000Y12450000D01*
X12610606Y12439393*
X12610606D02*
X12655000Y12450000D01*
X12612573Y12460000D02*
X12613145D01*
X12640000Y12446416D02*
Y12448458D01*
Y12451541D02*
Y12453583D01*
X12645000Y12450000D02*
X12689393Y12439393D01*
X12689393D02*
X12655000Y12450000D01*
X12689393Y12460606*
X12689393D02*
X12645000Y12450000D01*
X12686854Y12460000D02*
X12687426D01*
X12670000Y12444026D02*
Y12445374D01*
Y12454625D02*
Y12455973D01*
X12750000Y11505000D02*
X12150000D01*
X12010000Y11645000*
Y13290000*
X11400000Y13900000*
X12750000Y11505000D02*
X12980000Y11735000D01*
Y12040000*
X13000000Y11570000D02*
X13500000D01*
X14050000Y12120000*
Y13240000*
X12600000Y11750000D02*
X12500000D01*
Y11850000*
X12700000Y11750000D02*
Y11850000D01*
X12500000D02*
X12600000D01*
Y11750000D02*
X12700000D01*
Y11850000D02*
Y11950000D01*
X12600000*
Y12050000*
X12500000D02*
Y12150000D01*
X12600000Y12050000D02*
Y12150000D01*
X12500000Y12050000D02*
Y11950000D01*
X12600000*
X12500000Y12150000D02*
Y12250000D01*
X12600000Y12350000D02*
X12700000D01*
Y12450000*
X12600000Y12350000D02*
X12500000D01*
Y12450000*
Y12250000D02*
Y12350000D01*
Y12450000D02*
X12600000D01*
X12700000*
G54D48*
X10550000Y12454000D03*
Y11946000D03*
X14600000Y13146000D03*
Y13654000D03*
G74*
X0Y0D02*
M02*
