*
*
G04 PADS Layout (Build Number 2004.211.1) generated Gerber (RS-274-X) file*
G04 PC Version=2.1*
*
%IN "BD9C301FJ-EVK-004.pcb"*%
*
%MOMM*%
*
%FSLAX35Y35*%
*
*
*
*
G04 PC Standard Apertures*
*
*
G04 Thermal Relief Aperture macro.*
%AMTER*
1,1,$1,0,0*
1,0,$1-$2,0,0*
21,0,$3,$4,0,0,45*
21,0,$3,$4,0,0,135*
%
*
*
G04 Annular Aperture macro.*
%AMANN*
1,1,$1,0,0*
1,0,$2,0,0*
%
*
*
G04 Odd Aperture macro.*
%AMODD*
1,1,$1,0,0*
1,0,$1-0.005,0,0*
%
*
*
G04 PC Custom Aperture Macros*
*
*
*
*
*
*
G04 PC Aperture Table*
*
%ADD011R,0.9X0.7*%
%ADD012R,1.7X1.2*%
%ADD013R,2.6X1.4*%
%ADD014C,1.8*%
%ADD016C,1.6*%
%ADD017C,3.3*%
%ADD018C,0.15*%
%ADD019C,0.2*%
%ADD020C,0.6*%
%ADD021C,0.1*%
%ADD022C,2*%
%ADD023C,0.3*%
%ADD045R,3.4X2.4*%
%ADD046R,1.4X0.75*%
%ADD047R,3.2X4.9*%
*
*
*
*
G04 PC Custom Flashes*
G04 Layer Name BD9C301FJ-EVK-004.pcb - flashes*
%LPD*%
*
*
G04 PC Circuitry*
G04 Layer Name BD9C301FJ-EVK-004.pcb - circuitry*
%LPD*%
*
G54D11*
G01X12700000Y11570000D03*
Y11430000D03*
X12500000D03*
Y11570000D03*
X12100000Y12130000D03*
Y12270000D03*
X12900000Y11430000D03*
Y11570000D03*
X13200000Y11530000D03*
Y11670000D03*
Y11970000D03*
Y11830000D03*
G54D12*
X13600000Y13225000D03*
Y13475000D03*
X13900000Y13225000D03*
Y13475000D03*
G54D13*
X11300000Y12070000D03*
Y12330000D03*
X11700000Y12070000D03*
Y12330000D03*
G54D14*
X11650000Y13900000D03*
X11400000D03*
X11150000D03*
G54D16*
X11700000Y11800000D03*
Y12600000D03*
X13600000Y12850000D03*
Y13900000D03*
X12900000Y12500000D03*
X12270000Y11680000D03*
G54D17*
X10500000Y10500000D03*
X14500000D03*
X10500000Y14500000D03*
X14500000D03*
G54D18*
X11700000Y11960000D02*
X11648734Y11851265D01*
X11648734D02*
X11700000Y11887500D01*
X11751265Y11851265*
X11700000Y11960000*
X11652853Y11860000D02*
X11661092D01*
X11738907D02*
X11747147D01*
X11659925Y11875000D02*
X11682314D01*
X11717685D02*
X11740075D01*
X11666997Y11890000D02*
X11733003D01*
X11674069Y11905000D02*
X11725930D01*
X11681141Y11920000D02*
X11718858D01*
X11688213Y11935000D02*
X11711786D01*
X11695285Y11950000D02*
X11704714D01*
X11650000Y11852159D02*
Y11853948D01*
X11665000Y11862761D02*
Y11885764D01*
X11680000Y11873363D02*
Y11917579D01*
X11695000Y11883966D02*
Y11949395D01*
X11710000Y11880431D02*
Y11938789D01*
X11725000Y11869829D02*
Y11906974D01*
X11740000Y11859227D02*
Y11875159D01*
X10425780Y11946000D02*
X10466790Y11905597D01*
X10466790D02*
X10442500Y11946000D01*
X10466790Y11986402*
X10466790D02*
X10425780Y11946000D01*
X10452171Y11920000D02*
X10458131D01*
X10436945Y11935000D02*
X10449113D01*
X10429840Y11950000D02*
X10444904D01*
X10445066Y11965000D02*
X10453922D01*
X10460291Y11980000D02*
X10462941D01*
X10435000Y11936917D02*
Y11955083D01*
X10450000Y11922139D02*
Y11933525D01*
Y11958475D02*
Y11969860D01*
X10465000Y11907361D02*
Y11908575D01*
Y11983424D02*
Y11984638D01*
X11650000Y14077500D02*
X11591663Y13958336D01*
X11591663D02*
X11650000Y13997500D01*
X11708336Y13958336*
X11650000Y14077500*
X11592478Y13960000D02*
X11594141D01*
X11705858D02*
X11707521D01*
X11599821Y13975000D02*
X11616485D01*
X11683515D02*
X11700178D01*
X11607164Y13990000D02*
X11638828D01*
X11661171D02*
X11692835D01*
X11614507Y14005000D02*
X11685492D01*
X11621851Y14020000D02*
X11678149D01*
X11629194Y14035000D02*
X11670805D01*
X11636537Y14050000D02*
X11663462D01*
X11643880Y14065000D02*
X11656119D01*
X11605000Y13967289D02*
Y13985578D01*
X11620000Y13977359D02*
Y14016219D01*
X11635000Y13987429D02*
Y14046859D01*
X11650000Y13997500D02*
Y14077500D01*
X11665000Y13987429D02*
Y14046859D01*
X11680000Y13977359D02*
Y14016219D01*
X11695000Y13967289D02*
Y13985578D01*
X10750000Y11946000D02*
X10615407Y12011407D01*
X10615407D02*
X10657500Y11946000D01*
X10615407Y11880592*
X10615407D02*
X10750000Y11946000D01*
X10621461Y11890000D02*
X10634765D01*
X10631114Y11905000D02*
X10665631D01*
X10640767Y11920000D02*
X10696498D01*
X10650421Y11935000D02*
X10727364D01*
X10654925Y11950000D02*
X10741769D01*
X10645272Y11965000D02*
X10710902D01*
X10635619Y11980000D02*
X10680036D01*
X10625966Y11995000D02*
X10649170D01*
X10616313Y12010000D02*
X10618303D01*
X10630000Y11887684D02*
Y11903267D01*
Y11988732D02*
Y12004315D01*
X10645000Y11894973D02*
Y11926576D01*
Y11965423D02*
Y11997026D01*
X10660000Y11902263D02*
Y11989736D01*
X10675000Y11909552D02*
Y11982447D01*
X10690000Y11916842D02*
Y11975157D01*
X10705000Y11924131D02*
Y11967868D01*
X10720000Y11931421D02*
Y11960578D01*
X10735000Y11938710D02*
Y11953289D01*
X10750000Y11946000D02*
X10750000D01*
X12700000Y12110000D02*
X12684090Y12065910D01*
X12700000Y12087500*
X12715910Y12065910*
X12700000Y12110000*
X12685566Y12070000D02*
X12687104D01*
X12712896D02*
X12714434D01*
X12690978Y12085000D02*
X12698157D01*
X12701842D02*
X12709021D01*
X12696391Y12100000D02*
X12703608D01*
X12685000Y12067144D02*
Y12068431D01*
X12700000Y12087500D02*
Y12110000D01*
X12715000Y12067144D02*
Y12068431D01*
X12700000Y12090000D02*
X12715910Y12134090D01*
X12700000Y12112500*
X12684090Y12134090*
X12700000Y12090000*
X12696391Y12100000D02*
X12703608D01*
X12690978Y12115000D02*
X12698157D01*
X12701842D02*
X12709021D01*
X12685566Y12130000D02*
X12687104D01*
X12712896D02*
X12714434D01*
X12685000Y12131568D02*
Y12132855D01*
X12700000Y12090000D02*
Y12112500D01*
X12715000Y12131568D02*
Y12132855D01*
X12700000Y12010000D02*
X12684090Y11965910D01*
X12700000Y11987500*
X12715910Y11965910*
X12700000Y12010000*
X12689174Y11980000D02*
X12694473D01*
X12705526D02*
X12710825D01*
X12694587Y11995000D02*
X12705412D01*
X12700000Y12010000D02*
X12700000D01*
X12685000Y11967144D02*
Y11968431D01*
X12700000Y11987500D02*
Y12010000D01*
X12715000Y11967144D02*
Y11968431D01*
X12700000Y11990000D02*
X12715910Y12034090D01*
X12700000Y12012500*
X12684090Y12034090*
X12700000Y11990000*
X12698195Y11995000D02*
X12701804D01*
X12692783Y12010000D02*
X12707217D01*
X12687370Y12025000D02*
X12690788D01*
X12709211D02*
X12712629D01*
X12685000Y12031568D02*
Y12032855D01*
X12700000Y11990000D02*
Y12012500D01*
X12715000Y12031568D02*
Y12032855D01*
X12660000Y11950000D02*
X12615910Y11965910D01*
X12637500Y11950000*
X12615910Y11934090*
X12660000Y11950000*
X12617144Y11935000D02*
X12618431D01*
X12637500Y11950000D02*
X12660000D01*
X12617144Y11965000D02*
X12618431D01*
X12625000Y11937370D02*
Y11940788D01*
Y11959211D02*
Y11962629D01*
X12640000Y11942783D02*
Y11957217D01*
X12655000Y11948195D02*
Y11951804D01*
X12640000Y11950000D02*
X12684090Y11934090D01*
X12662500Y11950000*
X12684090Y11965910*
X12640000Y11950000*
X12681568Y11935000D02*
X12682855D01*
X12640000Y11950000D02*
X12662500D01*
X12681568Y11965000D02*
X12682855D01*
X12640000Y11950000D02*
X12640000D01*
X12655000Y11944587D02*
Y11955412D01*
X12670000Y11939174D02*
Y11944473D01*
Y11955526D02*
Y11960825D01*
X12600000Y12010000D02*
X12584090Y11965910D01*
X12600000Y11987500*
X12615910Y11965910*
X12600000Y12010000*
X12589174Y11980000D02*
X12594473D01*
X12605526D02*
X12610825D01*
X12594587Y11995000D02*
X12605412D01*
X12600000Y12010000D02*
X12600000D01*
X12595000Y11980714D02*
Y11996144D01*
X12610000Y11973929D02*
Y11982287D01*
X12600000Y11990000D02*
X12615910Y12034090D01*
X12600000Y12012500*
X12584090Y12034090*
X12600000Y11990000*
X12598195Y11995000D02*
X12601804D01*
X12592783Y12010000D02*
X12607217D01*
X12587370Y12025000D02*
X12590788D01*
X12609211D02*
X12612629D01*
X12595000Y12003856D02*
Y12019285D01*
X12610000Y12017712D02*
Y12026070D01*
X12540029Y12048117D02*
X12584597Y12033598D01*
X12584597D02*
X12562518Y12048823D01*
X12562518D02*
X12583598Y12065402D01*
X12583598D02*
X12540029Y12048117D01*
X12564947Y12040000D02*
X12575314D01*
X12557377Y12055000D02*
X12570371D01*
X12550000Y12044869D02*
Y12052072D01*
X12565000Y12039982D02*
Y12047112D01*
Y12050775D02*
Y12058024D01*
X12580000Y12035096D02*
Y12036768D01*
Y12062572D02*
Y12063975D01*
X12600000Y12110000D02*
X12584090Y12065910D01*
X12600000Y12087500*
X12615910Y12065910*
X12600000Y12110000*
X12585566Y12070000D02*
X12587104D01*
X12612896D02*
X12614434D01*
X12590978Y12085000D02*
X12598157D01*
X12601842D02*
X12609021D01*
X12596391Y12100000D02*
X12603608D01*
X12595000Y12080714D02*
Y12096144D01*
X12610000Y12073929D02*
Y12082287D01*
X12600000Y12090000D02*
X12615910Y12134090D01*
X12600000Y12112500*
X12584090Y12134090*
X12600000Y12090000*
X12596391Y12100000D02*
X12603608D01*
X12590978Y12115000D02*
X12598157D01*
X12601842D02*
X12609021D01*
X12585566Y12130000D02*
X12587104D01*
X12612896D02*
X12614434D01*
X12595000Y12103856D02*
Y12119285D01*
X12610000Y12117712D02*
Y12126070D01*
X13440000Y13800000D02*
X13484090Y13784090D01*
X13462500Y13800000*
X13484090Y13815910*
X13440000Y13800000*
X13453856Y13795000D02*
X13469285D01*
X13467712Y13810000D02*
X13476070D01*
X13450000Y13796391D02*
Y13803608D01*
X13465000Y13790978D02*
Y13798157D01*
Y13801842D02*
Y13809021D01*
X13480000Y13785566D02*
Y13787104D01*
Y13812896D02*
Y13814434D01*
X12553665Y12123167D02*
X12521345Y12157115D01*
X12521345D02*
X12533541Y12133229D01*
X12533541D02*
X12507115Y12128654D01*
X12507115D02*
X12553665Y12123167D01*
X12514886Y12130000D02*
X12547160D01*
X12527531Y12145000D02*
X12532879D01*
X12520000Y12127135D02*
Y12130885D01*
X12535000Y12125367D02*
Y12142772D01*
X12550000Y12123599D02*
Y12127017D01*
X12600000Y12210000D02*
X12584090Y12165910D01*
X12600000Y12187500*
X12615910Y12165910*
X12600000Y12210000*
X12587370Y12175000D02*
X12590788D01*
X12609211D02*
X12612629D01*
X12592783Y12190000D02*
X12607217D01*
X12598195Y12205000D02*
X12601804D01*
X12595000Y12180714D02*
Y12196144D01*
X12610000Y12173929D02*
Y12182287D01*
X12600000Y12190000D02*
X12615910Y12234090D01*
X12600000Y12212500*
X12584090Y12234090*
X12600000Y12190000*
X12600000*
X12594587Y12205000D02*
X12605412D01*
X12589174Y12220000D02*
X12594473D01*
X12605526D02*
X12610825D01*
X12595000Y12203856D02*
Y12219285D01*
X12610000Y12217712D02*
Y12226070D01*
X12660000Y12350000D02*
X12615910Y12365910D01*
X12637500Y12350000*
X12615910Y12334090*
X12660000Y12350000*
X12623929Y12340000D02*
X12632287D01*
X12630714Y12355000D02*
X12646144D01*
X12625000Y12337370D02*
Y12340788D01*
Y12359211D02*
Y12362629D01*
X12640000Y12342783D02*
Y12357217D01*
X12655000Y12348195D02*
Y12351804D01*
X12640000Y12350000D02*
X12684090Y12334090D01*
X12662500Y12350000*
X12684090Y12365910*
X12640000Y12350000*
X12667712Y12340000D02*
X12676070D01*
X12653856Y12355000D02*
X12669285D01*
X12640000Y12350000D02*
X12640000D01*
X12655000Y12344587D02*
Y12355412D01*
X12670000Y12339174D02*
Y12344473D01*
Y12355526D02*
Y12360825D01*
X12700000Y12210000D02*
X12684090Y12165910D01*
X12700000Y12187500*
X12715910Y12165910*
X12700000Y12210000*
X12687370Y12175000D02*
X12690788D01*
X12709211D02*
X12712629D01*
X12692783Y12190000D02*
X12707217D01*
X12698195Y12205000D02*
X12701804D01*
X12685000Y12167144D02*
Y12168431D01*
X12700000Y12187500D02*
Y12210000D01*
X12715000Y12167144D02*
Y12168431D01*
X12700000Y12190000D02*
X12715910Y12234090D01*
X12700000Y12212500*
X12684090Y12234090*
X12700000Y12190000*
X12700000*
X12694587Y12205000D02*
X12705412D01*
X12689174Y12220000D02*
X12694473D01*
X12705526D02*
X12710825D01*
X12685000Y12231568D02*
Y12232855D01*
X12700000Y12190000D02*
Y12212500D01*
X12715000Y12231568D02*
Y12232855D01*
X12560000Y12350000D02*
X12515910Y12365910D01*
X12537500Y12350000*
X12515910Y12334090*
X12560000Y12350000*
X12523929Y12340000D02*
X12532287D01*
X12530714Y12355000D02*
X12546144D01*
X12520000Y12335566D02*
Y12337104D01*
Y12362896D02*
Y12364434D01*
X12535000Y12340978D02*
Y12348157D01*
Y12351842D02*
Y12359021D01*
X12550000Y12346391D02*
Y12353608D01*
X12540000Y12350000D02*
X12584090Y12334090D01*
X12562500Y12350000*
X12584090Y12365910*
X12540000Y12350000*
X12567712Y12340000D02*
X12576070D01*
X12553856Y12355000D02*
X12569285D01*
X12550000Y12346391D02*
Y12353608D01*
X12565000Y12340978D02*
Y12348157D01*
Y12351842D02*
Y12359021D01*
X12580000Y12335566D02*
Y12337104D01*
Y12362896D02*
Y12364434D01*
X12560000Y12250000D02*
X12515910Y12265910D01*
X12537500Y12250000*
X12515910Y12234090*
X12560000Y12250000*
X12517144Y12235000D02*
X12518431D01*
X12537500Y12250000D02*
X12560000D01*
X12517144Y12265000D02*
X12518431D01*
X12520000Y12235566D02*
Y12237104D01*
Y12262896D02*
Y12264434D01*
X12535000Y12240978D02*
Y12248157D01*
Y12251842D02*
Y12259021D01*
X12550000Y12246391D02*
Y12253608D01*
X12540000Y12250000D02*
X12584090Y12234090D01*
X12562500Y12250000*
X12584090Y12265910*
X12540000Y12250000*
X12581568Y12235000D02*
X12582855D01*
X12540000Y12250000D02*
X12562500D01*
X12581568Y12265000D02*
X12582855D01*
X12550000Y12246391D02*
Y12253608D01*
X12565000Y12240978D02*
Y12248157D01*
Y12251842D02*
Y12259021D01*
X12580000Y12235566D02*
Y12237104D01*
Y12262896D02*
Y12264434D01*
X10750000Y12454000D02*
X10615407Y12519407D01*
X10615407D02*
X10657500Y12454000D01*
X10615407Y12388592*
X10615407D02*
X10750000Y12454000D01*
X10622748Y12400000D02*
X10638881D01*
X10632401Y12415000D02*
X10669747D01*
X10642055Y12430000D02*
X10700613D01*
X10651708Y12445000D02*
X10731480D01*
X10653638Y12460000D02*
X10737653D01*
X10643985Y12475000D02*
X10706787D01*
X10634332Y12490000D02*
X10675920D01*
X10624679Y12505000D02*
X10645054D01*
X10630000Y12395684D02*
Y12411267D01*
Y12496732D02*
Y12512315D01*
X10645000Y12402973D02*
Y12434576D01*
Y12473423D02*
Y12505026D01*
X10660000Y12410263D02*
Y12497736D01*
X10675000Y12417552D02*
Y12490447D01*
X10690000Y12424842D02*
Y12483157D01*
X10705000Y12432131D02*
Y12475868D01*
X10720000Y12439421D02*
Y12468578D01*
X10735000Y12446710D02*
Y12461289D01*
X10750000Y12454000D02*
X10750000D01*
X10550000Y12654000D02*
X10484592Y12519407D01*
X10484592D02*
X10550000Y12561500D01*
X10615407Y12519407*
X10615407D02*
X10550000Y12654000D01*
X10484880Y12520000D02*
X10485513D01*
X10614486D02*
X10615119D01*
X10492170Y12535000D02*
X10508821D01*
X10591178D02*
X10607830D01*
X10499459Y12550000D02*
X10532130D01*
X10567869D02*
X10600540D01*
X10506749Y12565000D02*
X10593251D01*
X10514038Y12580000D02*
X10585961D01*
X10521328Y12595000D02*
X10578672D01*
X10528617Y12610000D02*
X10571382D01*
X10535907Y12625000D02*
X10564093D01*
X10543196Y12640000D02*
X10556803D01*
X10495000Y12526105D02*
Y12540823D01*
X10510000Y12535758D02*
Y12571689D01*
X10525000Y12545411D02*
Y12602556D01*
X10540000Y12555064D02*
Y12633422D01*
X10555000Y12558282D02*
Y12643711D01*
X10570000Y12548629D02*
Y12612844D01*
X10585000Y12538976D02*
Y12581978D01*
X10600000Y12529322D02*
Y12551112D01*
X10615000Y12519669D02*
Y12520245D01*
X11150000Y13722500D02*
X11208336Y13841663D01*
X11208336D02*
X11150000Y13802500D01*
X11091663Y13841663*
X11091663D02*
X11150000Y13722500D01*
X11143880Y13735000D02*
X11156119D01*
X11136537Y13750000D02*
X11163462D01*
X11129194Y13765000D02*
X11170805D01*
X11121851Y13780000D02*
X11178149D01*
X11114507Y13795000D02*
X11185492D01*
X11107164Y13810000D02*
X11138828D01*
X11161171D02*
X11192835D01*
X11099821Y13825000D02*
X11116485D01*
X11183514D02*
X11200178D01*
X11092478Y13840000D02*
X11094141D01*
X11205858D02*
X11207521D01*
X11095000Y13834848D02*
Y13839423D01*
X11110000Y13804208D02*
Y13829353D01*
X11125000Y13773567D02*
Y13819283D01*
X11140000Y13742927D02*
Y13809213D01*
X11155000Y13732713D02*
Y13805856D01*
X11170000Y13763353D02*
Y13815926D01*
X11185000Y13793994D02*
Y13825997D01*
X11200000Y13824635D02*
Y13836067D01*
X13600000Y13010000D02*
X13548734Y12901265D01*
X13548734D02*
X13600000Y12937500D01*
X13651265Y12901265*
X13600000Y13010000*
X13552853Y12910000D02*
X13561092D01*
X13638907D02*
X13647147D01*
X13559925Y12925000D02*
X13582314D01*
X13617685D02*
X13640075D01*
X13566997Y12940000D02*
X13633003D01*
X13574069Y12955000D02*
X13625930D01*
X13581141Y12970000D02*
X13618858D01*
X13588213Y12985000D02*
X13611786D01*
X13595285Y13000000D02*
X13604714D01*
X13555000Y12905693D02*
Y12914554D01*
X13570000Y12916295D02*
Y12946369D01*
X13585000Y12926897D02*
Y12978184D01*
X13600000Y12937500D02*
Y13010000D01*
X13615000Y12926897D02*
Y12978184D01*
X13630000Y12916295D02*
Y12946369D01*
X13645000Y12905693D02*
Y12914554D01*
X13538411Y13553906D02*
X13522407Y13597963D01*
X13522407D02*
X13524006Y13571191D01*
X13524006D02*
X13497963Y13577592D01*
X13497963D02*
X13538411Y13553906D01*
X13536544Y13555000D02*
X13538014D01*
X13510928Y13570000D02*
X13532565D01*
X13523182Y13585000D02*
X13527116D01*
X13510000Y13570543D02*
Y13574634D01*
X13525000Y13561760D02*
Y13590826D01*
X13560000Y13600000D02*
X13515910Y13615910D01*
X13537500Y13600000*
X13515910Y13584090*
X13560000Y13600000*
X13517144Y13585000D02*
X13518431D01*
X13537500Y13600000D02*
X13560000D01*
X13517144Y13615000D02*
X13518431D01*
X13525000Y13587370D02*
Y13590788D01*
Y13609211D02*
Y13612629D01*
X13540000Y13592783D02*
Y13607217D01*
X13555000Y13598195D02*
Y13601804D01*
X13640000Y13600000D02*
X13684090Y13584090D01*
X13662500Y13600000*
X13684090Y13615910*
X13640000Y13600000*
X13681568Y13585000D02*
X13682855D01*
X13640000Y13600000D02*
X13662500D01*
X13681568Y13615000D02*
X13682855D01*
X13645000Y13598195D02*
Y13601804D01*
X13660000Y13592783D02*
Y13607217D01*
X13675000Y13587370D02*
Y13590788D01*
Y13609211D02*
Y13612629D01*
X13760000Y13600000D02*
X13715910Y13615910D01*
X13737500Y13600000*
X13715910Y13584090*
X13760000Y13600000*
X13717144Y13585000D02*
X13718431D01*
X13737500Y13600000D02*
X13760000D01*
X13717144Y13615000D02*
X13718431D01*
X13720000Y13585566D02*
Y13587104D01*
Y13612896D02*
Y13614434D01*
X13735000Y13590978D02*
Y13598157D01*
Y13601842D02*
Y13609021D01*
X13750000Y13596391D02*
Y13603608D01*
X14040000Y13600000D02*
X14084090Y13584090D01*
X14062500Y13600000*
X14084090Y13615910*
X14040000Y13600000*
X14081568Y13585000D02*
X14082855D01*
X14040000Y13600000D02*
X14062500D01*
X14081568Y13615000D02*
X14082855D01*
X14050000Y13596391D02*
Y13603608D01*
X14065000Y13590978D02*
Y13598157D01*
Y13601842D02*
Y13609021D01*
X14080000Y13585566D02*
Y13587104D01*
Y13612896D02*
Y13614434D01*
X13900000Y13540000D02*
X13915910Y13584090D01*
X13900000Y13562500*
X13884090Y13584090*
X13900000Y13540000*
X13900000*
X13894587Y13555000D02*
X13905412D01*
X13889174Y13570000D02*
X13894473D01*
X13905526D02*
X13910825D01*
X13885000Y13581568D02*
Y13582855D01*
X13900000Y13540000D02*
Y13562500D01*
X13915000Y13581568D02*
Y13582855D01*
X14140000Y13500000D02*
X14184090Y13484090D01*
X14162500Y13500000*
X14184090Y13515910*
X14140000Y13500000*
X14153856Y13495000D02*
X14169285D01*
X14167712Y13510000D02*
X14176070D01*
X14140000Y13500000D02*
X14140000D01*
X14155000Y13494587D02*
Y13505412D01*
X14170000Y13489174D02*
Y13494473D01*
Y13505526D02*
Y13510825D01*
X14401500Y13654000D02*
X14534592Y13588592D01*
X14534592D02*
X14492500Y13654000D01*
X14534592Y13719407*
X14534592D02*
X14401500Y13654000D01*
X14511380Y13600000D02*
X14527251D01*
X14480858Y13615000D02*
X14517598D01*
X14450335Y13630000D02*
X14507945D01*
X14419813Y13645000D02*
X14498291D01*
X14413709Y13660000D02*
X14496361D01*
X14444231Y13675000D02*
X14506014D01*
X14474753Y13690000D02*
X14515667D01*
X14505276Y13705000D02*
X14525320D01*
X14410000Y13649822D02*
Y13658177D01*
X14425000Y13642451D02*
Y13665548D01*
X14440000Y13635079D02*
Y13672920D01*
X14455000Y13627707D02*
Y13680292D01*
X14470000Y13620336D02*
Y13687663D01*
X14485000Y13612964D02*
Y13695035D01*
X14500000Y13605592D02*
Y13642345D01*
Y13665654D02*
Y13702407D01*
X14515000Y13598221D02*
Y13619037D01*
Y13688962D02*
Y13709778D01*
X14530000Y13590849D02*
Y13595729D01*
Y13712271D02*
Y13717150D01*
X14100000Y13660000D02*
X14084090Y13615910D01*
X14100000Y13637500*
X14115910Y13615910*
X14100000Y13660000*
X14089174Y13630000D02*
X14094473D01*
X14105526D02*
X14110825D01*
X14094587Y13645000D02*
X14105412D01*
X14100000Y13660000D02*
X14100000D01*
X14095000Y13630714D02*
Y13646144D01*
X14110000Y13623929D02*
Y13632287D01*
X13442426Y13657573D02*
X13422500Y13700000D01*
X13426516Y13673483*
X13426516D02*
X13400000Y13677500D01*
X13442426Y13657573*
X13437260Y13660000D02*
X13441286D01*
X13405323Y13675000D02*
X13416505D01*
X13426286D02*
X13434241D01*
X13424014Y13690000D02*
X13427196D01*
X13405000Y13675151D02*
Y13676742D01*
X13420000Y13668106D02*
Y13674470D01*
X13435000Y13661061D02*
Y13673385D01*
X13457573Y13642426D02*
X13477500Y13600000D01*
X13473483Y13626516*
X13473483D02*
X13500000Y13622500D01*
X13457573Y13642426*
X13470455Y13615000D02*
X13475227D01*
X13463410Y13630000D02*
X13484031D01*
X13465000Y13626614D02*
Y13638938D01*
X13480000Y13625529D02*
Y13631893D01*
X13495000Y13623257D02*
Y13624848D01*
X13460000Y13700000D02*
X13415910Y13715910D01*
X13437500Y13700000*
X13415910Y13684090*
X13460000Y13700000*
X13423929Y13690000D02*
X13432287D01*
X13430714Y13705000D02*
X13446144D01*
X13420000Y13685566D02*
Y13687104D01*
Y13712896D02*
Y13714434D01*
X13435000Y13690978D02*
Y13698157D01*
Y13701842D02*
Y13709021D01*
X13450000Y13696391D02*
Y13703608D01*
X13540000Y13700000D02*
X13584090Y13684090D01*
X13562500Y13700000*
X13584090Y13715910*
X13540000Y13700000*
X13567712Y13690000D02*
X13576070D01*
X13553856Y13705000D02*
X13569285D01*
X13540000Y13700000D02*
X13540000D01*
X13555000Y13694587D02*
Y13705412D01*
X13570000Y13689174D02*
Y13694473D01*
Y13705526D02*
Y13710825D01*
X13442426Y13742426D02*
X13400000Y13722500D01*
X13426516Y13726516*
X13426516D02*
X13422500Y13700000D01*
X13442426Y13742426*
X13423257Y13705000D02*
X13424848D01*
X13425529Y13720000D02*
X13431893D01*
X13426614Y13735000D02*
X13438938D01*
X13405000Y13723257D02*
Y13724848D01*
X13420000Y13725529D02*
Y13731893D01*
X13435000Y13726614D02*
Y13738938D01*
X13457573Y13757573D02*
X13500000Y13777500D01*
X13473483Y13773483*
X13473483D02*
X13477500Y13800000D01*
X13457573Y13757573*
X13461061Y13765000D02*
X13473385D01*
X13468106Y13780000D02*
X13474470D01*
X13475151Y13795000D02*
X13476742D01*
X13465000Y13761061D02*
Y13773385D01*
X13480000Y13768106D02*
Y13774470D01*
X13495000Y13775151D02*
Y13776742D01*
X13560000Y13800000D02*
X13515910Y13815910D01*
X13537500Y13800000*
X13515910Y13784090*
X13560000Y13800000*
X13530715Y13795000D02*
X13546143D01*
X13523929Y13810000D02*
X13532287D01*
X13525000Y13787370D02*
Y13790788D01*
Y13809211D02*
Y13812629D01*
X13540000Y13792783D02*
Y13807217D01*
X13555000Y13798195D02*
Y13801804D01*
X13640000Y13800000D02*
X13684090Y13784090D01*
X13662500Y13800000*
X13684090Y13815910*
X13640000Y13800000*
X13653856Y13795000D02*
X13669285D01*
X13667712Y13810000D02*
X13676070D01*
X13645000Y13798195D02*
Y13801804D01*
X13660000Y13792783D02*
Y13807217D01*
X13675000Y13787370D02*
Y13790788D01*
Y13809211D02*
Y13812629D01*
X13660000Y13700000D02*
X13615910Y13715910D01*
X13637500Y13700000*
X13615910Y13684090*
X13660000Y13700000*
X13623929Y13690000D02*
X13632287D01*
X13630714Y13705000D02*
X13646144D01*
X13630000Y13689174D02*
Y13694473D01*
Y13705526D02*
Y13710825D01*
X13645000Y13694587D02*
Y13705412D01*
X13660000Y13700000D02*
X13660000D01*
X13740000D02*
X13784090Y13684090D01*
X13762500Y13700000*
X13784090Y13715910*
X13740000Y13700000*
X13767712Y13690000D02*
X13776070D01*
X13753856Y13705000D02*
X13769285D01*
X13750000Y13696391D02*
Y13703608D01*
X13765000Y13690978D02*
Y13698157D01*
Y13701842D02*
Y13709021D01*
X13780000Y13685566D02*
Y13687104D01*
Y13712896D02*
Y13714434D01*
X13760000Y13800000D02*
X13715910Y13815910D01*
X13737500Y13800000*
X13715910Y13784090*
X13760000Y13800000*
X13730715Y13795000D02*
X13746143D01*
X13723929Y13810000D02*
X13732287D01*
X13720000Y13785566D02*
Y13787104D01*
Y13812896D02*
Y13814434D01*
X13735000Y13790978D02*
Y13798157D01*
Y13801842D02*
Y13809021D01*
X13750000Y13796391D02*
Y13803608D01*
X14040000Y13800000D02*
X14084090Y13784090D01*
X14062500Y13800000*
X14084090Y13815910*
X14040000Y13800000*
X14053856Y13795000D02*
X14069285D01*
X14067712Y13810000D02*
X14076070D01*
X14050000Y13796391D02*
Y13803608D01*
X14065000Y13790978D02*
Y13798157D01*
Y13801842D02*
Y13809021D01*
X14080000Y13785566D02*
Y13787104D01*
Y13812896D02*
Y13814434D01*
X13900000Y13860000D02*
X13884090Y13815910D01*
X13900000Y13837500*
X13915910Y13815910*
X13900000Y13860000*
X13887370Y13825000D02*
X13890788D01*
X13909211D02*
X13912629D01*
X13892783Y13840000D02*
X13907217D01*
X13898195Y13855000D02*
X13901804D01*
X13885000Y13817144D02*
Y13818431D01*
X13900000Y13837500D02*
Y13860000D01*
X13915000Y13817144D02*
Y13818431D01*
X14060000Y13700000D02*
X14015910Y13715910D01*
X14037500Y13700000*
X14015910Y13684090*
X14060000Y13700000*
X14023929Y13690000D02*
X14032287D01*
X14030714Y13705000D02*
X14046144D01*
X14020000Y13685566D02*
Y13687104D01*
Y13712896D02*
Y13714434D01*
X14035000Y13690978D02*
Y13698157D01*
Y13701842D02*
Y13709021D01*
X14050000Y13696391D02*
Y13703608D01*
X13842426Y13657573D02*
X13822500Y13700000D01*
X13826516Y13673483*
X13826516D02*
X13800000Y13677500D01*
X13842426Y13657573*
X13837260Y13660000D02*
X13841286D01*
X13805323Y13675000D02*
X13816505D01*
X13826286D02*
X13834241D01*
X13824014Y13690000D02*
X13827196D01*
X13810000Y13672803D02*
Y13675985D01*
X13825000Y13665758D02*
Y13673713D01*
Y13683495D02*
Y13694677D01*
X13840000Y13658713D02*
Y13662739D01*
X13857573Y13642426D02*
X13877500Y13600000D01*
X13873483Y13626516*
X13873483D02*
X13900000Y13622500D01*
X13857573Y13642426*
X13870455Y13615000D02*
X13875227D01*
X13863410Y13630000D02*
X13884031D01*
X13870000Y13615968D02*
Y13636590D01*
X13885000Y13624772D02*
Y13629545D01*
X13900000Y13622500D02*
X13900000D01*
X13842426Y13742426D02*
X13800000Y13722500D01*
X13826516Y13726516*
X13826516D02*
X13822500Y13700000D01*
X13842426Y13742426*
X13823257Y13705000D02*
X13824848D01*
X13825529Y13720000D02*
X13831893D01*
X13826614Y13735000D02*
X13838938D01*
X13810000Y13724014D02*
Y13727196D01*
X13825000Y13705322D02*
Y13716504D01*
Y13726286D02*
Y13734241D01*
X13840000Y13737260D02*
Y13741286D01*
X13857573Y13757573D02*
X13900000Y13777500D01*
X13873483Y13773483*
X13873483D02*
X13877500Y13800000D01*
X13857573Y13757573*
X13861061Y13765000D02*
X13873385D01*
X13868106Y13780000D02*
X13874470D01*
X13875151Y13795000D02*
X13876742D01*
X13870000Y13763410D02*
Y13784031D01*
X13885000Y13770455D02*
Y13775228D01*
X13900000Y13777500D02*
X13900000D01*
X14100000Y13740000D02*
X14115910Y13784090D01*
X14100000Y13762500*
X14084090Y13784090*
X14100000Y13740000*
X14096391Y13750000D02*
X14103608D01*
X14090978Y13765000D02*
X14098157D01*
X14101842D02*
X14109021D01*
X14085566Y13780000D02*
X14087104D01*
X14112896D02*
X14114434D01*
X14095000Y13753856D02*
Y13769285D01*
X14110000Y13767712D02*
Y13776070D01*
X14140000Y13700000D02*
X14184090Y13684090D01*
X14162500Y13700000*
X14184090Y13715910*
X14140000Y13700000*
X14167712Y13690000D02*
X14176070D01*
X14153856Y13705000D02*
X14169285D01*
X14140000Y13700000D02*
X14140000D01*
X14155000Y13694587D02*
Y13705412D01*
X14170000Y13689174D02*
Y13694473D01*
Y13705526D02*
Y13710825D01*
X13760000Y13900000D02*
X13651265Y13951265D01*
X13687500Y13900000*
X13651265Y13848734*
X13651265D02*
X13760000Y13900000D01*
X13655693Y13855000D02*
X13664554D01*
X13666295Y13870000D02*
X13696369D01*
X13676897Y13885000D02*
X13728184D01*
X13687500Y13900000D02*
X13760000D01*
X13676897Y13915000D02*
X13728184D01*
X13666295Y13930000D02*
X13696369D01*
X13655693Y13945000D02*
X13664554D01*
X13660000Y13852853D02*
Y13861092D01*
Y13938907D02*
Y13947147D01*
X13675000Y13859925D02*
Y13882314D01*
Y13917685D02*
Y13940075D01*
X13690000Y13866997D02*
Y13933003D01*
X13705000Y13874069D02*
Y13925930D01*
X13720000Y13881141D02*
Y13918858D01*
X13735000Y13888213D02*
Y13911786D01*
X13750000Y13895285D02*
Y13904714D01*
X13740000Y13900000D02*
X13784090Y13884090D01*
X13762500Y13900000*
X13784090Y13915910*
X13740000Y13900000*
X13781568Y13885000D02*
X13782855D01*
X13740000Y13900000D02*
X13762500D01*
X13781568Y13915000D02*
X13782855D01*
X13750000Y13896391D02*
Y13903608D01*
X13765000Y13890978D02*
Y13898157D01*
Y13901842D02*
Y13909021D01*
X13780000Y13885566D02*
Y13887104D01*
Y13912896D02*
Y13914434D01*
X14060000Y13900000D02*
X14015910Y13915910D01*
X14037500Y13900000*
X14015910Y13884090*
X14060000Y13900000*
X14017144Y13885000D02*
X14018431D01*
X14037500Y13900000D02*
X14060000D01*
X14017144Y13915000D02*
X14018431D01*
X14020000Y13885566D02*
Y13887104D01*
Y13912896D02*
Y13914434D01*
X14035000Y13890978D02*
Y13898157D01*
Y13901842D02*
Y13909021D01*
X14050000Y13896391D02*
Y13903608D01*
X14140000Y13900000D02*
X14184090Y13884090D01*
X14162500Y13900000*
X14184090Y13915910*
X14140000Y13900000*
X14181568Y13885000D02*
X14182855D01*
X14140000Y13900000D02*
X14162500D01*
X14181568Y13915000D02*
X14182855D01*
X14140000Y13900000D02*
X14140000D01*
X14155000Y13894587D02*
Y13905412D01*
X14170000Y13889174D02*
Y13894473D01*
Y13905526D02*
Y13910825D01*
X13860000Y13900000D02*
X13815910Y13915910D01*
X13837500Y13900000*
X13815910Y13884090*
X13860000Y13900000*
X13817144Y13885000D02*
X13818431D01*
X13837500Y13900000D02*
X13860000D01*
X13817144Y13915000D02*
X13818431D01*
X13825000Y13887370D02*
Y13890788D01*
Y13909211D02*
Y13912629D01*
X13840000Y13892783D02*
Y13907217D01*
X13855000Y13898195D02*
Y13901804D01*
X13940000Y13900000D02*
X13984090Y13884090D01*
X13962500Y13900000*
X13984090Y13915910*
X13940000Y13900000*
X13981568Y13885000D02*
X13982855D01*
X13940000Y13900000D02*
X13962500D01*
X13981568Y13915000D02*
X13982855D01*
X13945000Y13898195D02*
Y13901804D01*
X13960000Y13892783D02*
Y13907217D01*
X13975000Y13887370D02*
Y13890788D01*
Y13909211D02*
Y13912629D01*
X13200000Y11300000D02*
Y11330000D01*
Y11530000*
X11700000Y11800000D02*
Y12070000D01*
X12100000Y11600000D02*
Y11910000D01*
X12228331Y12038331*
X12500000Y12046860*
X12500000D02*
Y12050000D01*
X12100000Y11600000D02*
Y11000000D01*
X13200000*
Y11330000*
X12100000Y11600000D02*
Y11520000D01*
X12190000Y11430000*
X12500000*
X10290000Y12040000D02*
X10309280D01*
X10309280D02*
X10403280Y11946000D01*
X10403280D02*
X10550000D01*
X10290000Y12040000D02*
Y13530000D01*
X10880000Y14120000*
X11630000*
X11650000Y14100000*
Y13900000*
X10550000Y11946000D02*
X11176000D01*
X11300000Y12070000*
X11700000*
X11940000*
X12000000Y12130000*
X12100000*
X12700000Y12150000D02*
Y12050000D01*
Y11950000*
X12600000*
Y12050000*
X12500000D02*
Y12046860D01*
X12500000D02*
X12600000Y12050000D01*
Y12150000*
X11300000Y12330000D02*
X11700000D01*
X12100000Y12270000D02*
X12099500D01*
X12120000Y12290500*
X12300000*
Y13800000*
X13500000*
X12100000Y12130000D02*
X12156500D01*
X12190000Y12163500*
X12300000*
X12500000Y12150000D02*
X12600000Y12100000D01*
Y12150000D02*
Y12250000D01*
Y12350000D02*
X12700000D01*
Y12150000D02*
Y12250000D01*
X12500000Y12350000D02*
X12600000D01*
X12500000Y12250000D02*
X12600000D01*
X12890000Y12290500D02*
X12900000Y12280500D01*
Y12163500*
X12890000Y12290500D02*
X12900000D01*
Y12710000*
X10550000Y12454000D02*
X11054000D01*
X11100000Y12500000*
X11200000*
Y12430000*
X11300000Y12330000*
X10550000Y12454000D02*
Y13100000D01*
X11150000Y13700000*
Y13900000*
X12800000Y12795000D02*
X12815000D01*
X12900000Y12710000*
X13600000Y12850000D02*
Y13225000D01*
X13900000*
X12800000Y13405000D02*
X12805000Y13500000D01*
X12925000*
X13200000Y13225000*
X13600000*
X13500000Y13600000D02*
X13600000Y13480000D01*
X13900000*
Y13500000*
X13500000Y13600000D02*
X13700000D01*
X14100000*
X13900000D02*
Y13500000D01*
X14200000*
X14225000*
X14379000Y13654000*
X14600000*
X14100000Y13600000D02*
Y13700000D01*
X13500000Y13600000D02*
X13400000Y13700000D01*
X13600000*
X13400000D02*
X13500000Y13800000D01*
X13700000*
X13600000Y13700000D02*
X13800000D01*
X13700000Y13800000D02*
X14100000D01*
X13900000D02*
Y13900000D01*
X14000000Y13700000D02*
X14100000D01*
X13900000Y13600000D02*
X13800000Y13700000D01*
X13900000Y13800000*
X14100000D02*
Y13700000D01*
X14200000*
X13600000Y13900000D02*
X13800000D01*
X14000000D02*
X14200000D01*
X13800000D02*
X13900000D01*
X14000000*
G54D19*
X8999999Y31600000D02*
G75*
G03X8999999I-199999D01*
G01X8550000D02*
X9050000D01*
X8800000Y31850000D02*
Y31350000D01*
X39799999Y8400000D02*
G03X39799999I-199999D01*
G01X39350000D02*
X39850000D01*
X39600000Y8650000D02*
Y8150000D01*
X40399999Y8400000D02*
G03X40399999I-199999D01*
G01X39950000D02*
X40450000D01*
X40200000Y8650000D02*
Y8150000D01*
G54D20*
X13000000Y11570000D03*
X12500000Y11750000D03*
X12600000Y11850000D03*
X12700000Y11750000D03*
X12500000Y11850000D03*
X12600000Y11750000D03*
X12700000Y11850000D03*
Y12050000D03*
Y11950000D03*
X12600000D03*
X12500000Y12050000D03*
X12600000D03*
X12500000Y11950000D03*
X12980000Y12040000D03*
X12500000Y12150000D03*
X12600000Y12250000D03*
Y12150000D03*
X12700000Y12250000D03*
X12600000Y12350000D03*
X12700000Y12150000D03*
Y12350000D03*
X12500000D03*
Y12250000D03*
Y12450000D03*
X12600000D03*
X12700000D03*
X14050000Y13240000D03*
X13500000Y13600000D03*
X13700000D03*
X13900000D03*
X14200000Y13500000D03*
X14100000Y13600000D03*
X13400000Y13700000D03*
X13500000Y13800000D03*
X13600000Y13700000D03*
X13700000Y13800000D03*
X13900000D03*
X14000000Y13700000D03*
X13800000D03*
X14100000Y13800000D03*
X14200000Y13700000D03*
X14000000Y13900000D03*
X13800000D03*
X14200000D03*
G54D21*
X13377928Y13515000D02*
X13415000Y13477928D01*
X13415000D02*
Y13397928D01*
X13415000D02*
X13547928Y13265000D01*
X13547928D02*
X14737928D01*
X14737928D02*
X14885000Y13117928D01*
X14885000D02*
Y12462071D01*
X14827928Y12405000*
X14827928D02*
X13652071D01*
X12635000Y13422071*
Y13497290*
X12635451Y13498380*
X12635451D02*
X12652071Y13515000D01*
X13377928*
X12957928Y12135000D02*
X12995000Y12172071D01*
Y12747928*
X12995000D02*
X12937928Y12805000D01*
X12937928D02*
X12635000D01*
Y12672071*
X12805000Y12502071*
Y12152071*
X12822071Y12135000*
X12957928*
X12305000Y12065000D02*
X12232071D01*
X11975000Y11807928*
X11975000D02*
Y10944571D01*
X12208321Y10711250*
X13407928*
X13407928D02*
X13595000Y10898321D01*
Y11289804*
X13529804Y11355000*
X12643866*
X12543866Y11455000*
X12297928*
X12297928D02*
X12155000Y11597928D01*
X12155000D02*
Y11892071D01*
X12305000Y12042071*
Y12065000*
X12232071D02*
X12402071D01*
X12440000Y12102928*
X12440000D02*
Y12332071D01*
X12404571Y12367500*
X12225000*
Y12865000*
X12367928*
X12367928D02*
X12755000Y12477928D01*
X12755000D02*
Y12287071D01*
X12472928Y12005000*
X12472928D02*
X12185000D01*
Y12017928*
X12185000D02*
X12232071Y12065000D01*
X12405000Y12042071D02*
X12472071Y11975000D01*
X12627928*
X12627928D02*
X12675000Y12022071D01*
Y12217928*
X12675000D02*
X12597928Y12295000D01*
X12597928D02*
X12515000D01*
Y12065000*
X12405000*
Y12042071*
X12805000Y11197928D02*
X13202071Y11595000D01*
X13547928*
X13547928D02*
X13595000Y11547928D01*
X13595000D02*
Y11105000D01*
X12805000*
Y11197928*
X12295000Y12195000D02*
X10577929D01*
X10325000Y12447928*
X10325000D02*
Y13382071D01*
X11007928Y14065000*
X11007928D02*
X11502071D01*
X11575000Y13992071*
Y13885000*
X11725000*
Y14077928*
X11725000D02*
X11577928Y14225000D01*
X11577928D02*
X10882071D01*
X10202500Y13545428*
X10202500D02*
Y10983426D01*
X10264297Y10925000*
X10687071*
X10897071Y10715000*
X11727928*
X11727928D02*
X11933125Y10920196D01*
Y11810196*
X12247928Y12125000*
X12247928D02*
X12295000D01*
Y12195000*
X12565000Y12255000D02*
X10572071D01*
X10355000Y12472071*
Y13237928*
X10355000D02*
X11102071Y13985000D01*
X11217928*
X11217928D02*
X11235000Y13967928D01*
X11235000D02*
Y13867928D01*
X11235000D02*
X11407928Y13695000D01*
X11407928D02*
X11702071D01*
X11805000Y13797928*
X11805000D02*
Y14697928D01*
X11805000D02*
X11879727Y14772656D01*
X13985272*
X13985272D02*
X14085000Y14672928D01*
X14085000D02*
Y14312928D01*
X14085000D02*
X14322928Y14075000D01*
X14322928D02*
X14804843D01*
X14893457Y13986386*
Y13550528*
X14687928Y13345000*
X14687928D02*
X13582071D01*
X13472885Y13454185*
X13472885D02*
Y13524185D01*
X13472885D02*
X13422071Y13575000D01*
X12597929*
X12565000Y13542071*
Y12255000*
X13255000Y11595000D02*
X13072071D01*
X13060000Y11582928*
X13060000D02*
Y11522928D01*
X13060000D02*
X13007500Y11470428D01*
X13007500D02*
Y11325000D01*
X13255000*
Y11595000*
X12445000Y11994375D02*
Y11712071D01*
X12522071Y11635000*
X13007928*
X13007928D02*
X13045000Y11672071D01*
Y11807928*
X13045000D02*
X13017928Y11835000D01*
X13017928D02*
X12777928D01*
X12777928D02*
X12618553Y11994375D01*
X12618553D02*
X12445000D01*
X12941104Y13115966D02*
X14885000D01*
X12950104Y13106966D02*
X14885000D01*
X12959104Y13097966D02*
X14885000D01*
X12968104Y13088966D02*
X14885000D01*
X12977104Y13079966D02*
X14885000D01*
X12986104Y13070966D02*
X14885000D01*
X12995104Y13061966D02*
X14885000D01*
X13004104Y13052966D02*
X14885000D01*
X13013104Y13043966D02*
X14885000D01*
X13022104Y13034966D02*
X14885000D01*
X13031104Y13025966D02*
X14885000D01*
X13040104Y13016966D02*
X14885000D01*
X13049104Y13007966D02*
X14885000D01*
X13058104Y12998966D02*
X14885000D01*
X13067104Y12989966D02*
X14885000D01*
X13076104Y12980966D02*
X14885000D01*
X13085104Y12971966D02*
X14885000D01*
X13094104Y12962966D02*
X14885000D01*
X13103104Y12953966D02*
X14885000D01*
X13112104Y12944966D02*
X14885000D01*
X13121104Y12935966D02*
X14885000D01*
X13130104Y12926966D02*
X14885000D01*
X13139104Y12917966D02*
X14885000D01*
X13148104Y12908966D02*
X14885000D01*
X13157104Y12899966D02*
X14885000D01*
X13166104Y12890966D02*
X14885000D01*
X13175104Y12881966D02*
X14885000D01*
X13184104Y12872966D02*
X14885000D01*
X13193104Y12863966D02*
X14885000D01*
X13202104Y12854966D02*
X14885000D01*
X13211104Y12845966D02*
X14885000D01*
X13220104Y12836966D02*
X14885000D01*
X13229104Y12827966D02*
X14885000D01*
X13238104Y12818966D02*
X14885000D01*
X13247104Y12809966D02*
X14885000D01*
X13256104Y12800966D02*
X14885000D01*
X13265104Y12791966D02*
X14885000D01*
X13274104Y12782966D02*
X14885000D01*
X13283104Y12773966D02*
X14885000D01*
X13292104Y12764966D02*
X14885000D01*
X13301104Y12755966D02*
X14885000D01*
X13310104Y12746966D02*
X14885000D01*
X13319104Y12737966D02*
X14885000D01*
X13328104Y12728966D02*
X14885000D01*
X13337104Y12719966D02*
X14885000D01*
X13346104Y12710966D02*
X14885000D01*
X13355104Y12701966D02*
X14885000D01*
X13364104Y12692966D02*
X14885000D01*
X13373104Y12683966D02*
X14885000D01*
X13382104Y12674966D02*
X14885000D01*
X13391104Y12665966D02*
X14885000D01*
X13400104Y12656966D02*
X14885000D01*
X13409104Y12647966D02*
X14885000D01*
X13418104Y12638966D02*
X14885000D01*
X13427104Y12629966D02*
X14885000D01*
X13436104Y12620966D02*
X14885000D01*
X13445104Y12611966D02*
X14885000D01*
X13454104Y12602966D02*
X14885000D01*
X13463104Y12593966D02*
X14885000D01*
X13472104Y12584966D02*
X14885000D01*
X13481104Y12575966D02*
X14885000D01*
X13490104Y12566966D02*
X14885000D01*
X13499104Y12557966D02*
X14885000D01*
X13508104Y12548966D02*
X14885000D01*
X13517104Y12539966D02*
X14885000D01*
X13526104Y12530966D02*
X14885000D01*
X13535104Y12521966D02*
X14885000D01*
X13544104Y12512966D02*
X14885000D01*
X13553104Y12503966D02*
X14885000D01*
X13562104Y12494966D02*
X14885000D01*
X13571104Y12485966D02*
X14885000D01*
X13580104Y12476966D02*
X14885000D01*
X13589104Y12467966D02*
X14885000D01*
X13598104Y12458966D02*
X14881895D01*
X12932104Y13124966D02*
X14877962D01*
X13607104Y12449966D02*
X14872895D01*
X12923104Y13133966D02*
X14868962D01*
X13616104Y12440966D02*
X14863895D01*
X12914104Y13142966D02*
X14859962D01*
X13625104Y12431966D02*
X14854895D01*
X12905104Y13151966D02*
X14850962D01*
X13634104Y12422966D02*
X14845895D01*
X12896104Y13160966D02*
X14841962D01*
X13643104Y12413966D02*
X14836895D01*
X12887104Y13169966D02*
X14832962D01*
X12878104Y13178966D02*
X14823962D01*
X12869104Y13187966D02*
X14814962D01*
X12860104Y13196966D02*
X14805962D01*
X12851104Y13205966D02*
X14796962D01*
X12842104Y13214966D02*
X14787962D01*
X12833104Y13223966D02*
X14778962D01*
X12824104Y13232966D02*
X14769962D01*
X12815104Y13241966D02*
X14760962D01*
X12806104Y13250966D02*
X14751962D01*
X12797104Y13259966D02*
X14742962D01*
X12788104Y13268966D02*
X13543962D01*
X12779104Y13277966D02*
X13534962D01*
X12770104Y13286966D02*
X13525962D01*
X12761104Y13295966D02*
X13516962D01*
X12752104Y13304966D02*
X13507962D01*
X12743104Y13313966D02*
X13498962D01*
X12734104Y13322966D02*
X13489962D01*
X12725104Y13331966D02*
X13480962D01*
X12716104Y13340966D02*
X13471962D01*
X12707104Y13349966D02*
X13462962D01*
X12698104Y13358966D02*
X13453962D01*
X12689104Y13367966D02*
X13444962D01*
X12680104Y13376966D02*
X13435962D01*
X12671104Y13385966D02*
X13426962D01*
X12662104Y13394966D02*
X13417962D01*
X12635000Y13475966D02*
X13415000D01*
X12635000Y13466966D02*
X13415000D01*
X12635000Y13457966D02*
X13415000D01*
X12635000Y13448966D02*
X13415000D01*
X12635000Y13439966D02*
X13415000D01*
X12635000Y13430966D02*
X13415000D01*
X12635104Y13421966D02*
X13415000D01*
X12644104Y13412966D02*
X13415000D01*
X12653104Y13403966D02*
X13415000D01*
X12635000Y13484966D02*
X13407962D01*
X12635000Y13493966D02*
X13398962D01*
X12640037Y13502966D02*
X13389962D01*
X12649037Y13511966D02*
X13380962D01*
X12635000Y12746966D02*
X12995000D01*
X12635000Y12737966D02*
X12995000D01*
X12635000Y12728966D02*
X12995000D01*
X12635000Y12719966D02*
X12995000D01*
X12635000Y12710966D02*
X12995000D01*
X12635000Y12701966D02*
X12995000D01*
X12635000Y12692966D02*
X12995000D01*
X12635000Y12683966D02*
X12995000D01*
X12635000Y12674966D02*
X12995000D01*
X12641104Y12665966D02*
X12995000D01*
X12650104Y12656966D02*
X12995000D01*
X12659104Y12647966D02*
X12995000D01*
X12668104Y12638966D02*
X12995000D01*
X12677104Y12629966D02*
X12995000D01*
X12686104Y12620966D02*
X12995000D01*
X12695104Y12611966D02*
X12995000D01*
X12704104Y12602966D02*
X12995000D01*
X12713104Y12593966D02*
X12995000D01*
X12722104Y12584966D02*
X12995000D01*
X12731104Y12575966D02*
X12995000D01*
X12740104Y12566966D02*
X12995000D01*
X12749104Y12557966D02*
X12995000D01*
X12758104Y12548966D02*
X12995000D01*
X12767104Y12539966D02*
X12995000D01*
X12776104Y12530966D02*
X12995000D01*
X12785104Y12521966D02*
X12995000D01*
X12794104Y12512966D02*
X12995000D01*
X12803104Y12503966D02*
X12995000D01*
X12805000Y12494966D02*
X12995000D01*
X12805000Y12485966D02*
X12995000D01*
X12805000Y12476966D02*
X12995000D01*
X12805000Y12467966D02*
X12995000D01*
X12805000Y12458966D02*
X12995000D01*
X12805000Y12449966D02*
X12995000D01*
X12805000Y12440966D02*
X12995000D01*
X12805000Y12431966D02*
X12995000D01*
X12805000Y12422966D02*
X12995000D01*
X12805000Y12413966D02*
X12995000D01*
X12805000Y12404966D02*
X12995000D01*
X12805000Y12395966D02*
X12995000D01*
X12805000Y12386966D02*
X12995000D01*
X12805000Y12377966D02*
X12995000D01*
X12805000Y12368966D02*
X12995000D01*
X12805000Y12359966D02*
X12995000D01*
X12805000Y12350966D02*
X12995000D01*
X12805000Y12341966D02*
X12995000D01*
X12805000Y12332966D02*
X12995000D01*
X12805000Y12323966D02*
X12995000D01*
X12805000Y12314966D02*
X12995000D01*
X12805000Y12305966D02*
X12995000D01*
X12805000Y12296966D02*
X12995000D01*
X12805000Y12287966D02*
X12995000D01*
X12805000Y12278966D02*
X12995000D01*
X12805000Y12269966D02*
X12995000D01*
X12805000Y12260966D02*
X12995000D01*
X12805000Y12251966D02*
X12995000D01*
X12805000Y12242966D02*
X12995000D01*
X12805000Y12233966D02*
X12995000D01*
X12805000Y12224966D02*
X12995000D01*
X12805000Y12215966D02*
X12995000D01*
X12805000Y12206966D02*
X12995000D01*
X12805000Y12197966D02*
X12995000D01*
X12805000Y12188966D02*
X12995000D01*
X12805000Y12179966D02*
X12995000D01*
X12805000Y12170966D02*
X12993895D01*
X12635000Y12755966D02*
X12986962D01*
X12805000Y12161966D02*
X12984895D01*
X12635000Y12764966D02*
X12977962D01*
X12805000Y12152966D02*
X12975895D01*
X12635000Y12773966D02*
X12968962D01*
X12813104Y12143966D02*
X12966895D01*
X12635000Y12782966D02*
X12959962D01*
X12635000Y12791966D02*
X12950962D01*
X12635000Y12800966D02*
X12941962D01*
X11975000Y11287216D02*
X13595000D01*
X11975000Y11278216D02*
X13595000D01*
X11975000Y11269216D02*
X13595000D01*
X11975000Y11260216D02*
X13595000D01*
X11975000Y11251216D02*
X13595000D01*
X11975000Y11242216D02*
X13595000D01*
X11975000Y11233216D02*
X13595000D01*
X11975000Y11224216D02*
X13595000D01*
X11975000Y11215216D02*
X13595000D01*
X11975000Y11206216D02*
X13595000D01*
X11975000Y11197216D02*
X13595000D01*
X11975000Y11188216D02*
X13595000D01*
X11975000Y11179216D02*
X13595000D01*
X11975000Y11170216D02*
X13595000D01*
X11975000Y11161216D02*
X13595000D01*
X11975000Y11152216D02*
X13595000D01*
X11975000Y11143216D02*
X13595000D01*
X11975000Y11134216D02*
X13595000D01*
X11975000Y11125216D02*
X13595000D01*
X11975000Y11116216D02*
X13595000D01*
X11975000Y11107216D02*
X13595000D01*
X11975000Y11098216D02*
X13595000D01*
X11975000Y11089216D02*
X13595000D01*
X11975000Y11080216D02*
X13595000D01*
X11975000Y11071216D02*
X13595000D01*
X11975000Y11062216D02*
X13595000D01*
X11975000Y11053216D02*
X13595000D01*
X11975000Y11044216D02*
X13595000D01*
X11975000Y11035216D02*
X13595000D01*
X11975000Y11026216D02*
X13595000D01*
X11975000Y11017216D02*
X13595000D01*
X11975000Y11008216D02*
X13595000D01*
X11975000Y10999216D02*
X13595000D01*
X11975000Y10990216D02*
X13595000D01*
X11975000Y10981216D02*
X13595000D01*
X11975000Y10972216D02*
X13595000D01*
X11975000Y10963216D02*
X13595000D01*
X11975000Y10954216D02*
X13595000D01*
X11975000Y10945216D02*
X13595000D01*
X11983354Y10936216D02*
X13595000D01*
X11992354Y10927216D02*
X13595000D01*
X12001354Y10918216D02*
X13595000D01*
X12010354Y10909216D02*
X13595000D01*
X12019354Y10900216D02*
X13595000D01*
X11975000Y11296216D02*
X13588587D01*
X12028354Y10891216D02*
X13587895D01*
X11975000Y11305216D02*
X13579587D01*
X12037354Y10882216D02*
X13578895D01*
X11975000Y11314216D02*
X13570587D01*
X12046354Y10873216D02*
X13569895D01*
X11975000Y11323216D02*
X13561587D01*
X12055354Y10864216D02*
X13560895D01*
X11975000Y11332216D02*
X13552587D01*
X12064354Y10855216D02*
X13551895D01*
X11975000Y11341216D02*
X13543587D01*
X12073354Y10846216D02*
X13542895D01*
X11975000Y11350216D02*
X13534587D01*
X12082354Y10837216D02*
X13533895D01*
X12091354Y10828216D02*
X13524895D01*
X12100354Y10819216D02*
X13515895D01*
X12109354Y10810216D02*
X13506895D01*
X12118354Y10801216D02*
X13497895D01*
X12127354Y10792216D02*
X13488895D01*
X12136354Y10783216D02*
X13479895D01*
X12145354Y10774216D02*
X13470895D01*
X12154354Y10765216D02*
X13461895D01*
X12163354Y10756216D02*
X13452895D01*
X12172354Y10747216D02*
X13443895D01*
X12181354Y10738216D02*
X13434895D01*
X12190354Y10729216D02*
X13425895D01*
X12199354Y10720216D02*
X13416895D01*
X11975000Y11359216D02*
X12639649D01*
X11975000Y11368216D02*
X12630649D01*
X11975000Y11377216D02*
X12621649D01*
X11975000Y11386216D02*
X12612649D01*
X11975000Y11395216D02*
X12603649D01*
X11975000Y11404216D02*
X12594649D01*
X11975000Y11413216D02*
X12585649D01*
X11975000Y11422216D02*
X12576649D01*
X11975000Y11431216D02*
X12567649D01*
X11975000Y11440216D02*
X12558649D01*
X11975000Y11449216D02*
X12549649D01*
X12228287Y12061216D02*
X12305000D01*
X12219287Y12052216D02*
X12305000D01*
X12210287Y12043216D02*
X12305000D01*
X12201287Y12034216D02*
X12297145D01*
X11975000Y11458216D02*
X12294712D01*
X12192287Y12025216D02*
X12288145D01*
X11975000Y11467216D02*
X12285712D01*
X12183287Y12016216D02*
X12279145D01*
X11975000Y11476216D02*
X12276712D01*
X12174287Y12007216D02*
X12270145D01*
X11975000Y11485216D02*
X12267712D01*
X12165287Y11998216D02*
X12261145D01*
X11975000Y11494216D02*
X12258712D01*
X12156287Y11989216D02*
X12252145D01*
X11975000Y11503216D02*
X12249712D01*
X12147287Y11980216D02*
X12243145D01*
X11975000Y11512216D02*
X12240712D01*
X12138287Y11971216D02*
X12234145D01*
X11975000Y11521216D02*
X12231712D01*
X12129287Y11962216D02*
X12225145D01*
X11975000Y11530216D02*
X12222712D01*
X12120287Y11953216D02*
X12216145D01*
X11975000Y11539216D02*
X12213712D01*
X12111287Y11944216D02*
X12207145D01*
X11975000Y11548216D02*
X12204712D01*
X12102287Y11935216D02*
X12198145D01*
X11975000Y11557216D02*
X12195712D01*
X12093287Y11926216D02*
X12189145D01*
X11975000Y11566216D02*
X12186712D01*
X12084287Y11917216D02*
X12180145D01*
X11975000Y11575216D02*
X12177712D01*
X12075287Y11908216D02*
X12171145D01*
X11975000Y11584216D02*
X12168712D01*
X12066287Y11899216D02*
X12162145D01*
X11975000Y11593216D02*
X12159712D01*
X12057287Y11890216D02*
X12155000D01*
X12048287Y11881216D02*
X12155000D01*
X12039287Y11872216D02*
X12155000D01*
X12030287Y11863216D02*
X12155000D01*
X12021287Y11854216D02*
X12155000D01*
X12012287Y11845216D02*
X12155000D01*
X12003287Y11836216D02*
X12155000D01*
X11994287Y11827216D02*
X12155000D01*
X11985287Y11818216D02*
X12155000D01*
X11976287Y11809216D02*
X12155000D01*
X11975000Y11800216D02*
X12155000D01*
X11975000Y11791216D02*
X12155000D01*
X11975000Y11782216D02*
X12155000D01*
X11975000Y11773216D02*
X12155000D01*
X11975000Y11764216D02*
X12155000D01*
X11975000Y11755216D02*
X12155000D01*
X11975000Y11746216D02*
X12155000D01*
X11975000Y11737216D02*
X12155000D01*
X11975000Y11728216D02*
X12155000D01*
X11975000Y11719216D02*
X12155000D01*
X11975000Y11710216D02*
X12155000D01*
X11975000Y11701216D02*
X12155000D01*
X11975000Y11692216D02*
X12155000D01*
X11975000Y11683216D02*
X12155000D01*
X11975000Y11674216D02*
X12155000D01*
X11975000Y11665216D02*
X12155000D01*
X11975000Y11656216D02*
X12155000D01*
X11975000Y11647216D02*
X12155000D01*
X11975000Y11638216D02*
X12155000D01*
X11975000Y11629216D02*
X12155000D01*
X11975000Y11620216D02*
X12155000D01*
X11975000Y11611216D02*
X12155000D01*
X11975000Y11602216D02*
X12155000D01*
X12225000Y12472966D02*
X12755000D01*
X12225000Y12463966D02*
X12755000D01*
X12225000Y12454966D02*
X12755000D01*
X12225000Y12445966D02*
X12755000D01*
X12225000Y12436966D02*
X12755000D01*
X12225000Y12427966D02*
X12755000D01*
X12225000Y12418966D02*
X12755000D01*
X12225000Y12409966D02*
X12755000D01*
X12225000Y12400966D02*
X12755000D01*
X12225000Y12391966D02*
X12755000D01*
X12225000Y12382966D02*
X12755000D01*
X12225000Y12373966D02*
X12755000D01*
X12407104Y12364966D02*
X12755000D01*
X12416104Y12355966D02*
X12755000D01*
X12425104Y12346966D02*
X12755000D01*
X12434104Y12337966D02*
X12755000D01*
X12440000Y12328966D02*
X12755000D01*
X12440000Y12319966D02*
X12755000D01*
X12440000Y12310966D02*
X12755000D01*
X12440000Y12301966D02*
X12755000D01*
X12440000Y12292966D02*
X12755000D01*
X12440000Y12283966D02*
X12751895D01*
X12225000Y12481966D02*
X12750962D01*
X12440000Y12274966D02*
X12742895D01*
X12225000Y12490966D02*
X12741962D01*
X12440000Y12265966D02*
X12733895D01*
X12225000Y12499966D02*
X12732962D01*
X12440000Y12256966D02*
X12724895D01*
X12225000Y12508966D02*
X12723962D01*
X12440000Y12247966D02*
X12715895D01*
X12225000Y12517966D02*
X12714962D01*
X12440000Y12238966D02*
X12706895D01*
X12225000Y12526966D02*
X12705962D01*
X12440000Y12229966D02*
X12697895D01*
X12225000Y12535966D02*
X12696962D01*
X12440000Y12220966D02*
X12688895D01*
X12225000Y12544966D02*
X12687962D01*
X12440000Y12211966D02*
X12679895D01*
X12225000Y12553966D02*
X12678962D01*
X12440000Y12202966D02*
X12670895D01*
X12225000Y12562966D02*
X12669962D01*
X12440000Y12193966D02*
X12661895D01*
X12225000Y12571966D02*
X12660962D01*
X12440000Y12184966D02*
X12652895D01*
X12225000Y12580966D02*
X12651962D01*
X12440000Y12175966D02*
X12643895D01*
X12225000Y12589966D02*
X12642962D01*
X12440000Y12166966D02*
X12634895D01*
X12225000Y12598966D02*
X12633962D01*
X12440000Y12157966D02*
X12625895D01*
X12225000Y12607966D02*
X12624962D01*
X12440000Y12148966D02*
X12616895D01*
X12225000Y12616966D02*
X12615962D01*
X12440000Y12139966D02*
X12607895D01*
X12225000Y12625966D02*
X12606962D01*
X12440000Y12130966D02*
X12598895D01*
X12225000Y12634966D02*
X12597962D01*
X12440000Y12121966D02*
X12589895D01*
X12225000Y12643966D02*
X12588962D01*
X12440000Y12112966D02*
X12580895D01*
X12225000Y12652966D02*
X12579962D01*
X12440000Y12103966D02*
X12571895D01*
X12225000Y12661966D02*
X12570962D01*
X12432037Y12094966D02*
X12562895D01*
X12225000Y12670966D02*
X12561962D01*
X12423037Y12085966D02*
X12553895D01*
X12225000Y12679966D02*
X12552962D01*
X12414037Y12076966D02*
X12544895D01*
X12225000Y12688966D02*
X12543962D01*
X12405037Y12067966D02*
X12535895D01*
X12225000Y12697966D02*
X12534962D01*
X12226037Y12058966D02*
X12526895D01*
X12225000Y12706966D02*
X12525962D01*
X12217037Y12049966D02*
X12517895D01*
X12225000Y12715966D02*
X12516962D01*
X12208037Y12040966D02*
X12508895D01*
X12225000Y12724966D02*
X12507962D01*
X12199037Y12031966D02*
X12499895D01*
X12225000Y12733966D02*
X12498962D01*
X12190037Y12022966D02*
X12490895D01*
X12225000Y12742966D02*
X12489962D01*
X12185000Y12013966D02*
X12481895D01*
X12225000Y12751966D02*
X12480962D01*
X12225000Y12760966D02*
X12471962D01*
X12225000Y12769966D02*
X12462962D01*
X12225000Y12778966D02*
X12453962D01*
X12225000Y12787966D02*
X12444962D01*
X12225000Y12796966D02*
X12435962D01*
X12225000Y12805966D02*
X12426962D01*
X12225000Y12814966D02*
X12417962D01*
X12225000Y12823966D02*
X12408962D01*
X12225000Y12832966D02*
X12399962D01*
X12225000Y12841966D02*
X12390962D01*
X12225000Y12850966D02*
X12381962D01*
X12225000Y12859966D02*
X12372962D01*
X12515000Y12208966D02*
X12675000D01*
X12515000Y12199966D02*
X12675000D01*
X12515000Y12190966D02*
X12675000D01*
X12515000Y12181966D02*
X12675000D01*
X12515000Y12172966D02*
X12675000D01*
X12515000Y12163966D02*
X12675000D01*
X12515000Y12154966D02*
X12675000D01*
X12515000Y12145966D02*
X12675000D01*
X12515000Y12136966D02*
X12675000D01*
X12515000Y12127966D02*
X12675000D01*
X12515000Y12118966D02*
X12675000D01*
X12515000Y12109966D02*
X12675000D01*
X12515000Y12100966D02*
X12675000D01*
X12515000Y12091966D02*
X12675000D01*
X12515000Y12082966D02*
X12675000D01*
X12515000Y12073966D02*
X12675000D01*
X12405000Y12064966D02*
X12675000D01*
X12405000Y12055966D02*
X12675000D01*
X12405000Y12046966D02*
X12675000D01*
X12409104Y12037966D02*
X12675000D01*
X12418104Y12028966D02*
X12675000D01*
X12515000Y12217966D02*
X12674962D01*
X12427104Y12019966D02*
X12672895D01*
X12515000Y12226966D02*
X12665962D01*
X12436104Y12010966D02*
X12663895D01*
X12515000Y12235966D02*
X12656962D01*
X12445104Y12001966D02*
X12654895D01*
X12515000Y12244966D02*
X12647962D01*
X12454104Y11992966D02*
X12645895D01*
X12515000Y12253966D02*
X12638962D01*
X12463104Y11983966D02*
X12636895D01*
X12515000Y12262966D02*
X12629962D01*
X12515000Y12271966D02*
X12620962D01*
X12515000Y12280966D02*
X12611962D01*
X12515000Y12289966D02*
X12602962D01*
X13153037Y11545966D02*
X13595000D01*
X13144037Y11536966D02*
X13595000D01*
X13135037Y11527966D02*
X13595000D01*
X13126037Y11518966D02*
X13595000D01*
X13117037Y11509966D02*
X13595000D01*
X13108037Y11500966D02*
X13595000D01*
X13099037Y11491966D02*
X13595000D01*
X13090037Y11482966D02*
X13595000D01*
X13081037Y11473966D02*
X13595000D01*
X13072037Y11464966D02*
X13595000D01*
X13063037Y11455966D02*
X13595000D01*
X13054037Y11446966D02*
X13595000D01*
X13045037Y11437966D02*
X13595000D01*
X13036037Y11428966D02*
X13595000D01*
X13027037Y11419966D02*
X13595000D01*
X13018037Y11410966D02*
X13595000D01*
X13009037Y11401966D02*
X13595000D01*
X13000037Y11392966D02*
X13595000D01*
X12991037Y11383966D02*
X13595000D01*
X12982037Y11374966D02*
X13595000D01*
X12973037Y11365966D02*
X13595000D01*
X12964037Y11356966D02*
X13595000D01*
X12955037Y11347966D02*
X13595000D01*
X12946037Y11338966D02*
X13595000D01*
X12937037Y11329966D02*
X13595000D01*
X12928037Y11320966D02*
X13595000D01*
X12919037Y11311966D02*
X13595000D01*
X12910037Y11302966D02*
X13595000D01*
X12901037Y11293966D02*
X13595000D01*
X12892037Y11284966D02*
X13595000D01*
X12883037Y11275966D02*
X13595000D01*
X12874037Y11266966D02*
X13595000D01*
X12865037Y11257966D02*
X13595000D01*
X12856037Y11248966D02*
X13595000D01*
X12847037Y11239966D02*
X13595000D01*
X12838037Y11230966D02*
X13595000D01*
X12829037Y11221966D02*
X13595000D01*
X12820037Y11212966D02*
X13595000D01*
X12811037Y11203966D02*
X13595000D01*
X12805000Y11194966D02*
X13595000D01*
X12805000Y11185966D02*
X13595000D01*
X12805000Y11176966D02*
X13595000D01*
X12805000Y11167966D02*
X13595000D01*
X12805000Y11158966D02*
X13595000D01*
X12805000Y11149966D02*
X13595000D01*
X12805000Y11140966D02*
X13595000D01*
X12805000Y11131966D02*
X13595000D01*
X12805000Y11122966D02*
X13595000D01*
X12805000Y11113966D02*
X13595000D01*
X13162037Y11554966D02*
X13587962D01*
X13171037Y11563966D02*
X13578962D01*
X13180037Y11572966D02*
X13569962D01*
X13189037Y11581966D02*
X13560962D01*
X13198037Y11590966D02*
X13551962D01*
X10202500Y12190966D02*
X12295000D01*
X10202500Y12181966D02*
X12295000D01*
X10202500Y12172966D02*
X12295000D01*
X10202500Y12163966D02*
X12295000D01*
X10202500Y12154966D02*
X12295000D01*
X10202500Y12145966D02*
X12295000D01*
X10202500Y12136966D02*
X12295000D01*
X10202500Y12127966D02*
X12295000D01*
X10202500Y12118966D02*
X12241895D01*
X10202500Y12109966D02*
X12232895D01*
X10202500Y12100966D02*
X12223895D01*
X10202500Y12091966D02*
X12214895D01*
X10202500Y12082966D02*
X12205895D01*
X10202500Y12073966D02*
X12196895D01*
X10202500Y12064966D02*
X12187895D01*
X10202500Y12055966D02*
X12178895D01*
X10202500Y12046966D02*
X12169895D01*
X10202500Y12037966D02*
X12160895D01*
X10202500Y12028966D02*
X12151895D01*
X10202500Y12019966D02*
X12142895D01*
X10202500Y12010966D02*
X12133895D01*
X10202500Y12001966D02*
X12124895D01*
X10202500Y11992966D02*
X12115895D01*
X10202500Y11983966D02*
X12106895D01*
X10202500Y11974966D02*
X12097895D01*
X10202500Y11965966D02*
X12088895D01*
X10202500Y11956966D02*
X12079895D01*
X10202500Y11947966D02*
X12070895D01*
X10202500Y11938966D02*
X12061895D01*
X10202500Y11929966D02*
X12052895D01*
X10202500Y11920966D02*
X12043895D01*
X10202500Y11911966D02*
X12034895D01*
X10202500Y11902966D02*
X12025895D01*
X10202500Y11893966D02*
X12016895D01*
X10202500Y11884966D02*
X12007895D01*
X10202500Y11875966D02*
X11998895D01*
X10202500Y11866966D02*
X11989895D01*
X10202500Y11857966D02*
X11980895D01*
X10202500Y11848966D02*
X11971895D01*
X10202500Y11839966D02*
X11962895D01*
X10202500Y11830966D02*
X11953895D01*
X10202500Y11821966D02*
X11944895D01*
X10202500Y11812966D02*
X11935895D01*
X10202500Y11803966D02*
X11933125D01*
X10202500Y11794966D02*
X11933125D01*
X10202500Y11785966D02*
X11933125D01*
X10202500Y11776966D02*
X11933125D01*
X10202500Y11767966D02*
X11933125D01*
X10202500Y11758966D02*
X11933125D01*
X10202500Y11749966D02*
X11933125D01*
X10202500Y11740966D02*
X11933125D01*
X10202500Y11731966D02*
X11933125D01*
X10202500Y11722966D02*
X11933125D01*
X10202500Y11713966D02*
X11933125D01*
X10202500Y11704966D02*
X11933125D01*
X10202500Y11695966D02*
X11933125D01*
X10202500Y11686966D02*
X11933125D01*
X10202500Y11677966D02*
X11933125D01*
X10202500Y11668966D02*
X11933125D01*
X10202500Y11659966D02*
X11933125D01*
X10202500Y11650966D02*
X11933125D01*
X10202500Y11641966D02*
X11933125D01*
X10202500Y11632966D02*
X11933125D01*
X10202500Y11623966D02*
X11933125D01*
X10202500Y11614966D02*
X11933125D01*
X10202500Y11605966D02*
X11933125D01*
X10202500Y11596966D02*
X11933125D01*
X10202500Y11587966D02*
X11933125D01*
X10202500Y11578966D02*
X11933125D01*
X10202500Y11569966D02*
X11933125D01*
X10202500Y11560966D02*
X11933125D01*
X10202500Y11551966D02*
X11933125D01*
X10202500Y11542966D02*
X11933125D01*
X10202500Y11533966D02*
X11933125D01*
X10202500Y11524966D02*
X11933125D01*
X10202500Y11515966D02*
X11933125D01*
X10202500Y11506966D02*
X11933125D01*
X10202500Y11497966D02*
X11933125D01*
X10202500Y11488966D02*
X11933125D01*
X10202500Y11479966D02*
X11933125D01*
X10202500Y11470966D02*
X11933125D01*
X10202500Y11461966D02*
X11933125D01*
X10202500Y11452966D02*
X11933125D01*
X10202500Y11443966D02*
X11933125D01*
X10202500Y11434966D02*
X11933125D01*
X10202500Y11425966D02*
X11933125D01*
X10202500Y11416966D02*
X11933125D01*
X10202500Y11407966D02*
X11933125D01*
X10202500Y11398966D02*
X11933125D01*
X10202500Y11389966D02*
X11933125D01*
X10202500Y11380966D02*
X11933125D01*
X10202500Y11371966D02*
X11933125D01*
X10202500Y11362966D02*
X11933125D01*
X10202500Y11353966D02*
X11933125D01*
X10202500Y11344966D02*
X11933125D01*
X10202500Y11335966D02*
X11933125D01*
X10202500Y11326966D02*
X11933125D01*
X10202500Y11317966D02*
X11933125D01*
X10202500Y11308966D02*
X11933125D01*
X10202500Y11299966D02*
X11933125D01*
X10202500Y11290966D02*
X11933125D01*
X10202500Y11281966D02*
X11933125D01*
X10202500Y11272966D02*
X11933125D01*
X10202500Y11263966D02*
X11933125D01*
X10202500Y11254966D02*
X11933125D01*
X10202500Y11245966D02*
X11933125D01*
X10202500Y11236966D02*
X11933125D01*
X10202500Y11227966D02*
X11933125D01*
X10202500Y11218966D02*
X11933125D01*
X10202500Y11209966D02*
X11933125D01*
X10202500Y11200966D02*
X11933125D01*
X10202500Y11191966D02*
X11933125D01*
X10202500Y11182966D02*
X11933125D01*
X10202500Y11173966D02*
X11933125D01*
X10202500Y11164966D02*
X11933125D01*
X10202500Y11155966D02*
X11933125D01*
X10202500Y11146966D02*
X11933125D01*
X10202500Y11137966D02*
X11933125D01*
X10202500Y11128966D02*
X11933125D01*
X10202500Y11119966D02*
X11933125D01*
X10202500Y11110966D02*
X11933125D01*
X10202500Y11101966D02*
X11933125D01*
X10202500Y11092966D02*
X11933125D01*
X10202500Y11083966D02*
X11933125D01*
X10202500Y11074966D02*
X11933125D01*
X10202500Y11065966D02*
X11933125D01*
X10202500Y11056966D02*
X11933125D01*
X10202500Y11047966D02*
X11933125D01*
X10202500Y11038966D02*
X11933125D01*
X10202500Y11029966D02*
X11933125D01*
X10202500Y11020966D02*
X11933125D01*
X10202500Y11011966D02*
X11933125D01*
X10202500Y11002966D02*
X11933125D01*
X10202500Y10993966D02*
X11933125D01*
X10202500Y10984966D02*
X11933125D01*
X10210390Y10975966D02*
X11933125D01*
X10219909Y10966966D02*
X11933125D01*
X10229428Y10957966D02*
X11933125D01*
X10238947Y10948966D02*
X11933125D01*
X10248466Y10939966D02*
X11933125D01*
X10257986Y10930966D02*
X11933125D01*
X10690104Y10921966D02*
X11933125D01*
X10699104Y10912966D02*
X11925895D01*
X10708104Y10903966D02*
X11916895D01*
X10717104Y10894966D02*
X11907895D01*
X10726104Y10885966D02*
X11898895D01*
X10735104Y10876966D02*
X11889895D01*
X10744104Y10867966D02*
X11880895D01*
X10753104Y10858966D02*
X11871895D01*
X10762104Y10849966D02*
X11862895D01*
X10771104Y10840966D02*
X11853895D01*
X10780104Y10831966D02*
X11844895D01*
X10789104Y10822966D02*
X11835895D01*
X10798104Y10813966D02*
X11826895D01*
X10807104Y10804966D02*
X11817895D01*
X10816104Y10795966D02*
X11808895D01*
X10825104Y10786966D02*
X11799895D01*
X10834104Y10777966D02*
X11790895D01*
X10843104Y10768966D02*
X11781895D01*
X10852104Y10759966D02*
X11772895D01*
X10861104Y10750966D02*
X11763895D01*
X10870104Y10741966D02*
X11754895D01*
X10879104Y10732966D02*
X11745895D01*
X10888104Y10723966D02*
X11736895D01*
X10729037Y14071966D02*
X11725000D01*
X11504104Y14062966D02*
X11725000D01*
X11513104Y14053966D02*
X11725000D01*
X11522104Y14044966D02*
X11725000D01*
X11531104Y14035966D02*
X11725000D01*
X11540104Y14026966D02*
X11725000D01*
X11549104Y14017966D02*
X11725000D01*
X11558104Y14008966D02*
X11725000D01*
X11567104Y13999966D02*
X11725000D01*
X11575000Y13990966D02*
X11725000D01*
X11575000Y13981966D02*
X11725000D01*
X11575000Y13972966D02*
X11725000D01*
X11575000Y13963966D02*
X11725000D01*
X11575000Y13954966D02*
X11725000D01*
X11575000Y13945966D02*
X11725000D01*
X11575000Y13936966D02*
X11725000D01*
X11575000Y13927966D02*
X11725000D01*
X11575000Y13918966D02*
X11725000D01*
X11575000Y13909966D02*
X11725000D01*
X11575000Y13900966D02*
X11725000D01*
X11575000Y13891966D02*
X11725000D01*
X10738037Y14080966D02*
X11721962D01*
X10747037Y14089966D02*
X11712962D01*
X10756037Y14098966D02*
X11703962D01*
X10765037Y14107966D02*
X11694962D01*
X10774037Y14116966D02*
X11685962D01*
X10783037Y14125966D02*
X11676962D01*
X10792037Y14134966D02*
X11667962D01*
X10801037Y14143966D02*
X11658962D01*
X10810037Y14152966D02*
X11649962D01*
X10819037Y14161966D02*
X11640962D01*
X10828037Y14170966D02*
X11631962D01*
X10837037Y14179966D02*
X11622962D01*
X10846037Y14188966D02*
X11613962D01*
X10855037Y14197966D02*
X11604962D01*
X10864037Y14206966D02*
X11595962D01*
X10873037Y14215966D02*
X11586962D01*
X10882037Y14224966D02*
X11577962D01*
X10720037Y14062966D02*
X11005895D01*
X10711037Y14053966D02*
X10996895D01*
X10702037Y14044966D02*
X10987895D01*
X10693037Y14035966D02*
X10978895D01*
X10684037Y14026966D02*
X10969895D01*
X10675037Y14017966D02*
X10960895D01*
X10666037Y14008966D02*
X10951895D01*
X10657037Y13999966D02*
X10942895D01*
X10648037Y13990966D02*
X10933895D01*
X10639037Y13981966D02*
X10924895D01*
X10630037Y13972966D02*
X10915895D01*
X10621037Y13963966D02*
X10906895D01*
X10612037Y13954966D02*
X10897895D01*
X10603037Y13945966D02*
X10888895D01*
X10594037Y13936966D02*
X10879895D01*
X10585037Y13927966D02*
X10870895D01*
X10576037Y13918966D02*
X10861895D01*
X10567037Y13909966D02*
X10852895D01*
X10558037Y13900966D02*
X10843895D01*
X10549037Y13891966D02*
X10834895D01*
X10540037Y13882966D02*
X10825895D01*
X10531037Y13873966D02*
X10816895D01*
X10522037Y13864966D02*
X10807895D01*
X10513037Y13855966D02*
X10798895D01*
X10504037Y13846966D02*
X10789895D01*
X10495037Y13837966D02*
X10780895D01*
X10486037Y13828966D02*
X10771895D01*
X10477037Y13819966D02*
X10762895D01*
X10468037Y13810966D02*
X10753895D01*
X10459037Y13801966D02*
X10744895D01*
X10450037Y13792966D02*
X10735895D01*
X10441037Y13783966D02*
X10726895D01*
X10432037Y13774966D02*
X10717895D01*
X10423037Y13765966D02*
X10708895D01*
X10414037Y13756966D02*
X10699895D01*
X10405037Y13747966D02*
X10690895D01*
X10396037Y13738966D02*
X10681895D01*
X10387037Y13729966D02*
X10672895D01*
X10378037Y13720966D02*
X10663895D01*
X10369037Y13711966D02*
X10654895D01*
X10360037Y13702966D02*
X10645895D01*
X10351037Y13693966D02*
X10636895D01*
X10342037Y13684966D02*
X10627895D01*
X10333037Y13675966D02*
X10618895D01*
X10324037Y13666966D02*
X10609895D01*
X10315037Y13657966D02*
X10600895D01*
X10306037Y13648966D02*
X10591895D01*
X10297037Y13639966D02*
X10582895D01*
X10288037Y13630966D02*
X10573895D01*
X10202500Y12199966D02*
X10572962D01*
X10279037Y13621966D02*
X10564895D01*
X10202500Y12208966D02*
X10563962D01*
X10270037Y13612966D02*
X10555895D01*
X10202500Y12217966D02*
X10554962D01*
X10261037Y13603966D02*
X10546895D01*
X10202500Y12226966D02*
X10545962D01*
X10252037Y13594966D02*
X10537895D01*
X10202500Y12235966D02*
X10536962D01*
X10243037Y13585966D02*
X10528895D01*
X10202500Y12244966D02*
X10527962D01*
X10234037Y13576966D02*
X10519895D01*
X10202500Y12253966D02*
X10518962D01*
X10225037Y13567966D02*
X10510895D01*
X10202500Y12262966D02*
X10509962D01*
X10216037Y13558966D02*
X10501895D01*
X10202500Y12271966D02*
X10500962D01*
X10207037Y13549966D02*
X10492895D01*
X10202500Y12280966D02*
X10491962D01*
X10202500Y13540966D02*
X10483895D01*
X10202500Y12289966D02*
X10482962D01*
X10202500Y13531966D02*
X10474895D01*
X10202500Y12298966D02*
X10473962D01*
X10202500Y13522966D02*
X10465895D01*
X10202500Y12307966D02*
X10464962D01*
X10202500Y13513966D02*
X10456895D01*
X10202500Y12316966D02*
X10455962D01*
X10202500Y13504966D02*
X10447895D01*
X10202500Y12325966D02*
X10446962D01*
X10202500Y13495966D02*
X10438895D01*
X10202500Y12334966D02*
X10437962D01*
X10202500Y13486966D02*
X10429895D01*
X10202500Y12343966D02*
X10428962D01*
X10202500Y13477966D02*
X10420895D01*
X10202500Y12352966D02*
X10419962D01*
X10202500Y13468966D02*
X10411895D01*
X10202500Y12361966D02*
X10410962D01*
X10202500Y13459966D02*
X10402895D01*
X10202500Y12370966D02*
X10401962D01*
X10202500Y13450966D02*
X10393895D01*
X10202500Y12379966D02*
X10392962D01*
X10202500Y13441966D02*
X10384895D01*
X10202500Y12388966D02*
X10383962D01*
X10202500Y13432966D02*
X10375895D01*
X10202500Y12397966D02*
X10374962D01*
X10202500Y13423966D02*
X10366895D01*
X10202500Y12406966D02*
X10365962D01*
X10202500Y13414966D02*
X10357895D01*
X10202500Y12415966D02*
X10356962D01*
X10202500Y13405966D02*
X10348895D01*
X10202500Y12424966D02*
X10347962D01*
X10202500Y13396966D02*
X10339895D01*
X10202500Y12433966D02*
X10338962D01*
X10202500Y13387966D02*
X10330895D01*
X10202500Y12442966D02*
X10329962D01*
X10202500Y13378966D02*
X10325000D01*
X10202500Y13369966D02*
X10325000D01*
X10202500Y13360966D02*
X10325000D01*
X10202500Y13351966D02*
X10325000D01*
X10202500Y13342966D02*
X10325000D01*
X10202500Y13333966D02*
X10325000D01*
X10202500Y13324966D02*
X10325000D01*
X10202500Y13315966D02*
X10325000D01*
X10202500Y13306966D02*
X10325000D01*
X10202500Y13297966D02*
X10325000D01*
X10202500Y13288966D02*
X10325000D01*
X10202500Y13279966D02*
X10325000D01*
X10202500Y13270966D02*
X10325000D01*
X10202500Y13261966D02*
X10325000D01*
X10202500Y13252966D02*
X10325000D01*
X10202500Y13243966D02*
X10325000D01*
X10202500Y13234966D02*
X10325000D01*
X10202500Y13225966D02*
X10325000D01*
X10202500Y13216966D02*
X10325000D01*
X10202500Y13207966D02*
X10325000D01*
X10202500Y13198966D02*
X10325000D01*
X10202500Y13189966D02*
X10325000D01*
X10202500Y13180966D02*
X10325000D01*
X10202500Y13171966D02*
X10325000D01*
X10202500Y13162966D02*
X10325000D01*
X10202500Y13153966D02*
X10325000D01*
X10202500Y13144966D02*
X10325000D01*
X10202500Y13135966D02*
X10325000D01*
X10202500Y13126966D02*
X10325000D01*
X10202500Y13117966D02*
X10325000D01*
X10202500Y13108966D02*
X10325000D01*
X10202500Y13099966D02*
X10325000D01*
X10202500Y13090966D02*
X10325000D01*
X10202500Y13081966D02*
X10325000D01*
X10202500Y13072966D02*
X10325000D01*
X10202500Y13063966D02*
X10325000D01*
X10202500Y13054966D02*
X10325000D01*
X10202500Y13045966D02*
X10325000D01*
X10202500Y13036966D02*
X10325000D01*
X10202500Y13027966D02*
X10325000D01*
X10202500Y13018966D02*
X10325000D01*
X10202500Y13009966D02*
X10325000D01*
X10202500Y13000966D02*
X10325000D01*
X10202500Y12991966D02*
X10325000D01*
X10202500Y12982966D02*
X10325000D01*
X10202500Y12973966D02*
X10325000D01*
X10202500Y12964966D02*
X10325000D01*
X10202500Y12955966D02*
X10325000D01*
X10202500Y12946966D02*
X10325000D01*
X10202500Y12937966D02*
X10325000D01*
X10202500Y12928966D02*
X10325000D01*
X10202500Y12919966D02*
X10325000D01*
X10202500Y12910966D02*
X10325000D01*
X10202500Y12901966D02*
X10325000D01*
X10202500Y12892966D02*
X10325000D01*
X10202500Y12883966D02*
X10325000D01*
X10202500Y12874966D02*
X10325000D01*
X10202500Y12865966D02*
X10325000D01*
X10202500Y12856966D02*
X10325000D01*
X10202500Y12847966D02*
X10325000D01*
X10202500Y12838966D02*
X10325000D01*
X10202500Y12829966D02*
X10325000D01*
X10202500Y12820966D02*
X10325000D01*
X10202500Y12811966D02*
X10325000D01*
X10202500Y12802966D02*
X10325000D01*
X10202500Y12793966D02*
X10325000D01*
X10202500Y12784966D02*
X10325000D01*
X10202500Y12775966D02*
X10325000D01*
X10202500Y12766966D02*
X10325000D01*
X10202500Y12757966D02*
X10325000D01*
X10202500Y12748966D02*
X10325000D01*
X10202500Y12739966D02*
X10325000D01*
X10202500Y12730966D02*
X10325000D01*
X10202500Y12721966D02*
X10325000D01*
X10202500Y12712966D02*
X10325000D01*
X10202500Y12703966D02*
X10325000D01*
X10202500Y12694966D02*
X10325000D01*
X10202500Y12685966D02*
X10325000D01*
X10202500Y12676966D02*
X10325000D01*
X10202500Y12667966D02*
X10325000D01*
X10202500Y12658966D02*
X10325000D01*
X10202500Y12649966D02*
X10325000D01*
X10202500Y12640966D02*
X10325000D01*
X10202500Y12631966D02*
X10325000D01*
X10202500Y12622966D02*
X10325000D01*
X10202500Y12613966D02*
X10325000D01*
X10202500Y12604966D02*
X10325000D01*
X10202500Y12595966D02*
X10325000D01*
X10202500Y12586966D02*
X10325000D01*
X10202500Y12577966D02*
X10325000D01*
X10202500Y12568966D02*
X10325000D01*
X10202500Y12559966D02*
X10325000D01*
X10202500Y12550966D02*
X10325000D01*
X10202500Y12541966D02*
X10325000D01*
X10202500Y12532966D02*
X10325000D01*
X10202500Y12523966D02*
X10325000D01*
X10202500Y12514966D02*
X10325000D01*
X10202500Y12505966D02*
X10325000D01*
X10202500Y12496966D02*
X10325000D01*
X10202500Y12487966D02*
X10325000D01*
X10202500Y12478966D02*
X10325000D01*
X10202500Y12469966D02*
X10325000D01*
X10202500Y12460966D02*
X10325000D01*
X10202500Y12451966D02*
X10325000D01*
X11805000Y13982966D02*
X14893457D01*
X11805000Y13973966D02*
X14893457D01*
X11805000Y13964966D02*
X14893457D01*
X11805000Y13955966D02*
X14893457D01*
X11805000Y13946966D02*
X14893457D01*
X11805000Y13937966D02*
X14893457D01*
X11805000Y13928966D02*
X14893457D01*
X11805000Y13919966D02*
X14893457D01*
X11805000Y13910966D02*
X14893457D01*
X11805000Y13901966D02*
X14893457D01*
X11805000Y13892966D02*
X14893457D01*
X11805000Y13883966D02*
X14893457D01*
X11805000Y13874966D02*
X14893457D01*
X11805000Y13865966D02*
X14893457D01*
X11805000Y13856966D02*
X14893457D01*
X11805000Y13847966D02*
X14893457D01*
X11805000Y13838966D02*
X14893457D01*
X11805000Y13829966D02*
X14893457D01*
X11805000Y13820966D02*
X14893457D01*
X11805000Y13811966D02*
X14893457D01*
X11805000Y13802966D02*
X14893457D01*
X11801037Y13793966D02*
X14893457D01*
X11792037Y13784966D02*
X14893457D01*
X11783037Y13775966D02*
X14893457D01*
X11774037Y13766966D02*
X14893457D01*
X11765037Y13757966D02*
X14893457D01*
X11756037Y13748966D02*
X14893457D01*
X11747037Y13739966D02*
X14893457D01*
X11738037Y13730966D02*
X14893457D01*
X11729037Y13721966D02*
X14893457D01*
X11720037Y13712966D02*
X14893457D01*
X11711037Y13703966D02*
X14893457D01*
X10812037Y13694966D02*
X14893457D01*
X10803037Y13685966D02*
X14893457D01*
X10794037Y13676966D02*
X14893457D01*
X10785037Y13667966D02*
X14893457D01*
X10776037Y13658966D02*
X14893457D01*
X10767037Y13649966D02*
X14893457D01*
X10758037Y13640966D02*
X14893457D01*
X10749037Y13631966D02*
X14893457D01*
X10740037Y13622966D02*
X14893457D01*
X10731037Y13613966D02*
X14893457D01*
X10722037Y13604966D02*
X14893457D01*
X10713037Y13595966D02*
X14893457D01*
X10704037Y13586966D02*
X14893457D01*
X10695037Y13577966D02*
X14893457D01*
X13428104Y13568966D02*
X14893457D01*
X13437104Y13559966D02*
X14893457D01*
X13446104Y13550966D02*
X14893457D01*
X11805000Y13991966D02*
X14887876D01*
X13455104Y13541966D02*
X14884895D01*
X11805000Y14000966D02*
X14878876D01*
X13464104Y13532966D02*
X14875895D01*
X11805000Y14009966D02*
X14869876D01*
X13472885Y13523966D02*
X14866895D01*
X11805000Y14018966D02*
X14860876D01*
X13472885Y13514966D02*
X14857895D01*
X11805000Y14027966D02*
X14851876D01*
X13472885Y13505966D02*
X14848895D01*
X11805000Y14036966D02*
X14842876D01*
X13472885Y13496966D02*
X14839895D01*
X11805000Y14045966D02*
X14833876D01*
X13472885Y13487966D02*
X14830895D01*
X11805000Y14054966D02*
X14824876D01*
X13472885Y13478966D02*
X14821895D01*
X11805000Y14063966D02*
X14815876D01*
X13472885Y13469966D02*
X14812895D01*
X11805000Y14072966D02*
X14806876D01*
X13472885Y13460966D02*
X14803895D01*
X13475104Y13451966D02*
X14794895D01*
X13484104Y13442966D02*
X14785895D01*
X13493104Y13433966D02*
X14776895D01*
X13502104Y13424966D02*
X14767895D01*
X13511104Y13415966D02*
X14758895D01*
X13520104Y13406966D02*
X14749895D01*
X13529104Y13397966D02*
X14740895D01*
X13538104Y13388966D02*
X14731895D01*
X13547104Y13379966D02*
X14722895D01*
X13556104Y13370966D02*
X14713895D01*
X13565104Y13361966D02*
X14704895D01*
X13574104Y13352966D02*
X14695895D01*
X11805000Y14081966D02*
X14315962D01*
X11805000Y14090966D02*
X14306962D01*
X11805000Y14099966D02*
X14297962D01*
X11805000Y14108966D02*
X14288962D01*
X11805000Y14117966D02*
X14279962D01*
X11805000Y14126966D02*
X14270962D01*
X11805000Y14135966D02*
X14261962D01*
X11805000Y14144966D02*
X14252962D01*
X11805000Y14153966D02*
X14243962D01*
X11805000Y14162966D02*
X14234962D01*
X11805000Y14171966D02*
X14225962D01*
X11805000Y14180966D02*
X14216962D01*
X11805000Y14189966D02*
X14207962D01*
X11805000Y14198966D02*
X14198962D01*
X11805000Y14207966D02*
X14189962D01*
X11805000Y14216966D02*
X14180962D01*
X11805000Y14225966D02*
X14171962D01*
X11805000Y14234966D02*
X14162962D01*
X11805000Y14243966D02*
X14153962D01*
X11805000Y14252966D02*
X14144962D01*
X11805000Y14261966D02*
X14135962D01*
X11805000Y14270966D02*
X14126962D01*
X11805000Y14279966D02*
X14117962D01*
X11805000Y14288966D02*
X14108962D01*
X11805000Y14297966D02*
X14099962D01*
X11805000Y14306966D02*
X14090962D01*
X11805000Y14666966D02*
X14085000D01*
X11805000Y14657966D02*
X14085000D01*
X11805000Y14648966D02*
X14085000D01*
X11805000Y14639966D02*
X14085000D01*
X11805000Y14630966D02*
X14085000D01*
X11805000Y14621966D02*
X14085000D01*
X11805000Y14612966D02*
X14085000D01*
X11805000Y14603966D02*
X14085000D01*
X11805000Y14594966D02*
X14085000D01*
X11805000Y14585966D02*
X14085000D01*
X11805000Y14576966D02*
X14085000D01*
X11805000Y14567966D02*
X14085000D01*
X11805000Y14558966D02*
X14085000D01*
X11805000Y14549966D02*
X14085000D01*
X11805000Y14540966D02*
X14085000D01*
X11805000Y14531966D02*
X14085000D01*
X11805000Y14522966D02*
X14085000D01*
X11805000Y14513966D02*
X14085000D01*
X11805000Y14504966D02*
X14085000D01*
X11805000Y14495966D02*
X14085000D01*
X11805000Y14486966D02*
X14085000D01*
X11805000Y14477966D02*
X14085000D01*
X11805000Y14468966D02*
X14085000D01*
X11805000Y14459966D02*
X14085000D01*
X11805000Y14450966D02*
X14085000D01*
X11805000Y14441966D02*
X14085000D01*
X11805000Y14432966D02*
X14085000D01*
X11805000Y14423966D02*
X14085000D01*
X11805000Y14414966D02*
X14085000D01*
X11805000Y14405966D02*
X14085000D01*
X11805000Y14396966D02*
X14085000D01*
X11805000Y14387966D02*
X14085000D01*
X11805000Y14378966D02*
X14085000D01*
X11805000Y14369966D02*
X14085000D01*
X11805000Y14360966D02*
X14085000D01*
X11805000Y14351966D02*
X14085000D01*
X11805000Y14342966D02*
X14085000D01*
X11805000Y14333966D02*
X14085000D01*
X11805000Y14324966D02*
X14085000D01*
X11805000Y14315966D02*
X14085000D01*
X11805000Y14675966D02*
X14081962D01*
X11805000Y14684966D02*
X14072962D01*
X11805000Y14693966D02*
X14063962D01*
X11810037Y14702966D02*
X14054962D01*
X11819037Y14711966D02*
X14045962D01*
X11828037Y14720966D02*
X14036962D01*
X11837037Y14729966D02*
X14027962D01*
X11846037Y14738966D02*
X14018962D01*
X11855037Y14747966D02*
X14009962D01*
X11864037Y14756966D02*
X14000962D01*
X11873037Y14765966D02*
X13991962D01*
X10686037Y13568966D02*
X12591895D01*
X10677037Y13559966D02*
X12582895D01*
X10668037Y13550966D02*
X12573895D01*
X10659037Y13541966D02*
X12565000D01*
X10650037Y13532966D02*
X12565000D01*
X10641037Y13523966D02*
X12565000D01*
X10632037Y13514966D02*
X12565000D01*
X10623037Y13505966D02*
X12565000D01*
X10614037Y13496966D02*
X12565000D01*
X10605037Y13487966D02*
X12565000D01*
X10596037Y13478966D02*
X12565000D01*
X10587037Y13469966D02*
X12565000D01*
X10578037Y13460966D02*
X12565000D01*
X10569037Y13451966D02*
X12565000D01*
X10560037Y13442966D02*
X12565000D01*
X10551037Y13433966D02*
X12565000D01*
X10542037Y13424966D02*
X12565000D01*
X10533037Y13415966D02*
X12565000D01*
X10524037Y13406966D02*
X12565000D01*
X10515037Y13397966D02*
X12565000D01*
X10506037Y13388966D02*
X12565000D01*
X10497037Y13379966D02*
X12565000D01*
X10488037Y13370966D02*
X12565000D01*
X10479037Y13361966D02*
X12565000D01*
X10470037Y13352966D02*
X12565000D01*
X10461037Y13343966D02*
X12565000D01*
X10452037Y13334966D02*
X12565000D01*
X10443037Y13325966D02*
X12565000D01*
X10434037Y13316966D02*
X12565000D01*
X10425037Y13307966D02*
X12565000D01*
X10416037Y13298966D02*
X12565000D01*
X10407037Y13289966D02*
X12565000D01*
X10398037Y13280966D02*
X12565000D01*
X10389037Y13271966D02*
X12565000D01*
X10380037Y13262966D02*
X12565000D01*
X10371037Y13253966D02*
X12565000D01*
X10362037Y13244966D02*
X12565000D01*
X10355000Y13235966D02*
X12565000D01*
X10355000Y13226966D02*
X12565000D01*
X10355000Y13217966D02*
X12565000D01*
X10355000Y13208966D02*
X12565000D01*
X10355000Y13199966D02*
X12565000D01*
X10355000Y13190966D02*
X12565000D01*
X10355000Y13181966D02*
X12565000D01*
X10355000Y13172966D02*
X12565000D01*
X10355000Y13163966D02*
X12565000D01*
X10355000Y13154966D02*
X12565000D01*
X10355000Y13145966D02*
X12565000D01*
X10355000Y13136966D02*
X12565000D01*
X10355000Y13127966D02*
X12565000D01*
X10355000Y13118966D02*
X12565000D01*
X10355000Y13109966D02*
X12565000D01*
X10355000Y13100966D02*
X12565000D01*
X10355000Y13091966D02*
X12565000D01*
X10355000Y13082966D02*
X12565000D01*
X10355000Y13073966D02*
X12565000D01*
X10355000Y13064966D02*
X12565000D01*
X10355000Y13055966D02*
X12565000D01*
X10355000Y13046966D02*
X12565000D01*
X10355000Y13037966D02*
X12565000D01*
X10355000Y13028966D02*
X12565000D01*
X10355000Y13019966D02*
X12565000D01*
X10355000Y13010966D02*
X12565000D01*
X10355000Y13001966D02*
X12565000D01*
X10355000Y12992966D02*
X12565000D01*
X10355000Y12983966D02*
X12565000D01*
X10355000Y12974966D02*
X12565000D01*
X10355000Y12965966D02*
X12565000D01*
X10355000Y12956966D02*
X12565000D01*
X10355000Y12947966D02*
X12565000D01*
X10355000Y12938966D02*
X12565000D01*
X10355000Y12929966D02*
X12565000D01*
X10355000Y12920966D02*
X12565000D01*
X10355000Y12911966D02*
X12565000D01*
X10355000Y12902966D02*
X12565000D01*
X10355000Y12893966D02*
X12565000D01*
X10355000Y12884966D02*
X12565000D01*
X10355000Y12875966D02*
X12565000D01*
X10355000Y12866966D02*
X12565000D01*
X10355000Y12857966D02*
X12565000D01*
X10355000Y12848966D02*
X12565000D01*
X10355000Y12839966D02*
X12565000D01*
X10355000Y12830966D02*
X12565000D01*
X10355000Y12821966D02*
X12565000D01*
X10355000Y12812966D02*
X12565000D01*
X10355000Y12803966D02*
X12565000D01*
X10355000Y12794966D02*
X12565000D01*
X10355000Y12785966D02*
X12565000D01*
X10355000Y12776966D02*
X12565000D01*
X10355000Y12767966D02*
X12565000D01*
X10355000Y12758966D02*
X12565000D01*
X10355000Y12749966D02*
X12565000D01*
X10355000Y12740966D02*
X12565000D01*
X10355000Y12731966D02*
X12565000D01*
X10355000Y12722966D02*
X12565000D01*
X10355000Y12713966D02*
X12565000D01*
X10355000Y12704966D02*
X12565000D01*
X10355000Y12695966D02*
X12565000D01*
X10355000Y12686966D02*
X12565000D01*
X10355000Y12677966D02*
X12565000D01*
X10355000Y12668966D02*
X12565000D01*
X10355000Y12659966D02*
X12565000D01*
X10355000Y12650966D02*
X12565000D01*
X10355000Y12641966D02*
X12565000D01*
X10355000Y12632966D02*
X12565000D01*
X10355000Y12623966D02*
X12565000D01*
X10355000Y12614966D02*
X12565000D01*
X10355000Y12605966D02*
X12565000D01*
X10355000Y12596966D02*
X12565000D01*
X10355000Y12587966D02*
X12565000D01*
X10355000Y12578966D02*
X12565000D01*
X10355000Y12569966D02*
X12565000D01*
X10355000Y12560966D02*
X12565000D01*
X10355000Y12551966D02*
X12565000D01*
X10355000Y12542966D02*
X12565000D01*
X10355000Y12533966D02*
X12565000D01*
X10355000Y12524966D02*
X12565000D01*
X10355000Y12515966D02*
X12565000D01*
X10355000Y12506966D02*
X12565000D01*
X10355000Y12497966D02*
X12565000D01*
X10355000Y12488966D02*
X12565000D01*
X10355000Y12479966D02*
X12565000D01*
X10356104Y12470966D02*
X12565000D01*
X10365104Y12461966D02*
X12565000D01*
X10374104Y12452966D02*
X12565000D01*
X10383104Y12443966D02*
X12565000D01*
X10392104Y12434966D02*
X12565000D01*
X10401104Y12425966D02*
X12565000D01*
X10410104Y12416966D02*
X12565000D01*
X10419104Y12407966D02*
X12565000D01*
X10428104Y12398966D02*
X12565000D01*
X10437104Y12389966D02*
X12565000D01*
X10446104Y12380966D02*
X12565000D01*
X10455104Y12371966D02*
X12565000D01*
X10464104Y12362966D02*
X12565000D01*
X10473104Y12353966D02*
X12565000D01*
X10482104Y12344966D02*
X12565000D01*
X10491104Y12335966D02*
X12565000D01*
X10500104Y12326966D02*
X12565000D01*
X10509104Y12317966D02*
X12565000D01*
X10518104Y12308966D02*
X12565000D01*
X10527104Y12299966D02*
X12565000D01*
X10536104Y12290966D02*
X12565000D01*
X10545104Y12281966D02*
X12565000D01*
X10554104Y12272966D02*
X12565000D01*
X10563104Y12263966D02*
X12565000D01*
X10821037Y13703966D02*
X11398962D01*
X10830037Y13712966D02*
X11389962D01*
X10839037Y13721966D02*
X11380962D01*
X10848037Y13730966D02*
X11371962D01*
X10857037Y13739966D02*
X11362962D01*
X10866037Y13748966D02*
X11353962D01*
X10875037Y13757966D02*
X11344962D01*
X10884037Y13766966D02*
X11335962D01*
X10893037Y13775966D02*
X11326962D01*
X10902037Y13784966D02*
X11317962D01*
X10911037Y13793966D02*
X11308962D01*
X10920037Y13802966D02*
X11299962D01*
X10929037Y13811966D02*
X11290962D01*
X10938037Y13820966D02*
X11281962D01*
X10947037Y13829966D02*
X11272962D01*
X10956037Y13838966D02*
X11263962D01*
X10965037Y13847966D02*
X11254962D01*
X10974037Y13856966D02*
X11245962D01*
X10983037Y13865966D02*
X11236962D01*
X11082037Y13964966D02*
X11235000D01*
X11073037Y13955966D02*
X11235000D01*
X11064037Y13946966D02*
X11235000D01*
X11055037Y13937966D02*
X11235000D01*
X11046037Y13928966D02*
X11235000D01*
X11037037Y13919966D02*
X11235000D01*
X11028037Y13910966D02*
X11235000D01*
X11019037Y13901966D02*
X11235000D01*
X11010037Y13892966D02*
X11235000D01*
X11001037Y13883966D02*
X11235000D01*
X10992037Y13874966D02*
X11235000D01*
X11091037Y13973966D02*
X11228962D01*
X11100037Y13982966D02*
X11219962D01*
X13072037Y11594966D02*
X13255000D01*
X13063037Y11585966D02*
X13255000D01*
X13060000Y11576966D02*
X13255000D01*
X13060000Y11567966D02*
X13255000D01*
X13060000Y11558966D02*
X13255000D01*
X13060000Y11549966D02*
X13255000D01*
X13060000Y11540966D02*
X13255000D01*
X13060000Y11531966D02*
X13255000D01*
X13060000Y11522966D02*
X13255000D01*
X13051037Y11513966D02*
X13255000D01*
X13042037Y11504966D02*
X13255000D01*
X13033037Y11495966D02*
X13255000D01*
X13024037Y11486966D02*
X13255000D01*
X13015037Y11477966D02*
X13255000D01*
X13007500Y11468966D02*
X13255000D01*
X13007500Y11459966D02*
X13255000D01*
X13007500Y11450966D02*
X13255000D01*
X13007500Y11441966D02*
X13255000D01*
X13007500Y11432966D02*
X13255000D01*
X13007500Y11423966D02*
X13255000D01*
X13007500Y11414966D02*
X13255000D01*
X13007500Y11405966D02*
X13255000D01*
X13007500Y11396966D02*
X13255000D01*
X13007500Y11387966D02*
X13255000D01*
X13007500Y11378966D02*
X13255000D01*
X13007500Y11369966D02*
X13255000D01*
X13007500Y11360966D02*
X13255000D01*
X13007500Y11351966D02*
X13255000D01*
X13007500Y11342966D02*
X13255000D01*
X13007500Y11333966D02*
X13255000D01*
X12445000Y11805966D02*
X13045000D01*
X12445000Y11796966D02*
X13045000D01*
X12445000Y11787966D02*
X13045000D01*
X12445000Y11778966D02*
X13045000D01*
X12445000Y11769966D02*
X13045000D01*
X12445000Y11760966D02*
X13045000D01*
X12445000Y11751966D02*
X13045000D01*
X12445000Y11742966D02*
X13045000D01*
X12445000Y11733966D02*
X13045000D01*
X12445000Y11724966D02*
X13045000D01*
X12445000Y11715966D02*
X13045000D01*
X12450104Y11706966D02*
X13045000D01*
X12459104Y11697966D02*
X13045000D01*
X12468104Y11688966D02*
X13045000D01*
X12477104Y11679966D02*
X13045000D01*
X12486104Y11670966D02*
X13043895D01*
X12445000Y11814966D02*
X13037962D01*
X12495104Y11661966D02*
X13034895D01*
X12445000Y11823966D02*
X13028962D01*
X12504104Y11652966D02*
X13025895D01*
X12445000Y11832966D02*
X13019962D01*
X12513104Y11643966D02*
X13016895D01*
X12445000Y11841966D02*
X12770962D01*
X12445000Y11850966D02*
X12761962D01*
X12445000Y11859966D02*
X12752962D01*
X12445000Y11868966D02*
X12743962D01*
X12445000Y11877966D02*
X12734962D01*
X12445000Y11886966D02*
X12725962D01*
X12445000Y11895966D02*
X12716962D01*
X12445000Y11904966D02*
X12707962D01*
X12445000Y11913966D02*
X12698962D01*
X12445000Y11922966D02*
X12689962D01*
X12445000Y11931966D02*
X12680962D01*
X12445000Y11940966D02*
X12671962D01*
X12445000Y11949966D02*
X12662962D01*
X12445000Y11958966D02*
X12653962D01*
X12445000Y11967966D02*
X12644962D01*
X12445000Y11976966D02*
X12635962D01*
X12445000Y11985966D02*
X12626962D01*
G54D22*
X10550000Y12454000D03*
Y11946000D03*
X14600000Y13146000D03*
Y13654000D03*
G54D23*
X12945000Y11570000D02*
X12989393Y11559393D01*
X12989393D02*
X12955000Y11570000D01*
X12989393Y11580606*
X12989393D02*
X12945000Y11570000D01*
X12986854Y11560000D02*
X12987426D01*
X12970000Y11564026D02*
Y11565374D01*
Y11574625D02*
Y11575973D01*
X12600000Y11895000D02*
X12610606Y11939393D01*
X12610606D02*
X12600000Y11905000D01*
X12589393Y11939393*
X12589393D02*
X12600000Y11895000D01*
X12594026Y11920000D02*
X12595374D01*
X12604625D02*
X12605973D01*
X12610000Y11936854D02*
Y11937426D01*
X12600000Y11905000D02*
X12589393Y11860606D01*
X12589393D02*
X12600000Y11895000D01*
X12610606Y11860606*
X12610606D02*
X12600000Y11905000D01*
X12596416Y11890000D02*
X12598458D01*
X12601541D02*
X12603583D01*
X12610000Y11862573D02*
Y11863145D01*
X13990000Y13240000D02*
X14039393Y13229393D01*
X14039393D02*
X14005000Y13240000D01*
X14039393Y13250606*
X14039393D02*
X13990000Y13240000D01*
X14005000*
X13990000D02*
X13990000D01*
X14020000Y13233557D02*
Y13235374D01*
Y13244625D02*
Y13246442D01*
X14110000Y13240000D02*
X14060606Y13250606D01*
X14060606D02*
X14095000Y13240000D01*
X14060606Y13229393*
X14060606D02*
X14110000Y13240000D01*
X14095000D02*
X14110000D01*
X14080000Y13233557D02*
Y13235374D01*
Y13244625D02*
Y13246442D01*
X14110000Y13240000D02*
X14110000D01*
X14400000Y13146000D02*
X14539896Y13085896D01*
X14485000Y13146000*
X14539896Y13206104*
X14400000Y13146000*
X14530343Y13090000D02*
X14536147D01*
X14460516Y13120000D02*
X14508747D01*
X14409310Y13150000D02*
X14488653D01*
X14479137Y13180000D02*
X14516053D01*
X14410000Y13141703D02*
Y13150296D01*
X14440000Y13128814D02*
Y13163185D01*
X14470000Y13115925D02*
Y13176074D01*
X14500000Y13103036D02*
Y13129576D01*
Y13162423D02*
Y13188963D01*
X14530000Y13090147D02*
Y13096730D01*
Y13195269D02*
Y13201852D01*
X12870000Y11448000D02*
X12843000Y11430000D01*
X12870000Y11412000*
X12843000Y11430000D02*
X12870000D01*
X12691449Y11433520D02*
X12706479D01*
X12706479D02*
X12710000Y11430000D01*
X12900000*
X12691449Y11433520D02*
X12700000Y11430000D01*
X12527000Y11588000D02*
X12539091Y11530908D01*
X12539091D02*
X12473000Y11552000D01*
X12509000Y11576000D02*
X12539091Y11530908D01*
X12539091D02*
X12491000Y11564000D01*
X12673000Y11412000D02*
X12660908Y11469091D01*
X12660908D02*
X12727000Y11448000D01*
X12691000Y11424000D02*
X12660908Y11469091D01*
X12660908D02*
X12709000Y11436000D01*
X12500000Y11570000D02*
X12576272Y11493727D01*
X12576272D02*
X12636272D01*
X12636272D02*
X12700000Y11430000D01*
X12730000Y11552000D02*
X12757000Y11570000D01*
X12730000Y11588000*
X12757000Y11570000D02*
X12730000D01*
X12870000Y11588000D02*
X12843000Y11570000D01*
X12870000Y11552000*
X12843000Y11570000D02*
X12870000D01*
X12700000D02*
X12900000D01*
X13000000*
X12322419Y11718434D02*
X12383750Y11680000D01*
X12322419Y11641565*
X12333026Y11695893D02*
X12383750Y11680000D01*
X12335000*
X12383750D02*
X12333026Y11664106D01*
X12527000Y11588000D02*
X12460908Y11609091D01*
X12460908D02*
X12473000Y11552000D01*
X12509000Y11576000D02*
X12460908Y11609091D01*
X12460908D02*
X12491000Y11564000D01*
X12270000Y11680000D02*
X12390000D01*
X12500000Y11570000*
X12291686Y11741275D02*
X12329750Y11739750D01*
X12329750D02*
X12331275Y11701686D01*
X12310598Y11730761D02*
X12329750Y11739750D01*
X12329750D02*
X12320761Y11720598D01*
X12285500Y11887000D02*
X12335000Y11837500D01*
X12384500Y11887000*
X12310250D02*
X12335000Y11837500D01*
Y11887000*
Y11837500D02*
X12359750Y11887000D01*
X12270000Y11680000D02*
X12335000Y11745000D01*
Y11909500*
X13173000Y11810000D02*
X13200000Y11783000D01*
X13227000Y11810000*
X13200000Y11783000D02*
Y11810000D01*
Y11670000D02*
Y11830000D01*
X12600000Y11950000D02*
Y11850000D01*
X12920000Y12016250D02*
X12969500Y12036500D01*
X12920000Y12056750*
X12969500Y12036500D02*
X12920000D01*
X12865000D02*
X12980000D01*
Y12040000*
X12920000Y11889250D02*
X12969500Y11909500D01*
X12920000Y11929750*
X12969500Y11909500D02*
X12920000D01*
X13173000Y11988000D02*
X13160908Y11930908D01*
X13227000Y11952000*
X13191000Y11976000D02*
X13160908Y11930908D01*
X13209000Y11964000*
X12865000Y11909500D02*
X13139500D01*
X13200000Y11970000*
X11700000Y12330000D02*
X12040000D01*
X12100000Y12270000*
X12335000Y12290500D02*
X12500000D01*
Y12250000*
X13900000Y13225000D02*
Y13240000D01*
X14050000*
X14186000*
X14280000Y13146000*
X14600000*
G54D45*
X12800000Y12795000D03*
Y13405000D03*
G54D46*
X12335000Y12290500D03*
Y12163500D03*
Y12036500D03*
Y11909500D03*
X12865000D03*
Y12036500D03*
Y12163500D03*
Y12290500D03*
G54D47*
X12600000Y12100000D03*
G74*
X0Y0D02*
M02*
