*
*
G04 PADS Layout (Build Number 2004.211.1) generated Gerber (RS-274-X) file*
G04 PC Version=2.1*
*
%IN "BD9C301FJ-EVK-004.pcb"*%
*
%MOMM*%
*
%FSLAX35Y35*%
*
*
*
*
G04 PC Standard Apertures*
*
*
G04 Thermal Relief Aperture macro.*
%AMTER*
1,1,$1,0,0*
1,0,$1-$2,0,0*
21,0,$3,$4,0,0,45*
21,0,$3,$4,0,0,135*
%
*
*
G04 Annular Aperture macro.*
%AMANN*
1,1,$1,0,0*
1,0,$2,0,0*
%
*
*
G04 Odd Aperture macro.*
%AMODD*
1,1,$1,0,0*
1,0,$1-0.005,0,0*
%
*
*
G04 PC Custom Aperture Macros*
*
*
*
*
*
*
G04 PC Aperture Table*
*
%ADD019C,0.2*%
%ADD026R,1X0.8*%
%ADD027R,1.8X1.3*%
%ADD028R,2.7X1.5*%
%ADD029C,1.9*%
%ADD031C,1.7*%
%ADD032C,3.4*%
%ADD033C,2.1*%
%ADD049R,3.5X2.5*%
%ADD050R,1.5X0.85*%
%ADD051R,3.3X5*%
*
*
*
*
G04 PC Custom Flashes*
G04 Layer Name BD9C301FJ-EVK-004.pcb - flashes*
%LPD*%
*
*
G04 PC Circuitry*
G04 Layer Name BD9C301FJ-EVK-004.pcb - circuitry*
%LPD*%
*
G54D19*
G01X8999999Y31600000D02*
G75*
G03X8999999I-199999D01*
G01X8550000D02*
X9050000D01*
X8800000Y31850000D02*
Y31350000D01*
X39799999Y8400000D02*
G03X39799999I-199999D01*
G01X39350000D02*
X39850000D01*
X39600000Y8650000D02*
Y8150000D01*
X40399999Y8400000D02*
G03X40399999I-199999D01*
G01X39950000D02*
X40450000D01*
X40200000Y8650000D02*
Y8150000D01*
G54D26*
X12700000Y11570000D03*
Y11430000D03*
X12500000D03*
Y11570000D03*
X12100000Y12130000D03*
Y12270000D03*
X12900000Y11430000D03*
Y11570000D03*
X13200000Y11530000D03*
Y11670000D03*
Y11970000D03*
Y11830000D03*
G54D27*
X13600000Y13225000D03*
Y13475000D03*
X13900000Y13225000D03*
Y13475000D03*
G54D28*
X11300000Y12070000D03*
Y12330000D03*
X11700000Y12070000D03*
Y12330000D03*
G54D29*
X11650000Y13900000D03*
X11400000D03*
X11150000D03*
G54D31*
X11700000Y11800000D03*
Y12600000D03*
X13600000Y12850000D03*
Y13900000D03*
X12900000Y12500000D03*
X12270000Y11680000D03*
G54D32*
X10500000Y10500000D03*
X14500000D03*
X10500000Y14500000D03*
X14500000D03*
G54D33*
X10550000Y12454000D03*
Y11946000D03*
X14600000Y13146000D03*
Y13654000D03*
G54D49*
X12800000Y12795000D03*
Y13405000D03*
G54D50*
X12335000Y12290500D03*
Y12163500D03*
Y12036500D03*
Y11909500D03*
X12865000D03*
Y12036500D03*
Y12163500D03*
Y12290500D03*
G54D51*
X12600000Y12100000D03*
G74*
X0Y0D02*
M02*
