*
*
G04 PADS Layout (Build Number 2004.211.1) generated Gerber (RS-274-X) file*
G04 PC Version=2.1*
*
%IN "BD9C301FJ-EVK-004.pcb"*%
*
%MOMM*%
*
%FSLAX35Y35*%
*
*
*
*
G04 PC Standard Apertures*
*
*
G04 Thermal Relief Aperture macro.*
%AMTER*
1,1,$1,0,0*
1,0,$1-$2,0,0*
21,0,$3,$4,0,0,45*
21,0,$3,$4,0,0,135*
%
*
*
G04 Annular Aperture macro.*
%AMANN*
1,1,$1,0,0*
1,0,$2,0,0*
%
*
*
G04 Odd Aperture macro.*
%AMODD*
1,1,$1,0,0*
1,0,$1-0.005,0,0*
%
*
*
G04 PC Custom Aperture Macros*
*
*
*
*
*
*
G04 PC Aperture Table*
*
%ADD018C,0.15*%
%ADD019C,0.2*%
%ADD021C,0.1*%
%ADD023C,0.3*%
%ADD024C,0.254*%
*
*
*
*
G04 PC Custom Flashes*
G04 Layer Name BD9C301FJ-EVK-004.pcb - flashes*
%LPD*%
*
*
G04 PC Circuitry*
G04 Layer Name BD9C301FJ-EVK-004.pcb - circuitry*
%LPD*%
*
G54D18*
G01X12420000Y12341000D02*
X12439000Y12360000D01*
X12780000*
Y11840000*
X12420000*
Y12341000*
X12755000Y11711136D02*
X12745625Y11707727D01*
X12736250Y11700909*
X12731562Y11694090*
X12731562D02*
Y11680454D01*
X12731562D02*
X12736250Y11673636D01*
X12745625Y11666818*
X12755000Y11663409*
X12769062Y11660000*
X12769062D02*
X12792500D01*
X12806562Y11663409*
X12806562D02*
X12815937Y11666818D01*
X12815937D02*
X12825312Y11673636D01*
X12825312D02*
X12830000Y11680454D01*
X12830000D02*
Y11694090D01*
X12830000D02*
X12825312Y11700909D01*
X12825312D02*
X12815937Y11707727D01*
X12815937D02*
X12806562Y11711136D01*
X12731562Y11789545D02*
X12830000Y11755454D01*
X12731562Y11741818D02*
Y11789545D01*
X11297727Y14414375D02*
X11290909Y14423750D01*
X11280681Y14428437*
X11280681D02*
X11267045D01*
X11267045D02*
X11256818Y14423750D01*
X11250000Y14414375*
Y14405000*
X11253409Y14395625*
X11256818Y14390937*
X11256818D02*
X11263636Y14386250D01*
X11284090Y14376875*
X11284090D02*
X11290909Y14372187D01*
X11290909D02*
X11294318Y14367500D01*
X11297727Y14358125*
Y14344062*
X11297727D02*
X11290909Y14334687D01*
X11290909D02*
X11280681Y14330000D01*
X11280681D02*
X11267045D01*
X11256818Y14334687*
X11256818D02*
X11250000Y14344062D01*
X11328409Y14428437D02*
X11345454Y14330000D01*
X11362500Y14428437D02*
X11345454Y14330000D01*
X11362500Y14428437D02*
X11379545Y14330000D01*
X11396590Y14428437D02*
X11379545Y14330000D01*
X11427272Y14409687D02*
X11434090Y14414375D01*
X11434090D02*
X11444318Y14428437D01*
X11444318D02*
Y14330000D01*
X12311562Y11370000D02*
X12410000D01*
X12311562D02*
Y11400681D01*
X12311562D02*
X12316250Y11410909D01*
X12320937Y11414318*
X12320937D02*
X12330312Y11417727D01*
X12330312D02*
X12339687D01*
X12339687D02*
X12349062Y11414318D01*
X12349062D02*
X12353750Y11410909D01*
X12358437Y11400681*
X12358437D02*
Y11370000D01*
Y11393863D02*
X12410000Y11417727D01*
X12335000Y11451818D02*
X12330312D01*
X12330312D02*
X12320937Y11455227D01*
X12320937D02*
X12316250Y11458636D01*
X12311562Y11465454*
X12311562D02*
Y11479090D01*
X12311562D02*
X12316250Y11485909D01*
X12320937Y11489318*
X12320937D02*
X12330312Y11492727D01*
X12330312D02*
X12339687D01*
X12339687D02*
X12349062Y11489318D01*
X12349062D02*
X12363125Y11482500D01*
X12410000Y11448409*
Y11496136*
X11623863Y11598437D02*
Y11500000D01*
X11600000Y11598437D02*
X11647727D01*
X11678409D02*
Y11500000D01*
Y11598437D02*
X11709090D01*
X11709090D02*
X11719318Y11593750D01*
X11722727Y11589062*
X11722727D02*
X11726136Y11579687D01*
X11726136D02*
Y11565625D01*
X11722727Y11556250*
X11719318Y11551562*
X11719318D02*
X11709090Y11546875D01*
X11709090D02*
X11678409D01*
X11756818Y11579687D02*
X11763636Y11584375D01*
X11773863Y11598437*
X11773863D02*
Y11500000D01*
X11563863Y12918437D02*
Y12820000D01*
X11540000Y12918437D02*
X11587727D01*
X11618409D02*
Y12820000D01*
Y12918437D02*
X11649090D01*
X11649090D02*
X11659318Y12913750D01*
X11662727Y12909062*
X11662727D02*
X11666136Y12899687D01*
X11666136D02*
Y12885625D01*
X11662727Y12876250*
X11659318Y12871562*
X11659318D02*
X11649090Y12866875D01*
X11649090D02*
X11618409D01*
X11700227Y12895000D02*
Y12899687D01*
X11700227D02*
X11703636Y12909062D01*
X11703636D02*
X11707045Y12913750D01*
X11713863Y12918437*
X11713863D02*
X11727500D01*
X11727500D02*
X11734318Y12913750D01*
X11737727Y12909062*
X11737727D02*
X11741136Y12899687D01*
X11741136D02*
Y12890312D01*
X11741136D02*
X11737727Y12880937D01*
X11737727D02*
X11730909Y12866875D01*
X11696818Y12820000*
X11744545*
X12074999Y12411136D02*
X12065624Y12407727D01*
X12065624D02*
X12056249Y12400909D01*
X12056249D02*
X12051562Y12394090D01*
X12051562D02*
Y12380454D01*
X12051562D02*
X12056249Y12373636D01*
X12056249D02*
X12065624Y12366818D01*
X12065624D02*
X12074999Y12363409D01*
X12074999D02*
X12089062Y12360000D01*
X12112499*
X12112499D02*
X12126562Y12363409D01*
X12135937Y12366818*
X12145312Y12373636*
X12149999Y12380454*
X12149999D02*
Y12394090D01*
X12149999D02*
X12145312Y12400909D01*
X12135937Y12407727*
X12126562Y12411136*
X12070312Y12441818D02*
X12065624Y12448636D01*
X12065624D02*
X12051562Y12458863D01*
X12051562D02*
X12149999D01*
X12871562Y11670000D02*
X12969999D01*
X12871562D02*
Y11700681D01*
X12871562D02*
X12876249Y11710909D01*
X12876249D02*
X12880937Y11714318D01*
X12890312Y11717727*
X12899687*
X12909062Y11714318*
X12913749Y11710909*
X12913749D02*
X12918437Y11700681D01*
X12918437D02*
Y11670000D01*
Y11693863D02*
X12969999Y11717727D01*
X12890312Y11748409D02*
X12885624Y11755227D01*
X12885624D02*
X12871562Y11765454D01*
X12871562D02*
X12969999D01*
X11234999Y12501136D02*
X11225624Y12497727D01*
X11225624D02*
X11216249Y12490909D01*
X11216249D02*
X11211562Y12484090D01*
X11211562D02*
Y12470454D01*
X11211562D02*
X11216249Y12463636D01*
X11216249D02*
X11225624Y12456818D01*
X11225624D02*
X11234999Y12453409D01*
X11234999D02*
X11249062Y12450000D01*
X11272499*
X11272499D02*
X11286562Y12453409D01*
X11295937Y12456818*
X11305312Y12463636*
X11309999Y12470454*
X11309999D02*
Y12484090D01*
X11309999D02*
X11305312Y12490909D01*
X11295937Y12497727*
X11286562Y12501136*
X11211562Y12538636D02*
Y12576136D01*
X11249062Y12555681*
X11249062D02*
Y12565909D01*
X11253749Y12572727*
X11253749D02*
X11258437Y12576136D01*
X11272499Y12579545*
X11272499D02*
X11281874D01*
X11281874D02*
X11295937Y12576136D01*
X11305312Y12569318*
X11309999Y12559090*
X11309999D02*
Y12548863D01*
X11309999D02*
X11305312Y12538636D01*
X11300624Y12535227*
X11300624D02*
X11291249Y12531818D01*
X13543863Y12628437D02*
Y12530000D01*
X13520000Y12628437D02*
X13567727D01*
X13598409D02*
Y12530000D01*
Y12628437D02*
X13629090D01*
X13629090D02*
X13639318Y12623750D01*
X13642727Y12619062*
X13642727D02*
X13646136Y12609687D01*
X13646136D02*
Y12595625D01*
X13642727Y12586250*
X13639318Y12581562*
X13639318D02*
X13629090Y12576875D01*
X13629090D02*
X13598409D01*
X13683636Y12628437D02*
X13721136D01*
X13721136D02*
X13700681Y12590937D01*
X13700681D02*
X13710909D01*
X13710909D02*
X13717727Y12586250D01*
X13721136Y12581562*
X13721136D02*
X13724545Y12567500D01*
Y12558125*
X13721136Y12544062*
X13721136D02*
X13714318Y12534687D01*
X13714318D02*
X13704090Y12530000D01*
X13704090D02*
X13693863D01*
X13693863D02*
X13683636Y12534687D01*
X13683636D02*
X13680227Y12539375D01*
X13676818Y12548750*
X13523863Y14248437D02*
Y14150000D01*
X13500000Y14248437D02*
X13547727D01*
X13578409D02*
Y14150000D01*
Y14248437D02*
X13609090D01*
X13609090D02*
X13619318Y14243750D01*
X13622727Y14239062*
X13622727D02*
X13626136Y14229687D01*
X13626136D02*
Y14215625D01*
X13622727Y14206250*
X13619318Y14201562*
X13619318D02*
X13609090Y14196875D01*
X13609090D02*
X13578409D01*
X13690909Y14248437D02*
X13656818Y14182812D01*
X13656818D02*
X13707954D01*
X13690909Y14248437D02*
Y14150000D01*
X13301562Y11550000D02*
X13400000D01*
X13301562D02*
Y11580681D01*
X13301562D02*
X13306250Y11590909D01*
X13310937Y11594318*
X13310937D02*
X13320312Y11597727D01*
X13320312D02*
X13329687D01*
X13329687D02*
X13339062Y11594318D01*
X13339062D02*
X13343750Y11590909D01*
X13348437Y11580681*
X13348437D02*
Y11550000D01*
Y11573863D02*
X13400000Y11597727D01*
X13301562Y11635227D02*
Y11672727D01*
X13301562D02*
X13339062Y11652272D01*
X13339062D02*
Y11662500D01*
X13339062D02*
X13343750Y11669318D01*
X13348437Y11672727*
X13348437D02*
X13362500Y11676136D01*
X13371875*
X13385937Y11672727*
X13385937D02*
X13395312Y11665909D01*
X13395312D02*
X13400000Y11655681D01*
X13400000D02*
Y11645454D01*
X13400000D02*
X13395312Y11635227D01*
X13395312D02*
X13390625Y11631818D01*
X13381250Y11628409*
X13315000Y11891136D02*
X13305625Y11887727D01*
X13296250Y11880909*
X13291562Y11874090*
X13291562D02*
Y11860454D01*
X13291562D02*
X13296250Y11853636D01*
X13305625Y11846818*
X13315000Y11843409*
X13329062Y11840000*
X13329062D02*
X13352500D01*
X13366562Y11843409*
X13366562D02*
X13375937Y11846818D01*
X13375937D02*
X13385312Y11853636D01*
X13385312D02*
X13390000Y11860454D01*
X13390000D02*
Y11874090D01*
X13390000D02*
X13385312Y11880909D01*
X13385312D02*
X13375937Y11887727D01*
X13375937D02*
X13366562Y11891136D01*
X13305625Y11962727D02*
X13296250Y11959318D01*
X13291562Y11949090*
X13291562D02*
Y11942272D01*
X13291562D02*
X13296250Y11932045D01*
X13310312Y11925227*
X13310312D02*
X13333750Y11921818D01*
X13357187*
X13357187D02*
X13375937Y11925227D01*
X13375937D02*
X13385312Y11932045D01*
X13385312D02*
X13390000Y11942272D01*
X13390000D02*
Y11945681D01*
X13390000D02*
X13385312Y11955909D01*
X13385312D02*
X13375937Y11962727D01*
X13375937D02*
X13361875Y11966136D01*
X13357187*
X13357187D02*
X13343125Y11962727D01*
X13333750Y11955909*
X13329062Y11945681*
X13329062D02*
Y11942272D01*
X13329062D02*
X13333750Y11932045D01*
X13343125Y11925227*
X13357187Y11921818*
X10904090Y12838437D02*
Y12763437D01*
X10904090D02*
X10900681Y12749375D01*
X10900681D02*
X10897272Y12744687D01*
X10897272D02*
X10890454Y12740000D01*
X10890454D02*
X10883636D01*
X10876818Y12744687*
X10876818D02*
X10873409Y12749375D01*
X10869999Y12763437*
X10869999D02*
Y12772812D01*
X10934772Y12819687D02*
X10941590Y12824375D01*
X10941590D02*
X10951818Y12838437D01*
X10951818D02*
Y12740000D01*
X14054090Y13128437D02*
Y13053437D01*
X14054090D02*
X14050681Y13039375D01*
X14050681D02*
X14047272Y13034687D01*
X14047272D02*
X14040454Y13030000D01*
X14040454D02*
X14033636D01*
X14026818Y13034687*
X14026818D02*
X14023409Y13039375D01*
X14020000Y13053437*
X14020000D02*
Y13062812D01*
X14088181Y13105000D02*
Y13109687D01*
X14088181D02*
X14091590Y13119062D01*
X14091590D02*
X14095000Y13123750D01*
X14101818Y13128437*
X14101818D02*
X14115454D01*
X14115454D02*
X14122272Y13123750D01*
X14122272D02*
X14125681Y13119062D01*
X14125681D02*
X14129090Y13109687D01*
X14129090D02*
Y13100312D01*
X14129090D02*
X14125681Y13090937D01*
X14125681D02*
X14118863Y13076875D01*
X14118863D02*
X14084772Y13030000D01*
X14084772D02*
X14132500D01*
X11435000Y12501136D02*
X11425625Y12497727D01*
X11416250Y12490909*
X11411562Y12484090*
X11411562D02*
Y12470454D01*
X11411562D02*
X11416250Y12463636D01*
X11425625Y12456818*
X11435000Y12453409*
X11449062Y12449999*
X11449062D02*
X11472500D01*
X11472500D02*
X11486562Y12453409D01*
X11486562D02*
X11495937Y12456818D01*
X11495937D02*
X11505312Y12463636D01*
X11505312D02*
X11510000Y12470454D01*
X11510000D02*
Y12484090D01*
X11510000D02*
X11505312Y12490909D01*
X11505312D02*
X11495937Y12497727D01*
X11495937D02*
X11486562Y12501136D01*
X11435000Y12535227D02*
X11430312D01*
X11430312D02*
X11420937Y12538636D01*
X11420937D02*
X11416250Y12542045D01*
X11411562Y12548863*
X11411562D02*
Y12562499D01*
X11411562D02*
X11416250Y12569318D01*
X11420937Y12572727*
X11420937D02*
X11430312Y12576136D01*
X11430312D02*
X11439687D01*
X11439687D02*
X11449062Y12572727D01*
X11449062D02*
X11463125Y12565909D01*
X11510000Y12531818*
Y12579545*
X13574999Y13601136D02*
X13565624Y13597727D01*
X13565624D02*
X13556249Y13590909D01*
X13556249D02*
X13551562Y13584090D01*
X13551562D02*
Y13570454D01*
X13551562D02*
X13556249Y13563636D01*
X13556249D02*
X13565624Y13556818D01*
X13565624D02*
X13574999Y13553409D01*
X13574999D02*
X13589062Y13550000D01*
X13612499*
X13612499D02*
X13626562Y13553409D01*
X13635937Y13556818*
X13645312Y13563636*
X13649999Y13570454*
X13649999D02*
Y13584090D01*
X13649999D02*
X13645312Y13590909D01*
X13635937Y13597727*
X13626562Y13601136*
X13551562Y13665909D02*
X13617187Y13631818D01*
Y13682954*
X13551562Y13665909D02*
X13649999D01*
X13974999Y13601136D02*
X13965624Y13597727D01*
X13965624D02*
X13956249Y13590909D01*
X13956249D02*
X13951562Y13584090D01*
X13951562D02*
Y13570454D01*
X13951562D02*
X13956249Y13563636D01*
X13956249D02*
X13965624Y13556818D01*
X13965624D02*
X13974999Y13553409D01*
X13974999D02*
X13989062Y13550000D01*
X14012499*
X14012499D02*
X14026562Y13553409D01*
X14035937Y13556818*
X14045312Y13563636*
X14049999Y13570454*
X14049999D02*
Y13584090D01*
X14049999D02*
X14045312Y13590909D01*
X14035937Y13597727*
X14026562Y13601136*
X13951562Y13676136D02*
Y13642045D01*
X13993749Y13638636*
X13993749D02*
X13989062Y13642045D01*
X13984374Y13652272*
X13984374D02*
Y13662500D01*
X13984374D02*
X13989062Y13672727D01*
X13998437Y13679545*
X14012499Y13682954*
X14012499D02*
X14021874Y13679545D01*
X14021874D02*
X14035937Y13676136D01*
X14045312Y13669318*
X14049999Y13659090*
X14049999D02*
Y13648863D01*
X14049999D02*
X14045312Y13638636D01*
X14040624Y13635227*
X14040624D02*
X14031249Y13631818D01*
X12780000Y13668437D02*
Y13570000D01*
X12820909*
X12851590Y13649687D02*
X12858409Y13654375D01*
X12868636Y13668437*
X12868636D02*
Y13570000D01*
X13010000Y12248437D02*
Y12178125D01*
X13013409Y12164062*
X13013409D02*
X13020227Y12154687D01*
X13020227D02*
X13030454Y12150000D01*
X13030454D02*
X13037272D01*
X13037272D02*
X13047500Y12154687D01*
X13047500D02*
X13054318Y12164062D01*
X13054318D02*
X13057727Y12178125D01*
Y12248437*
X13088409Y12229687D02*
X13095227Y12234375D01*
X13105454Y12248437*
X13105454D02*
Y12150000D01*
X13153863Y12538437D02*
Y12440000D01*
X13130000Y12538437D02*
X13177727D01*
X13208409D02*
Y12440000D01*
Y12538437D02*
X13239090D01*
X13239090D02*
X13249318Y12533750D01*
X13252727Y12529062*
X13252727D02*
X13256136Y12519687D01*
X13256136D02*
Y12505625D01*
X13252727Y12496250*
X13249318Y12491562*
X13249318D02*
X13239090Y12486875D01*
X13239090D02*
X13208409D01*
X13331136Y12538437D02*
X13297045D01*
X13297045D02*
X13293636Y12496250D01*
X13297045Y12500937*
X13297045D02*
X13307272Y12505625D01*
X13307272D02*
X13317500D01*
X13327727Y12500937*
X13327727D02*
X13334545Y12491562D01*
X13334545D02*
X13337954Y12477500D01*
X13337954D02*
X13334545Y12468125D01*
X13331136Y12454062*
X13331136D02*
X13324318Y12444687D01*
X13324318D02*
X13314090Y12440000D01*
X13314090D02*
X13303863D01*
X13303863D02*
X13293636Y12444687D01*
X13293636D02*
X13290227Y12449375D01*
X13286818Y12458750*
X12063863Y11468437D02*
Y11370000D01*
X12040000Y11468437D02*
X12087727D01*
X12118409D02*
Y11370000D01*
Y11468437D02*
X12149090D01*
X12149090D02*
X12159318Y11463750D01*
X12162727Y11459062*
X12162727D02*
X12166136Y11449687D01*
X12166136D02*
Y11435625D01*
X12162727Y11426250*
X12159318Y11421562*
X12159318D02*
X12149090Y11416875D01*
X12149090D02*
X12118409D01*
X12237727Y11454375D02*
X12234318Y11463750D01*
X12224090Y11468437*
X12224090D02*
X12217272D01*
X12217272D02*
X12207045Y11463750D01*
X12200227Y11449687*
X12200227D02*
X12196818Y11426250D01*
Y11402812*
X12196818D02*
X12200227Y11384062D01*
X12200227D02*
X12207045Y11374687D01*
X12207045D02*
X12217272Y11370000D01*
X12217272D02*
X12220681D01*
X12220681D02*
X12230909Y11374687D01*
X12230909D02*
X12237727Y11384062D01*
X12237727D02*
X12241136Y11398125D01*
Y11402812*
X12241136D02*
X12237727Y11416875D01*
X12230909Y11426250*
X12220681Y11430937*
X12220681D02*
X12217272D01*
X12217272D02*
X12207045Y11426250D01*
X12200227Y11416875*
X12196818Y11402812*
X11177500Y10992500D02*
X13672500D01*
Y10507500*
X11177500*
Y10992500*
Y10979966D02*
X13672500D01*
X11177500Y10966466D02*
X13672500D01*
X11177500Y10952966D02*
X13672500D01*
X11177500Y10939466D02*
X13672500D01*
X11177500Y10925966D02*
X13672500D01*
X11177500Y10912466D02*
X13672500D01*
X11177500Y10898966D02*
X13672500D01*
X11177500Y10885466D02*
X13672500D01*
X11177500Y10871966D02*
X13672500D01*
X11177500Y10858466D02*
X13672500D01*
X11177500Y10844966D02*
X13672500D01*
X11177500Y10831466D02*
X13672500D01*
X11177500Y10817966D02*
X13672500D01*
X11177500Y10804466D02*
X13672500D01*
X11177500Y10790966D02*
X13672500D01*
X11177500Y10777466D02*
X13672500D01*
X11177500Y10763966D02*
X13672500D01*
X11177500Y10750466D02*
X13672500D01*
X11177500Y10736966D02*
X13672500D01*
X11177500Y10723466D02*
X13672500D01*
X11177500Y10709966D02*
X13672500D01*
X11177500Y10696466D02*
X13672500D01*
X11177500Y10682966D02*
X13672500D01*
X11177500Y10669466D02*
X13672500D01*
X11177500Y10655966D02*
X13672500D01*
X11177500Y10642466D02*
X13672500D01*
X11177500Y10628966D02*
X13672500D01*
X11177500Y10615466D02*
X13672500D01*
X11177500Y10601966D02*
X13672500D01*
X11177500Y10588466D02*
X13672500D01*
X11177500Y10574966D02*
X13672500D01*
X11177500Y10561466D02*
X13672500D01*
X11177500Y10547966D02*
X13672500D01*
X11177500Y10534466D02*
X13672500D01*
X11177500Y10520966D02*
X13672500D01*
G54D19*
X12640000Y11620000D02*
X12760000D01*
Y11380000*
X12640000*
Y11620000*
X12560000Y11380000D02*
X12440000D01*
Y11620000*
X12560000*
Y11380000*
X11870000Y11800000D02*
G75*
G03X11870000I-170000D01*
G01Y12600000D02*
G03X11870000I-170000D01*
G01X12160000Y12080000D02*
X12040000D01*
Y12320000*
X12160000*
Y12080000*
X12960000Y11380000D02*
X12840000D01*
Y11620000*
X12960000*
Y11380000*
X13770000Y12850000D02*
G03X13770000I-170000D01*
G01Y13900000D02*
G03X13770000I-170000D01*
G01X13260000Y11480000D02*
X13140000D01*
Y11720000*
X13260000*
Y11480000*
X13140000Y12020000D02*
X13260000D01*
Y11780000*
X13140000*
Y12020000*
X10750000Y12700000D02*
Y11700000D01*
X10350000*
Y12700000*
X10750000*
X10825000Y12450000D02*
G03X10825000I-25000D01*
G01Y11950000D02*
G03X10825000I-25000D01*
G01X10970000Y12708000D02*
Y11692000D01*
X10210000*
Y12708000*
X10970000*
X14400000Y12900000D02*
Y13900000D01*
X14800000*
Y12900000*
X14400000*
X14375000Y13150000D02*
G03X14375000I-25000D01*
G01Y13650000D02*
G03X14375000I-25000D01*
G01X14180000Y12892000D02*
Y13908000D01*
X14940000*
Y12892000*
X14180000*
X13070000Y12500000D02*
G03X13070000I-170000D01*
G01X12440000Y11680000D02*
G03X12440000I-170000D01*
G01X11443895Y11317683D02*
G03X11440466Y11295053I68863J-22008D01*
G01X11472218Y11345391D02*
G03X11443895Y11317683I14031J-42672D01*
G01X11506846Y11353192D02*
G03X11472218Y11345391I7040J-112006D01*
G01X11562287Y11353189D02*
G03X11506846Y11353192I-27735J-289833D01*
G01X11598132Y11345393D02*
G03X11562287Y11353189I-42483J-109027D01*
G01X11626481Y11317605D02*
G03X11598132Y11345393I-43037J-15551D01*
G01X11629883Y11295106D02*
G03X11626481Y11317605I-67606J1284D01*
G01X11629883Y11295106D02*
Y11222651D01*
X11626443Y11202049D02*
G03X11629883Y11222651I-70644J22383D01*
G01X11598159Y11174385D02*
G03X11626443Y11202049I-13690J42289D01*
G01X11562394Y11166583D02*
G03X11598159Y11174385I-5644J111754D01*
G01X11506832Y11166573D02*
G03X11562394Y11166583I27719J344666D01*
G01X11472174Y11174388D02*
G03X11506832Y11166573I44236J115420D01*
G01X11443872Y11202147D02*
G03X11472174Y11174388I42743J15270D01*
G01X11440466Y11222582D02*
G03X11443872Y11202147I67445J741D01*
G01X11440466Y11222582D02*
Y11228217D01*
X11440466D02*
X11477649D01*
X11477649D02*
Y11222365D01*
Y11222366D02*
G03X11480621Y11202378I87561J2803D01*
G01X11480621D02*
G03X11496418Y11181518I35783J10687D01*
G01X11496418D02*
G03X11517305Y11174634I26600J45575D01*
X11553468Y11174628I18103J146611*
G01X11553468D02*
G03X11580156Y11185929I-4926J48799D01*
G01X11580156D02*
G03X11591193Y11204993I-26394J28008D01*
G01X11591193D02*
G03X11592700Y11222558I-96151J17095D01*
G01X11592700D02*
Y11295199D01*
G03X11591199Y11312457I-99983J0*
G01X11591199D02*
G03X11576525Y11335843I-36034J-6314D01*
X11553162Y11343744I-27677J-43350*
X11518561Y11343737I-17267J-164074*
X11494923Y11335524I5249J-53231*
G01X11494923D02*
G03X11479822Y11312971I21708J-30867D01*
X11477649Y11295214I106138J-21995*
G01X11477649D02*
Y11285335D01*
X11477649D02*
X11440466D01*
X11440466D02*
Y11295053D01*
Y11285014D02*
X11477649D01*
X11477649D02*
Y11232531D01*
X11477649D02*
X11440466D01*
X11440466D02*
Y11285014D01*
X11689925Y11350037D02*
X11728482D01*
Y11270205*
X11850621*
X11850621D02*
X11850622Y11350037D01*
X11889164*
Y11170886*
X11889164D02*
X11850622D01*
X11850622D02*
Y11255782D01*
X11728482*
Y11170886*
X11728482D02*
X11689925D01*
X11689925D02*
Y11350037D01*
X11211361Y11170887D02*
Y11350978D01*
X11311529Y11354170D02*
G03X11211361Y11350978I-15741J-1079277D01*
G01X11359041Y11349890D02*
G03X11311529Y11354170I-43762J-219931D01*
G01X11386733Y11333822D02*
G03X11359041Y11349890I-36832J-31581D01*
G01X11391740Y11321762D02*
G03X11386733Y11333822I-44889J-11568D01*
G01X11390413Y11271494D02*
G03X11391740Y11321762I-112660J28126D01*
G01X11374531Y11255449D02*
G03X11390413Y11271494I-9274J25063D01*
G01X11330060Y11245652D02*
G03X11374531Y11255449I-10341J152782D01*
G01X11330060Y11245652D02*
X11393511Y11171013D01*
X11393511D02*
X11351218D01*
X11296863Y11236675*
X11293103Y11246151D02*
G03X11296863Y11236675I13249J-225D01*
G01X11293103Y11246151D02*
Y11254829D01*
X11303575Y11254808*
X11303575D02*
G03X11330070Y11257804I227J116661D01*
X11356798Y11281915I-5249J32689*
X11356623Y11319672I-70808J18551*
G01X11356623D02*
G03X11339314Y11339013I-31622J-10884D01*
G01X11339314D02*
G03X11320706Y11344310I-20732J-37494D01*
G01X11320706D02*
G03X11264636Y11343385I-24499J-214515D01*
X11249571Y11323644I4069J-18723*
G01X11249571D02*
Y11170887D01*
X11249571D02*
X11211361D01*
X11955226Y11350500D02*
X12041649Y11354134D01*
X12122397Y11352942D02*
G03X12041649Y11354134I-52546J-824022D01*
G01X12158519Y11344243D02*
G03X12122397Y11352942I-45417J-109252D01*
G01X12180184Y11316561D02*
G03X12158519Y11344243I-37234J-6821D01*
G01X12181352Y11298676D02*
G03X12180184Y11316561I-111033J1730D01*
G01X12181352Y11298676D02*
Y11170879D01*
X12181352D02*
X12145654D01*
X12145654D02*
Y11310485D01*
G03X12116161Y11341605I-29364J1706*
G01X12116161D02*
X12101768Y11341923D01*
G03X12085322Y11326519I-1008J-15403*
G01X12085322D02*
Y11170879D01*
X12085322D02*
X12049609D01*
X12049609D02*
Y11326450D01*
X12049609D02*
G03X12034156Y11342020I-15387J181D01*
G01X12034156D02*
X12006284Y11341521D01*
X12006284D02*
G03X11990940Y11325451I280J-15626D01*
G01X11990940D02*
Y11170879D01*
X11990940D02*
X11955226D01*
X11955226D02*
Y11350500D01*
X11592700Y11291427D02*
X11629883D01*
X11592700Y11273427D02*
X11629883D01*
X11592700Y11255427D02*
X11629883D01*
X11592700Y11237427D02*
X11629883D01*
X11592665Y11219427D02*
X11629735D01*
X11591682Y11309427D02*
X11628627D01*
X11590157Y11201427D02*
X11626221D01*
X11584920Y11327427D02*
X11621526D01*
X11576923Y11183427D02*
X11613971D01*
X11472307Y11345427D02*
X11598045D01*
X11456536Y11183427D02*
X11493684D01*
X11448735Y11327427D02*
X11486538D01*
X11444137Y11201427D02*
X11480919D01*
X11441783Y11309427D02*
X11479148D01*
X11440575Y11219427D02*
X11477793D01*
X11440466Y11291427D02*
X11477649D01*
X11440466Y11268498D02*
X11477649D01*
X11440466Y11250498D02*
X11477649D01*
X11850622Y11332853D02*
X11889164D01*
X11850622Y11314853D02*
X11889164D01*
X11850621Y11296853D02*
X11889164D01*
X11850621Y11278853D02*
X11889164D01*
X11689925Y11260853D02*
X11889164D01*
X11850622Y11242853D02*
X11889164D01*
X11850622Y11224853D02*
X11889164D01*
X11850622Y11206853D02*
X11889164D01*
X11850622Y11188853D02*
X11889164D01*
X11689925Y11332853D02*
X11728482D01*
X11689925Y11314853D02*
X11728482D01*
X11689925Y11296853D02*
X11728482D01*
X11689925Y11278853D02*
X11728482D01*
X11689925Y11242853D02*
X11728482D01*
X11689925Y11224853D02*
X11728482D01*
X11689925Y11206853D02*
X11728482D01*
X11689925Y11188853D02*
X11728482D01*
X11359098Y11296854D02*
X11393838D01*
X11357760Y11314854D02*
X11392867D01*
X11355815Y11278854D02*
X11391999D01*
X11348223Y11332854D02*
X11387291D01*
X11339573Y11260854D02*
X11383360D01*
X11336449Y11188854D02*
X11378345D01*
X11321549Y11206854D02*
X11363043D01*
X11211361Y11350854D02*
X11353883D01*
X11306649Y11224854D02*
X11347741D01*
X11293461Y11242854D02*
X11332439D01*
X11211361Y11332854D02*
X11251384D01*
X11211361Y11314854D02*
X11249571D01*
X11211361Y11296854D02*
X11249571D01*
X11211361Y11278854D02*
X11249571D01*
X11211361Y11260854D02*
X11249571D01*
X11211361Y11242854D02*
X11249571D01*
X11211361Y11224854D02*
X11249571D01*
X11211361Y11206854D02*
X11249571D01*
X11211361Y11188854D02*
X11249571D01*
X12145654Y11296846D02*
X12181352D01*
X12145654Y11278846D02*
X12181352D01*
X12145654Y11260846D02*
X12181352D01*
X12145654Y11242846D02*
X12181352D01*
X12145654Y11224846D02*
X12181352D01*
X12145654Y11206846D02*
X12181352D01*
X12145654Y11188846D02*
X12181352D01*
X12145583Y11314846D02*
X12180423D01*
X12137232Y11332846D02*
X12172934D01*
X11963440Y11350846D02*
X12137113D01*
X12048299Y11332846D02*
X12086678D01*
X12049609Y11314846D02*
X12085322D01*
X12049609Y11296846D02*
X12085322D01*
X12049609Y11278846D02*
X12085322D01*
X12049609Y11260846D02*
X12085322D01*
X12049609Y11242846D02*
X12085322D01*
X12049609Y11224846D02*
X12085322D01*
X12049609Y11206846D02*
X12085322D01*
X12049609Y11188846D02*
X12085322D01*
X11955226Y11332846D02*
X11992565D01*
X11955226Y11314846D02*
X11990940D01*
X11955226Y11296846D02*
X11990940D01*
X11955226Y11278846D02*
X11990940D01*
X11955226Y11260846D02*
X11990940D01*
X11955226Y11242846D02*
X11990940D01*
X11955226Y11224846D02*
X11990940D01*
X11955226Y11206846D02*
X11990940D01*
X11955226Y11188846D02*
X11990940D01*
X11329737Y11088553D02*
X11290244D01*
X11329737Y11113347D02*
X11306947D01*
X11306947D02*
G03X11290170Y11096570I0J-16776D01*
G01X11290170D02*
Y11079942D01*
G03X11306910Y11063202I16740J0*
G01X11329737*
X11370195Y11065837D02*
Y11111120D01*
X11370195D02*
X11379178D01*
X11379178D02*
X11394841Y11065837D01*
X11394841D02*
X11402042D01*
X11402042D02*
X11418374Y11111120D01*
X11418374D02*
X11427727D01*
X11427727D02*
Y11065837D01*
X11470709Y11111417D02*
Y11066208D01*
X11620968Y11113048D02*
G03X11596828I-12069J-41544D01*
G01X11632094Y11101254D02*
G03X11620955Y11113053I-19638J-7381D01*
G01X11632096Y11073558D02*
G03Y11101247I-70565J13844D01*
G01X11620961Y11063016D02*
G03X11632101Y11073570I-6830J18368D01*
G01X11596834Y11063016D02*
G03X11620961I12064J36691D01*
G01X11585922Y11073558D02*
G03X11596842Y11063013I21784J11631D01*
G01X11585910Y11101196D02*
G03X11585934Y11073506I58809J-13793D01*
G01X11596835Y11113050D02*
G03X11585921Y11101244I7709J-18072D01*
G01X11671070Y11065763D02*
Y11110972D01*
X11679755*
X11679755D02*
X11710191Y11065763D01*
X11710191D02*
X11718357D01*
X11718357D02*
Y11110972D01*
X11758667Y11114238D02*
X11786505D01*
X11802233Y11097391D02*
G03X11786493Y11114240I-18988J-1962D01*
G01X11802233Y11080242D02*
G03Y11097391I-37437J8575D01*
G01X11787618Y11063907D02*
G03X11802236Y11080256I-5874J19962D01*
G01X11787619Y11063907D02*
X11758667D01*
Y11114238*
X11958136Y11113422D02*
X11939058D01*
X11939051Y11113421D02*
G03X11921992Y11096890I2806J-19962D01*
G01X11921996Y11096911D02*
G03X11921983Y11082467I43384J-7259D01*
G01X11921991Y11082424D02*
G03X11939058Y11063536I21628J2388D01*
G01X11958136*
X11993250Y11113422D02*
X12035935D01*
X12014184D02*
Y11065837D01*
X12101936Y11114459D02*
G03X12077796I-12069J-41544D01*
G01X12113065Y11102658D02*
G03X12101917Y11114466I-19653J-7387D01*
G01X12113065Y11074968D02*
G03Y11102658I-70570J13845D01*
G01X12101929Y11064427D02*
G03X12113070Y11074980I-6830J18368D01*
G01X12077803Y11064427D02*
G03X12101929I12063J36689D01*
G01X12066891Y11074968D02*
G03X12077810Y11064423I21783J11631D01*
G01X12066879Y11102606D02*
G03X12066903Y11074917I58808J-13792D01*
G01X12077824Y11114470D02*
G03X12066894Y11102666I7666J-18061D01*
G01X12149588Y11065540D02*
Y11113570D01*
X12149588D02*
X12182178D01*
Y11086549D02*
G03Y11113570I0J13510D01*
G01Y11086549D02*
X12149588D01*
X12178095D02*
X12192422Y11065540D01*
X11252013Y11113273D02*
X11218756D01*
X11218756D02*
G03Y11088256I0J-12507D01*
G01X11218756D02*
X11242022D01*
Y11063610D02*
G03Y11088256I0J12323D01*
G01Y11063610D02*
X11207472D01*
X11548359Y11113199D02*
X11529281D01*
G03X11512214Y11096660I2807J-19971*
G01X11512219Y11096689D02*
G03X11512206Y11082243I43389J-7260D01*
G01X11512214Y11082201D02*
G03X11529281Y11063313I21628J2388D01*
G01X11529281D02*
X11548359D01*
X11840400Y11110526D02*
Y11074226D01*
X11840397Y11074237D02*
G03X11852203Y11062348I16283J4363D01*
G01X11852178Y11062356D02*
G03X11873398Y11062337I10641J35244D01*
G01X11873434Y11062348D02*
G03X11884944Y11073938I-6126J17595D01*
G01X11884941Y11073929D02*
Y11110526D01*
X8999999Y31600000D02*
G03X8999999I-199999D01*
G01X8550000D02*
X9050000D01*
X8800000Y31850000D02*
Y31350000D01*
X39799999Y8400000D02*
G03X39799999I-199999D01*
G01X39350000D02*
X39850000D01*
X39600000Y8650000D02*
Y8150000D01*
X40399999Y8400000D02*
G03X40399999I-199999D01*
G01X39950000D02*
X40450000D01*
X40200000Y8650000D02*
Y8150000D01*
G54D21*
X12185000Y12337928D02*
Y12242071D01*
X12232928Y12290000*
X12232928D02*
X12185000Y12337928D01*
Y12287037D02*
X12229966D01*
X12185000Y12296037D02*
X12226891D01*
X12185000Y12278037D02*
X12220966D01*
X12185000Y12305037D02*
X12217891D01*
X12185000Y12269037D02*
X12211966D01*
X12185000Y12314037D02*
X12208891D01*
X12185000Y12260037D02*
X12202966D01*
X12185000Y12323037D02*
X12199891D01*
X12185000Y12251037D02*
X12193966D01*
X12185000Y12332037D02*
X12190891D01*
G54D23*
X11455000Y12005000D02*
Y12395000D01*
X11145000Y12005000D02*
Y12395000D01*
X11445000Y12165000D02*
X11155000D01*
X11445000Y12190000D02*
X11155000D01*
X11195000Y12195000*
X11445000Y12215000D02*
X11155000D01*
X11445000Y12235000D02*
X11155000D01*
X11855000Y12005000D02*
Y12395000D01*
X11545000Y12005000D02*
Y12395000D01*
X11845000Y12165000D02*
X11555000D01*
X11845000Y12190000D02*
X11555000D01*
X11595000Y12195000*
X11845000Y12215000D02*
X11555000D01*
X11845000Y12235000D02*
X11555000D01*
X13710000Y13175000D02*
Y13525000D01*
X13490000Y13175000D02*
Y13525000D01*
X13705000Y13315000D02*
X13495000D01*
X13705000Y13340000D02*
X13495000D01*
Y13345000*
X13700000Y13365000D02*
X13495000D01*
X13700000Y13385000D02*
X13495000D01*
X14010000Y13175000D02*
Y13525000D01*
X13790000Y13175000D02*
Y13525000D01*
X14005000Y13315000D02*
X13795000D01*
X14005000Y13340000D02*
X13795000D01*
Y13345000*
X14000000Y13365000D02*
X13795000D01*
X14000000Y13385000D02*
X13795000D01*
X12400000Y12700000D02*
Y13500000D01*
X13200000*
Y12700000*
X12400000*
X12635000Y13100000D02*
G03X12635000I-35000D01*
G03X12635000I-35000*
G01X12565934Y13091966D02*
X12634065D01*
X12570584Y13118966D02*
X12629415D01*
G54D24*
X11775000Y14025000D02*
Y13775000D01*
X11025000*
Y14025000*
X11775000*
X11190000Y10416687D02*
Y10250000D01*
Y10416687D02*
X11265045D01*
X11190000Y10337312D02*
X11236181D01*
X11190000Y10250000D02*
X11265045D01*
X11317000Y10416687D02*
X11363181Y10250000D01*
X11409363Y10416687D02*
X11363181Y10250000D01*
X11461318Y10416687D02*
Y10250000D01*
X11542136Y10416687D02*
X11461318Y10305562D01*
X11490181Y10345250D02*
X11542136Y10250000D01*
X11628727Y10416687D02*
X11611409Y10408750D01*
X11599863Y10384937*
X11599863D02*
X11594090Y10345250D01*
X11594090D02*
Y10321437D01*
X11594090D02*
X11599863Y10281750D01*
X11599863D02*
X11611409Y10257937D01*
X11611409D02*
X11628727Y10250000D01*
X11640272*
X11640272D02*
X11657590Y10257937D01*
X11657590D02*
X11669136Y10281750D01*
X11674909Y10321437*
X11674909D02*
Y10345250D01*
X11669136Y10384937*
X11669136D02*
X11657590Y10408750D01*
X11657590D02*
X11640272Y10416687D01*
X11640272D02*
X11628727D01*
X11732636Y10377000D02*
Y10384937D01*
X11732636D02*
X11738409Y10400812D01*
X11738409D02*
X11744181Y10408750D01*
X11744181D02*
X11755727Y10416687D01*
X11755727D02*
X11778818D01*
X11778818D02*
X11790363Y10408750D01*
X11790363D02*
X11796136Y10400812D01*
X11796136D02*
X11801909Y10384937D01*
X11801909D02*
Y10369062D01*
X11801909D02*
X11796136Y10353187D01*
X11796136D02*
X11784590Y10329375D01*
X11784590D02*
X11726863Y10250000D01*
X11726863D02*
X11807681D01*
X11940454Y10416687D02*
X11882727Y10250000D01*
X11859636Y10416687D02*
X11940454D01*
X12125181D02*
Y10250000D01*
Y10416687D02*
X12177136D01*
X12177136D02*
X12194454Y10408750D01*
X12194454D02*
X12200227Y10400812D01*
X12200227D02*
X12206000Y10384937D01*
X12206000D02*
Y10369062D01*
X12206000D02*
X12200227Y10353187D01*
X12200227D02*
X12194454Y10345250D01*
X12194454D02*
X12177136Y10337312D01*
X12177136D02*
X12125181D01*
X12165590D02*
X12206000Y10250000D01*
X12257954Y10313500D02*
X12327227D01*
Y10329375*
X12321454Y10345250*
X12321454D02*
X12315681Y10353187D01*
X12315681D02*
X12304136Y10361125D01*
X12286818*
X12275272Y10353187*
X12275272D02*
X12263727Y10337312D01*
X12263727D02*
X12257954Y10313500D01*
X12257954D02*
Y10297625D01*
X12257954D02*
X12263727Y10273812D01*
X12263727D02*
X12275272Y10257937D01*
X12275272D02*
X12286818Y10250000D01*
X12304136*
X12315681Y10257937*
X12315681D02*
X12327227Y10273812D01*
X12379181Y10361125D02*
X12413818Y10250000D01*
X12448454Y10361125D02*
X12413818Y10250000D01*
X12506181Y10265875D02*
X12500409Y10257937D01*
X12500409D02*
X12506181Y10250000D01*
X12506181D02*
X12511954Y10257937D01*
X12511954D02*
X12506181Y10265875D01*
X12610090Y10416687D02*
X12563909Y10250000D01*
X12610090Y10416687D02*
X12656272Y10250000D01*
X12581227Y10305562D02*
X12638954D01*
X11574636Y14246687D02*
X11563090Y14238750D01*
X11563090D02*
X11551545Y14222875D01*
X11545772Y14207000*
X11545772D02*
X11540000Y14183187D01*
X11540000D02*
Y14143500D01*
X11545772Y14119687*
X11545772D02*
X11551545Y14103812D01*
X11551545D02*
X11563090Y14087937D01*
X11563090D02*
X11574636Y14080000D01*
X11597727*
X11609272Y14087937*
X11609272D02*
X11620818Y14103812D01*
X11620818D02*
X11626590Y14119687D01*
X11626590D02*
X11632363Y14143500D01*
X11632363D02*
Y14183187D01*
X11632363D02*
X11626590Y14207000D01*
X11626590D02*
X11620818Y14222875D01*
X11609272Y14238750*
X11609272D02*
X11597727Y14246687D01*
X11597727D02*
X11574636D01*
X11684318D02*
Y14080000D01*
Y14246687D02*
X11765136Y14080000D01*
Y14246687D02*
Y14080000D01*
X11054636Y14256687D02*
X11043090Y14248750D01*
X11043090D02*
X11031545Y14232875D01*
X11025772Y14217000*
X11025772D02*
X11020000Y14193187D01*
X11020000D02*
Y14153500D01*
X11025772Y14129687*
X11025772D02*
X11031545Y14113812D01*
X11031545D02*
X11043090Y14097937D01*
X11043090D02*
X11054636Y14090000D01*
X11077727*
X11089272Y14097937*
X11089272D02*
X11100818Y14113812D01*
X11100818D02*
X11106590Y14129687D01*
X11106590D02*
X11112363Y14153500D01*
X11112363D02*
Y14193187D01*
X11112363D02*
X11106590Y14217000D01*
X11106590D02*
X11100818Y14232875D01*
X11089272Y14248750*
X11089272D02*
X11077727Y14256687D01*
X11077727D02*
X11054636D01*
X11164318D02*
Y14090000D01*
Y14256687D02*
X11239363D01*
X11164318Y14177312D02*
X11210500D01*
X11291318Y14256687D02*
Y14090000D01*
Y14256687D02*
X11366363D01*
X11291318Y14177312D02*
X11337500D01*
X10530000Y11636687D02*
X10576181Y11470000D01*
X10622363Y11636687D02*
X10576181Y11470000D01*
X10674318Y11636687D02*
Y11470000D01*
X10726272Y11636687D02*
Y11470000D01*
Y11636687D02*
X10807090Y11470000D01*
Y11636687D02*
Y11470000D01*
X14130000Y12806687D02*
X14176181Y12640000D01*
X14222363Y12806687D02*
X14176181Y12640000D01*
X14308954Y12806687D02*
X14297409Y12798750D01*
X14285863Y12782875*
X14285863D02*
X14280090Y12767000D01*
X14280090D02*
X14274318Y12743187D01*
X14274318D02*
Y12703500D01*
X14280090Y12679687*
X14280090D02*
X14285863Y12663812D01*
X14285863D02*
X14297409Y12647937D01*
X14297409D02*
X14308954Y12640000D01*
X14308954D02*
X14332045D01*
X14343590Y12647937*
X14343590D02*
X14355136Y12663812D01*
X14355136D02*
X14360909Y12679687D01*
X14360909D02*
X14366681Y12703500D01*
X14366681D02*
Y12743187D01*
X14366681D02*
X14360909Y12767000D01*
X14355136Y12782875*
X14343590Y12798750*
X14343590D02*
X14332045Y12806687D01*
X14332045D02*
X14308954D01*
X14418636D02*
Y12687625D01*
X14424409Y12663812*
X14424409D02*
X14435954Y12647937D01*
X14435954D02*
X14453272Y12640000D01*
X14453272D02*
X14464818D01*
X14482136Y12647937*
X14482136D02*
X14493681Y12663812D01*
X14493681D02*
X14499454Y12687625D01*
X14499454D02*
Y12806687D01*
X14591818D02*
Y12640000D01*
X14551409Y12806687D02*
X14632227D01*
X10341954Y11612875D02*
Y11470000D01*
X10290000Y11541437D02*
X10393909D01*
X10200000Y12901437D02*
X10303909D01*
X14801954Y12792875D02*
Y12650000D01*
X14750000Y12721437D02*
X14853909D01*
X14650000Y14051437D02*
X14753909D01*
X10526590Y12937000D02*
X10520818Y12952875D01*
X10509272Y12968750*
X10509272D02*
X10497727Y12976687D01*
X10497727D02*
X10474636D01*
X10474636D02*
X10463090Y12968750D01*
X10463090D02*
X10451545Y12952875D01*
X10445772Y12937000*
X10445772D02*
X10440000Y12913187D01*
X10440000D02*
Y12873500D01*
X10445772Y12849687*
X10445772D02*
X10451545Y12833812D01*
X10451545D02*
X10463090Y12817937D01*
X10463090D02*
X10474636Y12810000D01*
X10497727*
X10509272Y12817937*
X10509272D02*
X10520818Y12833812D01*
X10520818D02*
X10526590Y12849687D01*
X10526590D02*
Y12873500D01*
X10497727D02*
X10526590D01*
X10578545Y12976687D02*
Y12810000D01*
Y12976687D02*
X10659363Y12810000D01*
Y12976687D02*
Y12810000D01*
X10711318Y12976687D02*
Y12810000D01*
Y12976687D02*
X10751727D01*
X10751727D02*
X10769045Y12968750D01*
X10780590Y12952875*
X10780590D02*
X10786363Y12937000D01*
X10786363D02*
X10792136Y12913187D01*
X10792136D02*
Y12873500D01*
X10786363Y12849687*
X10786363D02*
X10780590Y12833812D01*
X10780590D02*
X10769045Y12817937D01*
X10769045D02*
X10751727Y12810000D01*
X10711318*
X14286590Y14097000D02*
X14280818Y14112875D01*
X14269272Y14128750*
X14269272D02*
X14257727Y14136687D01*
X14257727D02*
X14234636D01*
X14234636D02*
X14223090Y14128750D01*
X14223090D02*
X14211545Y14112875D01*
X14205772Y14097000*
X14205772D02*
X14200000Y14073187D01*
X14200000D02*
Y14033500D01*
X14205772Y14009687*
X14205772D02*
X14211545Y13993812D01*
X14211545D02*
X14223090Y13977937D01*
X14223090D02*
X14234636Y13970000D01*
X14257727*
X14269272Y13977937*
X14269272D02*
X14280818Y13993812D01*
X14280818D02*
X14286590Y14009687D01*
X14286590D02*
Y14033500D01*
X14257727D02*
X14286590D01*
X14338545Y14136687D02*
Y13970000D01*
Y14136687D02*
X14419363Y13970000D01*
Y14136687D02*
Y13970000D01*
X14471318Y14136687D02*
Y13970000D01*
Y14136687D02*
X14511727D01*
X14511727D02*
X14529045Y14128750D01*
X14540590Y14112875*
X14540590D02*
X14546363Y14097000D01*
X14546363D02*
X14552136Y14073187D01*
X14552136D02*
Y14033500D01*
X14546363Y14009687*
X14546363D02*
X14540590Y13993812D01*
X14540590D02*
X14529045Y13977937D01*
X14529045D02*
X14511727Y13970000D01*
X14471318*
G74*
X0Y0D02*
M02*
